<svg xmlns="http://www.w3.org/2000/svg" xmlns:xlink="http://www.w3.org/1999/xlink" version="1.1" width="612pt" height="792pt" viewBox="0 0 612 792">
<defs>
<clipPath id="clip_0">
<path transform="matrix(.24,0,0,.24,0,0)" d="M0 0H2550V3331.25H0Z" fill-rule="evenodd"/>
</clipPath>
<clipPath id="clip_1">
<path transform="matrix(.24,0,0,.24,0,0)" d="M0 0H2550V3300H0Z" fill-rule="evenodd"/>
</clipPath>
<clipPath id="clip_2">
<path transform="matrix(.24,0,0,.24,0,0)" d="M0 0H2550V3300H0Z" fill-rule="evenodd"/>
</clipPath>
<clipPath id="clip_3">
<path transform="matrix(.24,0,0,.24,0,0)" d="M0 0H2550V3300H0Z" fill-rule="evenodd"/>
</clipPath>
<clipPath id="clip_4">
<path transform="matrix(.24,0,0,.24,0,0)" d="M316.73106 662.90438H344.85606V712.90438H316.73106Z" fill-rule="evenodd"/>
</clipPath>
<clipPath id="clip_5">
<path transform="matrix(.24,0,0,.24,0,0)" d="M305.7797 814.01199H355.7797V864.01199H305.7797Z" fill-rule="evenodd"/>
</clipPath>
<clipPath id="clip_6">
<path transform="matrix(.24,0,0,.24,0,0)" d="M305.79026 744.92178H355.79026V779.29678H305.79026Z" fill-rule="evenodd"/>
</clipPath>
<clipPath id="clip_7">
<path transform="matrix(.24,0,0,.24,0,0)" d="M313.109 884.4423H347.484V934.4423H313.109Z" fill-rule="evenodd"/>
</clipPath>
<clipPath id="clip_8">
<path transform="matrix(.24,0,0,.24,0,0)" d="M0 0H2550V3300H0Z" fill-rule="evenodd"/>
</clipPath>
<clipPath id="clip_9">
<path transform="matrix(.24,0,0,.24,0,0)" d="M940.55386 909.34378H1003.05386V1006.21878H940.55386Z" fill-rule="evenodd"/>
</clipPath>
<clipPath id="clip_10">
<path transform="matrix(.24,0,0,.24,0,0)" d="M942.11636 1500.2637H1004.61636V1597.1387H942.11636Z" fill-rule="evenodd"/>
</clipPath>
<clipPath id="clip_11">
<path transform="matrix(.24,0,0,.24,0,0)" d="M938.99136 2518.2789H1001.49136V2615.1539H938.99136Z" fill-rule="evenodd"/>
</clipPath>
<clipPath id="clip_12">
<path transform="matrix(.24,0,0,.24,0,0)" d="M0 0H2550V3300H0Z" fill-rule="evenodd"/>
</clipPath>
</defs>
<g clip-path="url(#clip_0)">
<path transform="matrix(.75,0,0,.75,0,0)" d="M0 0H816V1066H0Z" fill="#ffffff"/>
</g>
<g clip-path="url(#clip_1)">
<path transform="matrix(.75,0,0,.75,0,0)" d="M0 0H816V1056H0Z" fill="#ffffff"/>
</g>
<g clip-path="url(#clip_2)">
<path transform="matrix(.75,0,0,.75,0,0)" d="M0 0H816V1056H0Z" fill="#ffffff"/>
</g>
<g clip-path="url(#clip_3)">
<text fill="#575757" xml:space="preserve" transform="matrix(.62716248 0 0 .62716248 94.114398 160.25174)" font-size="12" font-family="Roboto"><tspan y="12" x="0 6.7440006 13.488001 20.232003 23.544003 30.288002 37.032 43.776 47.088 53.832 60.576 67.32">616-843-1554</tspan></text>
<text fill="#575757" xml:space="preserve" transform="matrix(.62716248 0 0 .62716248 94.114398 178.02863)" font-size="12" font-family="Roboto"><tspan y="12" x="0 6.276 10.440001 13.356001 19.716002 25.908 32.268 36.324 43.068 49.812 60.588 67.32 77.832 84.36 87.276 90.192 93.348 99.624 106.464008">cfleser11@gmail.com</tspan></text>
<text fill="#575757" xml:space="preserve" transform="matrix(.62716248 0 0 .62716248 94.114398 196.32518)" font-size="12" font-family="Roboto"><tspan y="12" x="0 9.012001 18.024003 27.036004 30.192004 33.108 36.024003 42.648004 48.732004 55.092004 61.860006 64.776 71.4 74.556 80.832 87.672008 98.184009 103.128009 106.04401 112.66801 117.61201 123.88801 130.72801 137.35202 143.97602 150.81601 154.87201 158.184 162.348 165.264 171.62401 177.81601 184.17601 188.23201 194.97602">www.linkedin.com/in/connor-fleser11</tspan></text>
<text fill="#575757" xml:space="preserve" transform="matrix(.62716248 0 0 .62716248 94.114398 213.22847)" font-size="12" font-family="Roboto"><tspan y="12" x="0 6.7440006 13.488001 20.232003 26.976002 33.72 36.696004 44.268007 51.108007 57.732007 64.50001 67.476009 75.10801 78.02401 84.38401 93.39601 96.37201 102.82801 109.45201 111.80401 114.78001 125.424 131.784 137.976 141.9 144.87599 153.13199 156.04799 158.96399 164.77199">11057 Pond View Ln, West Olive</tspan></text>
<path transform="matrix(.00000000000000004594198,-.75028946,.75,.000000000000000045924258,232.7412,735.9996)" stroke-width="1" stroke-linecap="butt" stroke-miterlimit="4" stroke-linejoin="miter" fill="none" stroke="#575757" d="M0 .5H809.6885"/>
<path transform="matrix(-.7504322,-.000000000000000091901436,.000000000000000091848517,-.75,541.11758,128.75585)" stroke-width="1" stroke-linecap="butt" stroke-miterlimit="4" stroke-linejoin="miter" fill="none" stroke="#575757" d="M0 .5H623.6471"/>
<path transform="matrix(-.7493495,-.000000000000000091768849,.000000000000000091848517,-.75,208.5043,232.10706)" d="M0 0H3V1H0M4 0H7V1H4M8 0H11V1H8M12 0H15V1H12M16 0H19V1H16M20 0H23V1H20M24 0H27V1H24M28 0H31V1H28M32 0H35V1H32M36 0H39V1H36M40 0H43V1H40M44 0H47V1H44M48 0H51V1H48M52 0H55V1H52M56 0H59V1H56M60 0H63V1H60M64 0H67V1H64M68 0H71V1H68M72 0H75V1H72M76 0H79V1H76M80 0H83V1H80M84 0H87V1H84M88 0H91V1H88M92 0H95V1H92M96 0H99V1H96M100 0H103V1H100M104 0H107V1H104M108 0H111V1H108M112 0H115V1H112M116 0H119V1H116M120 0H123V1H120M124 0H127V1H124M128 0H131V1H128M132 0H135V1H132M136 0H139V1H136M140 0H143V1H140M144 0H147V1H144M148 0H151V1H148M152 0H155V1H152M156 0H159V1H156M160 0H163V1H160M164 0H167V1H164M168 0H171V1H168M172 0H175V1H172M176 0H179V1H176M180 0H180.16214V1H180" fill="#575757"/>
<path transform="matrix(-.75084468,-.00000000000000009195195,.000000000000000091848517,-.75,541.4157,232.85706)" d="M0 0H3V1H0M4 0H7V1H4M8 0H11V1H8M12 0H15V1H12M16 0H19V1H16M20 0H23V1H20M24 0H27V1H24M28 0H31V1H28M32 0H35V1H32M36 0H39V1H36M40 0H43V1H40M44 0H47V1H44M48 0H51V1H48M52 0H55V1H52M56 0H59V1H56M60 0H63V1H60M64 0H67V1H64M68 0H71V1H68M72 0H75V1H72M76 0H79V1H76M80 0H83V1H80M84 0H87V1H84M88 0H91V1H88M92 0H95V1H92M96 0H99V1H96M100 0H103V1H100M104 0H107V1H104M108 0H111V1H108M112 0H115V1H112M116 0H119V1H116M120 0H123V1H120M124 0H127V1H124M128 0H131V1H128M132 0H135V1H132M136 0H139V1H136M140 0H143V1H140M144 0H147V1H144M148 0H151V1H148M152 0H155V1H152M156 0H159V1H156M160 0H163V1H160M164 0H167V1H164M168 0H171V1H168M172 0H175V1H172M176 0H179V1H176M180 0H183V1H180M184 0H187V1H184M188 0H191V1H188M192 0H195V1H192M196 0H199V1H196M200 0H203V1H200M204 0H207V1H204M208 0H211V1H208M212 0H215V1H212M216 0H219V1H216M220 0H223V1H220M224 0H227V1H224M228 0H231V1H228M232 0H235V1H232M236 0H239V1H236M240 0H243V1H240M244 0H247V1H244M248 0H251V1H248M252 0H255V1H252M256 0H259V1H256M260 0H263V1H260M264 0H267V1H264M268 0H271V1H268M272 0H275V1H272M276 0H279V1H276M280 0H283V1H280M284 0H287V1H284M288 0H291V1H288M292 0H295V1H292M296 0H299V1H296M300 0H303V1H300M304 0H307V1H304M308 0H311V1H308M312 0H315V1H312M316 0H319V1H316M320 0H323V1H320M324 0H327V1H324M328 0H331V1H328M332 0H335V1H332M336 0H339V1H336M340 0H343V1H340M344 0H347V1H344M348 0H351V1H348M352 0H355V1H352M356 0H359V1H356M360 0H363V1H360M364 0H367V1H364M368 0H371V1H368M372 0H374.58338V1H372" fill="#575757"/>
<path transform="matrix(-.7493495,-.000000000000000091768849,.000000000000000091848517,-.75,208.88416,372.14149)" d="M.000000000000014210855 0H3V1H.000000000000014210855M4 0H7V1H4M8 0H11V1H8M12 0H15V1H12M16 0H19V1H16M20 0H23V1H20M24 0H27V1H24M28 0H31V1H28M32 0H35V1H32M36 0H39V1H36M40 0H43V1H40M44 0H47V1H44M48 0H51V1H48M52 0H55V1H52M56 0H59V1H56M60 0H63V1H60M64 0H67V1H64M68 0H71V1H68M72 0H75V1H72M76 0H79V1H76M80 0H83V1H80M84 0H87V1H84M88 0H91V1H88M92 0H95V1H92M96 0H99V1H96M100 0H103V1H100M104 0H107V1H104M108 0H111V1H108M112 0H115V1H112M116 0H119V1H116M120 0H123V1H120M124 0H127V1H124M128 0H131V1H128M132 0H135V1H132M136 0H139V1H136M140 0H143V1H140M144 0H147V1H144M148 0H151V1H148M152 0H155V1H152M156 0H159V1H156M160 0H163V1H160M164 0H167V1H164M168 0H171V1H168M172 0H175V1H172M176 0H179V1H176M180 0H180.16214V1H180" fill="#575757"/>
<path transform="matrix(-.7504322,-.000000000000000091901436,.000000000000000091848517,-.75,522.28988,737.006)" stroke-width="1" stroke-linecap="butt" stroke-miterlimit="4" stroke-linejoin="miter" fill="none" stroke="#575757" d="M0 .5H623.6471"/>
</g>
<g clip-path="url(#clip_4)">
<path transform="matrix(.005626929,0,0,.0054296187,76.02161,159.10083)" d="M1096.4 .83300009C1098.724 .84400007 1101.046 .9280001 1103.364 1.0970001 1107.714 1.4140002 1112.042 2.0180002 1116.312 2.9050003 1121.791 4.044 1127.171 5.651 1132.377 7.704 1137.9619 9.906 1143.345 12.62 1148.437 15.799999 1153.6481 19.053999 1158.557 22.792 1163.077 26.952 1168.173 31.64 1172.777 36.859 1176.79 42.502 1180.546 47.781999 1183.781 53.432 1186.433 59.343999 1189.089 65.264 1191.155 71.447 1192.595 77.772998 1193.6079 82.21999 1194.3109 86.739 1194.699 91.284 1194.923 93.909999 1195.041 96.545 1195.0599 99.181 1198.167 769.261 1198.168 1439.381 1195.0599 2109.481 1195.0409 2112.117 1194.923 2114.752 1194.699 2117.379 1194.311 2121.9229 1193.608 2126.442 1192.596 2130.889 1191.289 2136.627 1189.4679 2142.2479 1187.158 2147.661 1184.6129 2153.627 1181.4769 2159.3399 1177.813 2164.6939 1174.125 2170.0838 1169.902 2175.108 1165.229 2179.671 1160.553 2184.2379 1155.425 2188.3419 1149.944 2191.9029 1145.1699 2195.004 1140.129 2197.692 1134.893 2199.9259 1129.48 2202.2349 1123.86 2204.0557 1118.122 2205.3629 1113.674 2206.3758 1109.156 2207.0789 1104.611 2207.4659 1101.984 2207.69 1099.35 2207.8079 1096.714 2207.828 764.79397 2209.367 432.864 2209.367 100.94397 2207.828 98.30797 2207.8079 95.67397 2207.69 93.04697 2207.4659 88.50197 2207.0789 83.98296 2206.3758 79.535968 2205.3629 73.797969 2204.056 68.17796 2202.2349 62.764966 2199.9259 56.432966 2197.2239 50.386964 2193.8577 44.752969 2189.9019 39.407968 2186.15 34.433969 2181.868 29.927968 2177.14 25.554966 2172.553 21.620968 2167.5469 18.199967 2162.211 15.016966 2157.2459 12.2779669 2151.9969 10.030967 2146.544 7.864967 2141.285 6.153967 2135.8389 4.9269669 2130.286 3.9199668 2125.7279 3.2369667 2121.098 2.8839668 2116.4439 2.7079666 2114.13 2.6159669 2111.8099 2.5979667 2109.4888-.82103326 1439.3987-.8200333 769.2888 2.5979667 99.18872 2.6159666 96.86772 2.7079666 94.54772 2.8839668 92.23372 3.2369667 87.57872 3.9199668 82.94972 4.9269669 78.391719 6.219967 72.54172 8.047967 66.811717 10.381967 61.294717 12.793966 55.592718 15.743967 50.119718 19.178967 44.968717 22.694968 39.698717 26.714966 34.765718 31.167967 30.259716 35.620969 25.753716 40.503969 21.674717 45.730966 18.097718 50.918966 14.547717 56.444967 11.491717 62.211969 8.9897179 67.98397 6.485718 73.99597 4.5377175 80.13997 3.1797176 84.59497 2.1947175 89.117969 1.5207175 93.66597 1.1607175 96.08597 .96871748 98.51197 .8697175 100.93897 .8497175 432.75898-.7272825 764.579 .31971754 1096.399 .8487175L1096.4 .83300009ZM629.65 2017.133H567.78207C543.46707 2017.133 523.728 2036.873 523.728 2061.186V2123.055C523.728 2147.368 543.468 2167.108 567.78207 2167.108H629.65C653.96408 2167.108 673.70407 2147.368 673.70407 2123.055V2061.186C673.70407 2036.873 653.965 2017.133 629.65 2017.133ZM618.06 2045.228C633.265 2045.229 645.608 2057.573 645.608 2072.7762V2111.464C645.608 2126.6683 633.264 2139.0123 618.06 2139.0123H579.372C564.168 2139.0123 551.82406 2126.6683 551.82406 2111.464V2072.7762C551.82406 2057.5733 564.16708 2045.2291 579.372 2045.2282H618.06V2045.228ZM1160.24 154.02808H37.640016C36.723016 762.49807 34.690015 1370.9281 37.131017 1979.4281H1160.3309C1161.5089 1370.9581 1162.9049 762.5281 1160.3259 154.02808H1160.24ZM795.15 59.804079H402.29005C397.64604 59.805078 393.87705 63.574079 393.87705 68.21708V85.04408C393.87705 89.68708 397.64704 93.457088 402.29005 93.457088H795.15C799.794 93.457088 803.564 89.68709 803.564 85.04408V68.21709C803.564 63.574087 799.79507 59.805089 795.15 59.804086V59.804079Z" fill="#575757" fill-rule="evenodd"/>
</g>
<g clip-path="url(#clip_5)">
<path transform="matrix(.024539877,0,0,.024539877,73.38712,195.36287)" d="M244.482 0C109.675 0 0 109.675 0 244.482 0 379.284 109.675 488.96199 244.482 488.96199 379.28999 488.96199 488.96199 379.28398 488.96199 244.48198 488.962 109.675 379.291 0 244.482 0ZM252.125 131.93C283.438 131.10399 318.491 127.61299 356.396 119.83299 370.023 152.95 377.634 192.31198 378.83799 236.81H252.125V131.93ZM252.125 116.607V16.167C261.283 18.818 286.599 27.911 312.194 52.767 327.252 67.395999 339.862 85.086 349.926 105.507 314.431 112.581 281.566 115.812 252.125 116.607ZM236.838 116.812C209.882 116.800998 186.178 114.826 166.42 112.135997 156.306 110.760997 146.855 109.159 138.1 107.437999 148.173 86.51399 160.85701 68.394 176.078 53.446996 201.727 28.250996 227.542 18.909996 236.838 16.183995V116.812ZM163.655 127.243C184.176 130.06 208.805 132.14 236.838 132.151V236.81H110.125C111.304 193.209 118.631 154.53 131.75 121.824 141.513 123.81 152.155 125.663 163.655 127.243ZM94.841 236.81H15.486C17.159 186.183 35.327 139.66 64.79 102.461 73.264 105.896999 90.992008 112.423 116.64101 118.506999 101.091 158.504 95.786 201.078 94.841 236.81ZM94.703 252.152C95.042 299.567 102.961009 337.327 114.569 367.26499 97.388 371.33 79.682 376.274 61.517004 382.267 33.984 345.8 17.093 300.882 15.486 252.152H94.703ZM109.973 252.152H236.838V351.19099C204.729 352.037 168.676 355.67597 129.66 363.87898 116.977 332.013 110.293 294.463 109.973 252.152ZM236.838 366.536V469.255C224.493 465.454 201.075 456.053 177.737 434.94703 160.65 419.497 146.683 400.463 135.956 378.252 172.628 370.746 206.549 367.353 236.838 366.536ZM252.125 366.332C279.08 366.344 302.777 368.32 322.54103 371.011 333.842 372.546 344.31404 374.36399 353.915 376.31999 343.204 399.08299 329.146 418.56999 311.86903 434.356 288.44804 455.766 264.62504 465.34999 252.12502 469.23298V366.332H252.125ZM325.302 355.898C304.787 353.08103 280.152 351.00303 252.124 350.987V252.15201H378.991C378.677 293.58003 372.263 330.466 360.09 361.90803 349.551 359.698 337.946 357.637 325.302 355.898ZM394.27 252.152H473.47999C471.86698 300.804 455.03099 345.662 427.57298 382.102 421.46897 379.472 403.34098 372.192 375.14698 365.32099 389.553 326.959 394.005 286.455 394.27 252.152ZM394.122 236.81C393.16 200.492 387.69703 157.09799 371.547 116.53 388.477 112.611 405.926 107.817 423.822 102.028 453.49 139.299 471.801 185.985 473.47999 236.811H394.122V236.81ZM413.006 89.4C396.70603 94.493007 380.798 98.740009 365.34803 102.237 355.002 80.319 341.18803 59.616 322.84403 41.8 314.46403 33.655 306.10203 27.06 298.19804 21.716 343.016 32.523 382.737 56.538 413.006 89.4ZM190.765 21.716C182.866 27.06 174.5 33.655 166.119 41.8 147.24701 60.128 133.181 81.520999 122.73601 104.145999 100.95001 99.091999 84.79401 93.64 75.326007 90.076999 105.667 56.863 145.637 32.598 190.765 21.716ZM71.893 395.039C88.569 389.703 104.839 385.262 120.63899 381.594 134.35999 411.135 151.611 431.932 167.483 446.287 178.149 455.93199 188.815 463.339 198.65 469.016 148.542 458.803 104.336 432.179 71.893 395.039ZM290.315 469.016C300.147 463.33799 310.819 455.931 321.48 446.287 342.87803 426.93699 358.267 403.987 369.226 379.693 392.746 385.328 409.311 391.315 417.492 394.55799 385.012 431.958 340.635 458.759 290.315 469.016Z" fill="#575757"/>
</g>
<g clip-path="url(#clip_6)">
<path transform="matrix(.21403337,0,0,.20625,72.54059,177.13121)" d="M10 8C6.6863005 8 4 10.6821999 4 14 4.07439 23.0983 4.0002 32.728 4 42 4 45.1932 6.4839 47.7776 9.625 47.9688L54.25 48.00005C57.4493 47.87085 60 45.23515 60 42.00005V12.969049C59.51451 10.140349 57.0587 8.00025 54.0938 8.00025 39.4038 8.00692 24.695799 8.00033 9.999798 8.00025L10 8ZM9.90625 11.1562H54.28125L32.81225 32.6252C32.42051 33.016939 31.797749 33.016939 31.406048 32.6252L9.906048 11.1561989 9.90625 11.1562ZM57.00025 12.687401V41.781404C57.00025 43.5148 56.37575 44.493906 55.12525 44.843904L40.00025 29.687903 57.00025 12.687902V12.687401ZM7.3442537 12.812401 24.063254 29.5314 8.782253 44.8124C7.7360537 44.45937 7.3718535 43.6171 7.3447535 42.4686V12.812601L7.3442537 12.812401ZM26.188254 31.624402 31.407053 36.8744C31.798794 37.26614 32.421556 37.26614 32.81325 36.8744L37.87575 31.811902 51.06375 44.9999H12.813751L26.188752 31.6249 26.188254 31.624402Z" fill="#575757"/>
</g>
<g clip-path="url(#clip_7)">
<path transform="matrix(.024389407,0,0,.025031288,73.03113,211.69045)" d="M257.49 23C243.67922 23.000926 230.0897 24.735466 216.7215 28.203625 203.35329 31.671782 190.63449 36.76248 178.56513 43.475728 166.49576 50.18897 155.46236 58.309747 145.46492 67.838069 135.4675 77.36638 126.826229 87.99706 119.541118 99.73012 112.25601 111.46317 106.56039 123.92282 102.45425 137.10907 98.3481 150.29532 95.96295 163.78585 95.29879 177.58065 94.63463 191.37543 95.71273 205.03267 98.533107 218.5524 101.35346 232.07213 105.82576 245.02132 111.95 257.4L224 483.82C230.07263 496.19059 239.9993 502.38059 253.78 502.39H253.92C267.6381 502.43644 277.56809 496.32646 283.71 484.06004L399.77 254.28C405.90907 242.12892 410.41746 229.40027 413.29518 216.09404 416.17286 202.78783 417.32695 189.33376 416.75743 175.73181 416.1879 162.12989 413.91316 148.81937 409.9332 135.80027 405.95326 122.78116 400.39665 110.473918 393.26335 98.878528 386.13005 87.28315 377.65043 76.77409 367.8245 67.35137 357.99855 57.928647 347.14363 49.89655 335.2597 43.255075 323.37577 36.6136 310.84666 31.577242 297.6723 28.145993 284.49797 24.71474 271.10386 22.99941 257.49 23ZM383.7 246.17 267.62 475.95C264.82066 481.64714 260.2473 484.46049 253.9 484.39H253.82999C247.44754 484.4363 242.8742 481.58299 240.10999 475.83003L128.10999 249.42002C122.66489 238.41446 118.688358 226.90167 116.1804 214.88164 113.67244 202.8616 112.713359 190.71924 113.30315 178.45455 113.89293 166.18982 116.0127 154.19551 119.662479 142.47159 123.31224 130.74768 128.37512 119.66959 134.85114 109.23733 141.32714 98.805049 149.00887 89.352649 157.89635 80.880138 166.78385 72.40762 176.59249 65.186298 187.32228 59.216154 198.05207 53.246004 209.3594 48.718214 221.24431 45.63279 233.12921 42.547365 245.2111 41.0031 257.49 41 269.56687 40.999448 281.44877 42.52113 293.13575 45.565057 304.82273 48.608983 315.9373 53.07684 326.47947 58.96863 337.02168 64.86041 346.65098 71.98585 355.3674 80.34493 364.08387 88.70401 371.60594 98.02678 377.93367 108.31324 384.26133 118.59968 389.19029 129.5176 392.72047 141.06697 396.2507 152.61637 398.26817 164.42421 398.7729 176.49054 399.2776 188.55684 398.25328 200.49193 395.6999 212.29578 393.1465 224.09963 389.14656 235.39104 383.7 246.17Z" fill="#575757"/>
<path transform="matrix(.024389407,0,0,.025031288,73.03113,211.69045)" d="M256 89C244.79459 88.99999 234.01566 91.14405 223.66321 95.43217 213.31078 99.720279 204.17285 105.82604 196.24945 113.749469 188.32604 121.672878 182.22026 130.81079 177.93216 141.16324 173.64403 151.51567 171.49999 162.2946 171.5 173.5 171.49999 184.70537 173.64403 195.48429 177.93216 205.83672 182.22026 216.18915 188.32604 225.32709 196.24945 233.2505 204.17285 241.17389 213.31078 247.27965 223.66321 251.56778 234.01566 255.85591 244.79459 257.99998 256 258 267.20536 257.99998 277.98426 255.85591 288.3367 251.56778 298.68913 247.27965 307.82707 241.17389 315.7505 233.2505 323.67387 225.32709 329.77964 216.18917 334.06776 205.83673 338.35588 195.48429 340.49998 184.70537 340.5 173.5 340.4868 162.29866 338.33384 151.52492 334.04115 141.17876 329.74845 130.83261 323.64186 121.699268 315.72129 113.77871 307.80076 105.85817 298.6674 99.75156 288.32124 95.45887 277.97508 91.16618 267.20133 89.01323 256 89ZM256 248C246.12067 247.99999 236.61736 246.10967 227.49007 242.32901 218.36277 238.54836 210.30625 233.16516 203.32053 226.17945 196.3348 219.19371 190.9516 211.13719 187.17095 202.00989 183.3903 192.8826 181.49999 183.3793 181.5 173.5 181.49999 163.62068 183.3903 154.11737 187.17096 144.99007 190.9516 135.86278 196.3348 127.80627 203.32053 120.82053 210.30625 113.8348 218.36277 108.451618 227.49007 104.67097 236.61736 100.89032 246.12067 99 256 99 265.8793 99 275.3826 100.89032 284.5099 104.67097 293.63719 108.451618 301.6937 113.8348 308.67945 120.82053 315.66517 127.80627 321.04835 135.86278 324.82899 144.99007 328.60966 154.11737 330.49998 163.62068 330.5 173.5 330.4894 183.37607 328.59199 192.87525 324.80769 201.99752 321.02339 211.11978 315.6395 219.17264 308.65608 226.15607 301.67268 233.13951 293.6198 238.52338 284.49754 242.3077 275.37525 246.09198 265.87608 247.98941 256 248Z" fill="#575757"/>
</g>
<g clip-path="url(#clip_8)">
<text fill="#575757" xml:space="preserve" transform="matrix(.70555558 0 0 .70555558 73.38712 139.36759)" font-size="16" font-family="HKGrotesk" font-weight="bold"><tspan y="15" x="0 14.35625 29.4625 43.935937 56.4875 70.09375 84.45">CONTACT</tspan></text>
<text fill="#575757" xml:space="preserve" transform="matrix(.70555558 0 0 .70555558 260.1849 139.36759)" font-size="16" font-family="HKGrotesk" font-weight="bold"><tspan y="15" x="0 12.270312 25.259375 40.365625 53.12031 61.0625 72.504688">PROFILE</tspan></text>
<text fill="#575757" xml:space="preserve" transform="matrix(.70555558 0 0 .70555558 72.537189 243.72815)" font-size="16" font-family="HKGrotesk" font-weight="bold"><tspan y="15" x="0 12.910937 27.110938 41.029687 55.385938 68.99219 81.54375 89.48593 104.59218">EDUCATION</tspan></text>
<text fill="#575757" xml:space="preserve" transform="matrix(.70555558 0 0 .70555558 258.90013 243.72815)" font-size="16" font-family="HKGrotesk" font-weight="bold"><tspan y="15" x="0 18.778126 33.884378 46.87344 61.628129 68.78906 81.7 95.18906 107.459369 120.3703 133.35936 141.30155 154.21248 168.68592 183.04216">WORK EXPERIENCE</tspan></text>
<text fill="#575757" xml:space="preserve" transform="matrix(.62716248 0 0 .62716248 75.146167 339.33006)" font-size="12" font-family="Roboto" font-weight="bold"><tspan y="12" x="0 7.8 10.9800009 17.736 20.916 27.696 38.087999">Diploma</tspan></text>
<text fill="#575757" xml:space="preserve" transform="matrix(.70555558 0 0 .70555558 75.146167 320.99073)" font-size="14.66" font-family="Roboto" font-weight="bold"><tspan y="15" x="0 9.983139 15.328949 23.186646 31.395005 39.653459 43.303209 53.658479 61.516176 68.92302 76.84512 85.05348 88.70323 99.0585 102.94441 111.31021 119.51141 123.16116 132.17104 139.81404 148.01525 156.30233 164.5894">Grand Haven High School</tspan></text>
<text fill="#575757" xml:space="preserve" transform="matrix(.62716248 0 0 .62716248 75.146167 353.85948)" font-size="12" font-family="Roboto"><tspan y="12" x="0 6.7440006 13.488001 20.232003 26.976002 30.288002 37.032 43.776 50.52">2019-2023</tspan></text>
<text fill="#575757" xml:space="preserve" transform="matrix(.62716248 0 0 .62716248 75.146167 291.65809)" font-size="12" font-family="Roboto" font-weight="bold"><tspan y="12" x="0 7.8480007 14.628 25.02 31.776001 38.496004 42.552003 49.044004 53.424005 56.412004 63.792005 70.04401 73.22401 79.716 86.436008 92.688 99.18 102.168 109.548 113.604 120.324 127.08 133.572 140.292">Computer Science Student</tspan></text>
<text fill="#575757" xml:space="preserve" transform="matrix(.70555558 0 0 .70555558 74.29621 261.24824)" font-size="14.66" font-family="Roboto" font-weight="bold"><tspan y="15" x="0 12.8385319 16.724442 24.367447 32.56865 36.45456 44.82036 52.678056 60.886415 64.53616 73.60329 81.52539 89.168399 97.3696 105.57796 113.865039 117.750949 126.038028 134.40383 138.28974 145.93274 153.79044">Michigan Technological</tspan></text>
<text fill="#575757" xml:space="preserve" transform="matrix(.70555558 0 0 .70555558 74.29621 261.24824)" font-size="14.66" font-family="Roboto" font-weight="bold"><tspan y="35" x="0 9.64679 17.855149 21.741059 29.147904 37.070009 42.415819 49.951478 53.837388 58.789598">University</tspan></text>
<text fill="#575757" xml:space="preserve" transform="matrix(.62716248 0 0 .62716248 75.146167 306.7436)" font-size="12" font-family="Roboto"><tspan y="12" x="0 6.7440006 13.488001 20.232003 26.976002 30.288002 37.032 43.776 50.52">2023-2027</tspan></text>
<text fill="#575757" xml:space="preserve" transform="matrix(.75 0 0 .75 271.14723 268.41053)" font-size="16.46" font-family="Roboto" font-weight="bold"><tspan y="16" x="0 8.909439 17.7305 26.993424 31.090638 42.161149 50.620698 59.080247 63.44258 71.90213 77.46149 86.28255 95.49727">Lab Assistant</tspan></text>
<text fill="#575757" xml:space="preserve" transform="matrix(.75 0 0 .75 271.14723 292.04026)" font-size="12.7" font-family="Roboto"><tspan y="12" x="0 8.004028 14.992065 21.893372 28.435364 35.157014 38.297914 47.02057 54.020998 60.742647 63.883546 71.094608 78.09503 85.213169 88.292118 95.29254 102.01419 108.73584 113.02902 116.10797 123.1084">Phase One Engineering</tspan></text>
<path transform="matrix(.75,0,0,.75,268.768,313.20539)" d="M12 9C11.999999 9.265216 11.949251 9.520338 11.847757 9.765367 11.7462639 10.010394 11.601748 10.226676 11.414212 10.414213 11.226675 10.601749 11.010393 10.746264 10.765366 10.847758 10.520337 10.949252 10.265216 10.999999 10 11 9.734783 10.999999 9.479661 10.949252 9.2346329 10.847758 8.989604 10.746264 8.773322 10.601749 8.585786 10.414213 8.398249 10.226676 8.253734 10.010394 8.15224 9.765367 8.050746 9.520338 7.9999997 9.265216 8 9 7.9999997 8.734783 8.050746 8.479661 8.15224 8.2346329 8.253734 7.989604 8.398249 7.7733218 8.585786 7.585786 8.773322 7.398249 8.989604 7.2537338 9.2346329 7.1522405 9.479661 7.050747 9.734783 7 10 7 10.265216 7 10.520337 7.050747 10.765366 7.1522405 11.010393 7.2537338 11.226675 7.398249 11.414212 7.585786 11.601748 7.7733218 11.7462639 7.989604 11.847757 8.2346329 11.949251 8.479661 11.999999 8.734783 12 9Z" fill="#575757"/>
<text fill="#575757" xml:space="preserve" transform="matrix(.75 0 0 .75 268.768 313.20539)" font-size="12.7" font-family="Roboto"><tspan y="12" x="21.578125 29.390107 36.111757 42.653749 49.375398 56.276704 60.569887 67.211 74.199039 80.920688 88.07599 91.21689 99.22092 103.5141 110.74994 113.77933 120.50098 127.14209 131.28659 137.82859 140.96949 145.37418 152.61002 156.9032 160.0441 166.68521 169.76416 172.84311 179.56476 186.56519 190.70969">Researched Projects for clients</tspan></text>
<path transform="matrix(.75,0,0,.75,268.768,313.20539)" d="M12 26C11.999999 26.265215 11.949251 26.520337 11.847757 26.765364 11.7462639 27.010392 11.601748 27.226675 11.414212 27.414212 11.226675 27.601748 11.010393 27.746262 10.765366 27.847754 10.520337 27.94925 10.265216 27.999999 10 28 9.734783 27.999999 9.479661 27.94925 9.2346329 27.847754 8.989604 27.746262 8.773322 27.601748 8.585786 27.414212 8.398249 27.226675 8.253734 27.010392 8.15224 26.765364 8.050746 26.520337 7.9999997 26.265215 8 26 7.9999997 25.734782 8.050746 25.479659 8.15224 25.23463 8.253734 24.989603 8.398249 24.773322 8.585786 24.585785 8.773322 24.398249 8.989604 24.253733 9.2346329 24.152239 9.479661 24.050747 9.734783 24 10 24 10.265216 24 10.520337 24.050747 10.765366 24.152239 11.010393 24.253733 11.226675 24.398249 11.414212 24.585785 11.601748 24.773322 11.7462639 24.989603 11.847757 25.23463 11.949251 25.479659 11.999999 25.734782 12 26Z" fill="#575757"/>
<text fill="#575757" xml:space="preserve" transform="matrix(.75 0 0 .75 268.768 313.20539)" font-size="12.7" font-family="Roboto"><tspan y="29" x="21.578125 29.854737 36.49585 40.64035 47.362 54.517305 57.658205 64.55951 71.1015 74.2424 81.14371 88.144138 91.285037 94.36398 101.36441 105.50891 112.23056 116.52374 127.64389 134.36554 141.52085 144.5998 151.5011 155.79428 161.7973 164.9382 169.23139 175.95304 179.03199 185.93329 191.93631 195.01526 202.01569 209.13382 212.27472 218.91584 221.99478 225.07373 231.79538 238.7958 242.9403 246.0812 253.23651 259.95817 266.50016 269.5791 273.87229 280.59394 287.13594 290.27684 294.42134 301.65718 304.79808 311.9162 316.20939 323.44523 326.4746 333.19627 339.83738">Acted as an intermediary relaying client desires to project</tspan></text>
<text fill="#575757" xml:space="preserve" transform="matrix(.75 0 0 .75 268.768 313.20539)" font-size="12.7" font-family="Roboto"><tspan y="46" x="21.578125 25.722626 32.444276 39.34558 50.46573 53.60663 64.726779 71.448429 82.56857 89.68671 96.408359 100.70154">team members</tspan></text>
<path transform="matrix(.75,0,0,.75,268.768,313.20539)" d="M12 60C11.999999 60.265214 11.949251 60.520334 11.847757 60.76536 11.7462639 61.01039 11.601748 61.226675 11.414212 61.41421 11.226675 61.601747 11.010393 61.746259 10.765366 61.84775 10.520337 61.94925 10.265216 61.999998 10 62 9.734783 61.999998 9.479661 61.94925 9.2346329 61.847757 8.989604 61.746259 8.773322 61.601747 8.585786 61.41421 8.398249 61.226675 8.253734 61.01039 8.15224 60.76536 8.050746 60.520334 7.9999997 60.265214 8 60 7.9999997 59.73478 8.050746 59.479658 8.15224 59.234628 8.253734 58.989599 8.398249 58.773317 8.585786 58.58578 8.773322 58.398244 8.989604 58.253728 9.2346329 58.152238 9.479661 58.050748 9.734783 58 10 58 10.265216 58 10.520337 58.050748 10.765366 58.152238 11.010393 58.253728 11.226675 58.398244 11.414212 58.58578 11.601748 58.773317 11.7462639 58.989599 11.847757 59.234628 11.949251 59.479658 11.999999 59.73478 12 60Z" fill="#575757"/>
<text fill="#575757" xml:space="preserve" transform="matrix(.75 0 0 .75 268.768 313.20539)" font-size="12.7" font-family="Roboto"><tspan y="63" x="21.578125 32.834566 40.070405 44.363588 50.794069 57.515718 64.67102 67.81192 77.34613 80.42508 84.56958 91.55762 94.69852 101.24051 108.23474 115.352878 122.47101 125.54996 128.6289 135.35056 139.64374 146.18573 149.32663 153.47113 160.70697 163.84787 170.74918 177.39029 184.60135 191.59558 194.67453 198.96772 205.68936 208.83026 213.12345 219.8451 226.38709 233.62293 240.61716 244.91034 251.55146 258.2731 264.8151 267.956 274.8573 281.85774 289.01304 292.15394 299.15437 305.876 312.51713 319.23878 325.78077 332.32276 339.22407 343.51725">Worked with suppliers to acquire resources and necessary</tspan></text>
<text fill="#575757" xml:space="preserve" transform="matrix(.75 0 0 .75 268.768 313.20539)" font-size="12.7" font-family="Roboto"><tspan y="80" x="21.578125 32.698274 39.59958 43.74408 50.46573 54.75891 57.83786 64.73917 67.818119 74.36011 77.50101 81.9057 89.14154 93.43472 96.57562 103.693759 107.98694 115.22278 118.25217 124.973819 131.61493 135.75943">materials for projects</tspan></text>
<path transform="matrix(.75,0,0,.75,268.768,313.20539)" d="M12 94C11.999999 94.26521 11.949251 94.52033 11.847757 94.76536 11.7462639 95.01038 11.601748 95.22667 11.414212 95.41421 11.226675 95.60173 11.010393 95.74625 10.765366 95.84775 10.520337 95.94924 10.265216 95.99999 10 96 9.734783 95.99999 9.479661 95.94924 9.2346329 95.84775 8.989604 95.74625 8.773322 95.60173 8.585786 95.41421 8.398249 95.22667 8.253734 95.01038 8.15224 94.76535 8.050746 94.52033 7.9999997 94.26521 8 94 7.9999997 93.73478 8.050746 93.47966 8.15224 93.23463 8.253734 92.9896 8.398249 92.77332 8.585786 92.585788 8.773322 92.39825 8.989604 92.25372 9.2346329 92.15223 9.479661 92.05074 9.734783 92 10 92 10.265216 92 10.520337 92.05074 10.765366 92.15223 11.010393 92.25372 11.226675 92.39825 11.414212 92.585788 11.601748 92.77332 11.7462639 92.9896 11.847757 93.23462 11.949251 93.47965 11.999999 93.73478 12 94Z" fill="#575757"/>
<text fill="#575757" xml:space="preserve" transform="matrix(.75 0 0 .75 268.768 313.20539)" font-size="12.7" font-family="Roboto"><tspan y="97" x="21.578125 28.789185 35.07718 41.79883 48.43994 55.434175 59.578676 66.30032 73.45563 76.59653 80.74103 87.642337 94.184329 100.61481 107.1568 110.2977 117.29813 124.019779 130.74143 137.89673 144.61838 151.77368 154.91458 159.31928 166.55512 170.8483 173.9892 181.10733 185.40052 192.63636 195.66574 202.38739 209.0285 213.173">Executed tasks needed for projects</tspan></text>
<path transform="matrix(.75,0,0,.75,268.768,313.20539)" d="M12 111C11.999999 111.265209 11.949251 111.520328 11.847757 111.76536 11.7462639 112.01038 11.601748 112.22667 11.414212 112.414218 11.226675 112.601749 11.010393 112.74626 10.765366 112.847759 10.520337 112.94925 10.265216 112.99999 10 113 9.734783 112.99999 9.479661 112.94925 9.2346329 112.847759 8.989604 112.74626 8.773322 112.601749 8.585786 112.414218 8.398249 112.22667 8.253734 112.01038 8.15224 111.76536 8.050746 111.520328 7.9999997 111.265209 8 111 7.9999997 110.73478 8.050746 110.47965 8.15224 110.23463 8.253734 109.98959 8.398249 109.773319 8.585786 109.585788 8.773322 109.39825 8.989604 109.25373 9.2346329 109.15223 9.479661 109.05074 9.734783 109 10 109 10.265216 109 10.520337 109.05074 10.765366 109.15224 11.010393 109.25373 11.226675 109.39825 11.414212 109.585788 11.601748 109.773319 11.7462639 109.98959 11.847757 110.23463 11.949251 110.47965 11.999999 110.73478 12 111Z" fill="#575757"/>
<text fill="#575757" xml:space="preserve" transform="matrix(.75 0 0 .75 268.768 313.20539)" font-size="12.7" font-family="Roboto"><tspan y="114" x="21.578125 32.654909 39.556215 42.635164 49.63559 53.78009 60.681398 63.760347 70.76077 77.48242 84.637729 87.778629 94.67993 97.82083 104.461948 107.54089 114.26254 121.16385 128.16428 131.30518 140.83939 148.07523 152.36841 158.79889 161.93979 168.66144 175.66187 181.80738 184.88632 189.1795 196.41535 203.41577 214.53592 221.25757 228.258">Maintained a clean work environment</tspan></text>
<path transform="matrix(.75,0,0,.75,268.768,313.20539)" d="M12 128C11.999999 128.26522 11.949251 128.52033 11.847757 128.76537 11.7462639 129.01039 11.601748 129.22667 11.414212 129.41422 11.226675 129.60175 11.010393 129.74626 10.765366 129.84775 10.520337 129.94924 10.265216 129.99999 10 130 9.734783 129.99999 9.479661 129.94924 9.2346329 129.84775 8.989604 129.74626 8.773322 129.60175 8.585786 129.41422 8.398249 129.22667 8.253734 129.01039 8.15224 128.76537 8.050746 128.52033 7.9999997 128.26522 8 128 7.9999997 127.73478 8.050746 127.47965 8.15224 127.23462 8.253734 126.98959 8.398249 126.773319 8.585786 126.585788 8.773322 126.39825 8.989604 126.25373 9.2346329 126.15224 9.479661 126.05074 9.734783 126 10 126 10.265216 126 10.520337 126.05074 10.765366 126.15224 11.010393 126.25373 11.226675 126.39825 11.414212 126.585788 11.601748 126.773319 11.7462639 126.98959 11.847757 127.23462 11.949251 127.47965 11.999999 127.73478 12 128Z" fill="#575757"/>
<text fill="#575757" xml:space="preserve" transform="matrix(.75 0 0 .75 268.768 313.20539)" font-size="12.7" font-family="Roboto"><tspan y="131" x="21.578125 29.582154 36.303804 40.596986 45.00168 52.23752 56.5307 67.65085 74.3725 81.5278 84.6687 91.39035 97.678348 104.79648 111.51813 115.81131 118.89026 130.0104 136.73206 143.73249 147.87699 154.41898 157.55988 161.70438 168.94022 172.08112 179.06916 185.7908 188.86975 195.98789 199.12879 205.85044 212.85086 219.39286 226.38709 230.68027 237.40192 240.54282 244.94751 251.94174 256.08625 263.08049 267.37367 274.0953 277.2362 283.87733 291.11317 302.2333 309.35145 316.25276 323.25318">Performed experiments to help ensure future company</tspan></text>
<text fill="#575757" xml:space="preserve" transform="matrix(.75 0 0 .75 268.768 313.20539)" font-size="12.7" font-family="Roboto"><tspan y="148" x="21.578125 28.120118 32.264619 39.165925 46.284059 49.363008 52.441957 55.520906 59.665407 65.66843 68.809329 75.71063 82.71106 89.86636 93.00726 97.41196 100.490909 107.49133 114.64664 117.78754 124.32953 131.56537 138.5596 142.85279 149.4939 156.21555 162.75754 165.89844 173.13428 177.53897 180.67987 187.40152 191.6947 195.98789 203.22373">stability and find sources of error</tspan></text>
<text fill="#575757" xml:space="preserve" transform="matrix(.7105 0 0 .7105 409.73667 282.81706)" font-size="12" font-family="Roboto"><tspan y="12" x="44.453126 51.089128 57.449129 64.18113 68.23713 74.84913 81.37713 85.43313 91.10913 94.08513 100.82913 107.573139 114.31714 121.06114 124.03714 127.34914 130.32514 138.14914 144.76114 151.49314 158.10514 164.29714 168.22113 171.19713 177.94113 184.68514 191.42914">February 2023 - August 2023</tspan></text>
<text fill="#575757" xml:space="preserve" transform="matrix(.62716248 0 0 .62716248 260.1849 161.86745)" font-size="12" font-family="Roboto"><tspan y="12" x="0 6.6360008 9.552001 13.608002 19.800004 23.724003 26.700003 32.376005 38.736005 45.264005 49.320005 52.296007 58.572008 65.41201 75.92401 82.65601 89.26801 93.19202 99.55202 103.60802 106.584018 112.77602 119.05202 121.96802 128.32802 134.95203 141.22803 147.58803 150.56403 161.07602 167.60402 170.47202 177.31201 181.36801 184.34401 193.35602 196.27202 200.19602 206.80802 209.78401 216.14402 222.09601 228.828 235.188 239.244 242.16 248.52 255.14402 261.42 267.78004 270.75605 277.48805 281.54405 288.38404 295.11604 299.17204 305.70005 316.21205 326.72404 329.64 336.264 342.996 345.97203 348.888 355.512 358.488 365.01603 371.74803 378.48 381.396 384.31199 390.58799 397.116 401.04 403.956 410.796 417.41999 423.61198 426.58799 433.42799 440.03999">First year computer science major with experience programming in applications out</tspan></text>
<text fill="#575757" xml:space="preserve" transform="matrix(.62716248 0 0 .62716248 260.1849 161.86745)" font-size="12" font-family="Roboto"><tspan y="28" x="0 6.1920006 9.108001 15.876001 22.236002 25.212002 32.052003 36.216005 39.192007 45.384008 51.660009 58.272008 65.11201 71.95201 74.86801 77.84401 81.76801 88.38001 92.43601 99.27602 105.888019 112.62002 119.23202 122.208019 128.94002 135.46802 139.52402 143.44802 146.36402 152.64002 155.55602 162.28801 168.81601 172.74 175.656 182.496 189.12 192.096 195.012 201.63599 204.61199 211.24799 214.512 221.90399 229.01999 236.18399 239.15999 243.21599 250.05599 256.788 263.628 267.552 270.468 276.744 282.93598 285.912 292.27198 298.08 304.44 311.064 314.988 321.18 324.336 327.312 334.12803 340.08003 346.812 353.172 357.228 360.14399 366.50398 373.12797 379.40397 385.76399 388.74 391.65599 398.27998 401.25599 410.26799 417.10798 421.16398 427.248 430.16398 436.78797">side of school through participation in FIRST robotics events. Experience in working</tspan></text>
<text fill="#575757" xml:space="preserve" transform="matrix(.62716248 0 0 .62716248 260.1849 161.86745)" font-size="12" font-family="Roboto"><tspan y="44" x="0 2.9160002 9.540001 12.516001 16.44 22.800002 29.076 35.688 42.312 45.228 51.504 58.032 60.948 63.924005 68.088008 71.004009 77.364009 80.28001 87.048007 93.240009 96.216 105.228008 108.144008 112.06801 118.68001 121.656009 127.84801 130.764 141.276 144.192 147.108 153.636 157.692 160.668 166.86 170.784 174.84 181.452 187.728 191.652 198.26399 202.31999 208.68 214.872 217.84799 221.77199 228.38399 232.43999 239.27999 245.89199 252.62398 259.236 262.212 268.57203 274.52403 281.256 287.61604 291.67204 294.588 300.948 307.572 313.848 320.208 323.18403 329.71205 335.90403 338.88005 345.40806 348.38407 351.30006 357.82807 364.56007 367.53608 374.0641 380.25608 386.44807 389.36405 395.55604 399.48005 406.00807 412.63206 416.55607 419.53208 422.44807 429.07206 432.04808 438.57609">in technical fields with similar structures through experience as a lab assistant in an</tspan></text>
<text fill="#575757" xml:space="preserve" transform="matrix(.62716248 0 0 .62716248 260.1849 161.86745)" font-size="12" font-family="Roboto"><tspan y="60" x="0 6.3600008 9.276001 15.636002 21.912003 25.836003 29.892003 32.808004 39.084005 45.612005 48.528005 51.504007 57.864007 64.48801 71.22001 74.13601 80.76001 87.12001 93.48001 97.53601 100.45201 107.07601 113.808017 116.78401 119.70001 126.22801 132.96 136.11602 139.09201 149.73601 152.65201 156.576 163.188 166.164 172.692 175.668 178.584 185.424 191.232 197.592 200.568 204.732 211.57199 215.62799 218.60399 225.33599 229.39199 236.23198 242.96398 245.87998 252.23998 262.75199 265.728 271.91999 278.75999 281.67597 287.48399 290.39997 297.02397 303.75596 306.73197 313.25999 319.88398 326.65199 329.628 336.396 342.75599 348.564 354.924 357.84 364.68 371.412 374.32798 380.95198 387.68397 390.65998 396.85197 403.69197 406.60795 413.21995 417.14396 420.05995 426.89994 433.52394">electrical engineering lab. With a love for problem solving and developing solutions</tspan></text>
<text fill="#575757" xml:space="preserve" transform="matrix(.62716248 0 0 .62716248 260.1849 161.86745)" font-size="12" font-family="Roboto"><tspan y="76" x="0 4.164 11.004001 15.060001 18.036002 24.312 31.152 41.664 48.396005 51.312005 54.228006 60.504007 67.032009 70.95601 77.31601 84.08401 87.060009 93.79201 97.84801 104.68801 111.42001 114.33601 120.696018 131.20801 137.40001 140.376 144.3 150.912 154.968 161.808 168.42 175.152 181.76399 184.73999 191.26799 197.892 200.868 207.396 214.01999 220.54799 223.46399 229.13999 233.06398 235.97998 242.25598 248.78398 251.69998 254.67598 261.20399 267.82798 274.59599 277.572 288.08399 294.44398 298.36799 304.97999 311.81999 318.58799 321.50398 327.77998 334.30799 337.22398 340.19999 346.728 353.46 360.192 364.248 371.08799 377.616 383.892 390.504 393.66 396.63603 403.45204 410.07603 416.268 422.88 426.936 429.852 436.47599">for complicated problems through an analytical and methodical approach. Ensuring</tspan></text>
<text fill="#575757" xml:space="preserve" transform="matrix(.62716248 0 0 .62716248 260.1849 161.86745)" font-size="12" font-family="Roboto"><tspan y="92" x="0 3.9240003 10.536 17.064002 20.988 23.964 30.492 37.116 42.792 46.716 53.328 56.244 62.868 69.6 72.576 83.088 89.616 96.383998 102.743999 105.71999 108.635997 114.827999 117.80399 123.995998 130.836 141.34799 147.708 151.63199 158.24399 161.15999 167.784 174.51599 177.49199 184.33199 188.49599 191.47199 198.08399 200.99999 207.73198 214.34398 217.31998 224.13597 230.74797 237.27597 240.19197 243.10797 247.03197 252.70796 255.68396 259.60798 266.44798 269.42399 273.348 279.876 285.96003 292.32 295.29603 302.028 306.084 309 315.768 322.128 325.104 328.02 334.64399">that anything made is something of high quality to take pride in.</tspan></text>
<text fill="#575757" xml:space="preserve" transform="matrix(.70555558 0 0 .70555558 136.9392 53.177778)" font-size="40" font-family="HKGrotesk"><tspan y="40" x="33.3125 69.14453 106.85156 142.8789 178.90625 216.61328 248.8711 266.98829 298.69923 327.1875 359.4453 389.3789 421.63673">CONNOR FLESER</tspan></text>
<text fill="#575757" xml:space="preserve" transform="matrix(.70555558 0 0 .70555558 224.09366 93.87918)" font-size="16" font-family="Roboto"><tspan y="16" x="38.296876 50.10625 63.74375 76.904689 84.06563 97.703128 110.39531 123.087497 130.63906 143.33124 156.07811 169.7156 184.32186">LAB ASSISTANT</tspan></text>
</g>
<g clip-path="url(#clip_9)">
<path transform="matrix(.04754762,0,0,.046499999,225.73941,218.2425)" d="M157.6 0 0 250 157.6 500 315.2 250 157.6 0Z" fill="#575757"/>
</g>
<g clip-path="url(#clip_10)">
<path transform="matrix(.04754762,0,0,.046499999,226.11441,360.06327)" d="M157.6 0 0 250 157.6 500 315.2 250 157.6 0Z" fill="#575757"/>
</g>
<g clip-path="url(#clip_11)">
<path transform="matrix(.04754762,0,0,.046499999,225.36441,604.3869)" d="M157.6 0 0 250 157.6 500 315.2 250 157.6 0Z" fill="#575757"/>
</g>
<g clip-path="url(#clip_12)">
<text fill="#575757" xml:space="preserve" transform="matrix(.75 0 0 .75 269.86247 439.62776)" font-size="15.13" font-family="Roboto" font-weight="bold"><tspan y="15" x="0 9.75592 15.272705 23.448182 31.963379 35.72986 45.6261 54.178224 62.730348">Prep Cook</tspan></text>
<text fill="#575757" xml:space="preserve" transform="matrix(.75 0 0 .75 269.86247 474.37879)" font-size="12.7" font-family="Roboto"><tspan y="12" x="0 7.527008 14.428314 21.428742 28.584046 34.587068 37.727968 45.731996 52.967836 56.046785 63.04721 67.19171 70.33261 78.23132 84.95297 91.85428 98.49539 105.48343 108.62433 117.66913 124.90497 131.8992 138.4412">Sandy Point Beach House</tspan></text>
<path transform="matrix(.75,0,0,.75,271.14723,494.22358)" d="M12 9C11.999999 9.265216 11.949251 9.520338 11.847757 9.765367 11.7462639 10.010394 11.601748 10.226676 11.414212 10.414213 11.226675 10.601749 11.010393 10.746264 10.765366 10.847758 10.520337 10.949252 10.265216 10.999999 10 11 9.734783 10.999999 9.479661 10.949252 9.2346329 10.847758 8.989604 10.746264 8.773322 10.601749 8.585786 10.414213 8.398249 10.226676 8.253734 10.010394 8.15224 9.765367 8.050746 9.520338 7.9999997 9.265216 8 9 7.9999997 8.734783 8.050746 8.479661 8.15224 8.2346329 8.253734 7.989604 8.398249 7.7733218 8.585786 7.585786 8.773322 7.398249 8.989604 7.2537338 9.2346329 7.1522405 9.479661 7.050747 9.734783 7 10 7 10.265216 7 10.520337 7.050747 10.765366 7.1522405 11.010393 7.2537338 11.226675 7.398249 11.414212 7.585786 11.601748 7.7733218 11.7462639 7.989604 11.847757 8.2346329 11.949251 8.479661 11.999999 8.734783 12 9Z" fill="#575757"/>
<text fill="#575757" xml:space="preserve" transform="matrix(.75 0 0 .75 271.14723 494.22358)" font-size="12.7" font-family="Roboto"><tspan y="12" x="21.578125 29.854737 36.49585 43.70691 50.70114 53.78009 60.50174 67.04373 73.684848 80.406497 87.5618 90.7027 97.858 104.75931 107.83826 110.917209 116.92023 120.06113 127.061557 133.7832 140.50485 147.66016">Acquiesced daily needs</tspan></text>
<path transform="matrix(.75,0,0,.75,271.14723,494.22358)" d="M12 26C11.999999 26.265215 11.949251 26.520337 11.847757 26.765364 11.7462639 27.010392 11.601748 27.226675 11.414212 27.414212 11.226675 27.601748 11.010393 27.746262 10.765366 27.847754 10.520337 27.94925 10.265216 27.999999 10 28 9.734783 27.999999 9.479661 27.94925 9.2346329 27.847754 8.989604 27.746262 8.773322 27.601748 8.585786 27.414212 8.398249 27.226675 8.253734 27.010392 8.15224 26.765364 8.050746 26.520337 7.9999997 26.265215 8 26 7.9999997 25.734782 8.050746 25.479659 8.15224 25.23463 8.253734 24.989603 8.398249 24.773322 8.585786 24.585785 8.773322 24.398249 8.989604 24.253733 9.2346329 24.152239 9.479661 24.050747 9.734783 24 10 24 10.265216 24 10.520337 24.050747 10.765366 24.152239 11.010393 24.253733 11.226675 24.398249 11.414212 24.585785 11.601748 24.773322 11.7462639 24.989603 11.847757 25.23463 11.949251 25.479659 11.999999 25.734782 12 26Z" fill="#575757"/>
<text fill="#575757" xml:space="preserve" transform="matrix(.75 0 0 .75 271.14723 494.22358)" font-size="12.7" font-family="Roboto"><tspan y="29" x="21.578125 28.789185 35.78961 42.331605 49.325838 53.61902 60.340669 67.49597 70.63687 77.755008 82.04819 89.28403 96.40216 103.12381 107.41699 110.55789 113.63684 120.63727 126.782779 133.50443 140.50485 144.64936 151.8852 156.17838 159.25733 165.97898 172.52097 175.66187 182.8977 187.3024 190.4433 196.5888 203.49011 207.7833 210.86225 217.5839 224.7392 227.8801 230.95905 235.10355 241.8252 252.94535">Ensured proper inventories of varied items</tspan></text>
<path transform="matrix(.75,0,0,.75,271.14723,494.22358)" d="M12 43C11.999999 43.265214 11.949251 43.520338 11.847757 43.765367 11.7462639 44.010396 11.601748 44.226678 11.414212 44.41421 11.226675 44.601747 11.010393 44.74626 10.765366 44.847757 10.520337 44.949254 10.265216 45 10 45 9.734783 45 9.479661 44.949254 9.2346329 44.84776 8.989604 44.74626 8.773322 44.601747 8.585786 44.41421 8.398249 44.226678 8.253734 44.010396 8.15224 43.765367 8.050746 43.520338 7.9999997 43.265214 8 43 7.9999997 42.734785 8.050746 42.47966 8.15224 42.23463 8.253734 41.9896 8.398249 41.77332 8.585786 41.585786 8.773322 41.398248 8.989604 41.25373 9.2346329 41.152238 9.479661 41.050748 9.734783 41 10 41 10.265216 41 10.520337 41.050748 10.765366 41.152238 11.010393 41.25373 11.226675 41.398248 11.414212 41.585786 11.601748 41.77332 11.7462639 41.9896 11.847757 42.23463 11.949251 42.47966 11.999999 42.734785 12 43Z" fill="#575757"/>
<text fill="#575757" xml:space="preserve" transform="matrix(.75 0 0 .75 271.14723 494.22358)" font-size="12.7" font-family="Roboto"><tspan y="46" x="21.578125 29.836152 34.129335 40.850984 47.75229 51.89679 58.61844 65.77374 68.91464 76.032779 80.32596 87.5618 94.7171 101.711338 108.35245 112.49695 119.03894 122.17984 126.58453 133.82038 138.11356 141.25446 147.89557 154.8898 161.4318 165.5763 172.81214 183.93228 190.65393 194.94712 201.4891 204.63 211.62424 218.16623 221.24518 228.2456 235.36374 238.50464 245.65995 252.38159 256.5261 263.4274 266.50636 269.5853 276.30696 283.46226 286.60316 289.6821 296.68254 303.22453 307.36903 311.6622 318.65644 325.29756 329.44206 332.521 339.75685 346.75727">Created products for customers using detailed instructions</tspan></text>
<path transform="matrix(.75,0,0,.75,271.14723,494.22358)" d="M12 60C11.999999 60.265214 11.949251 60.520334 11.847757 60.76536 11.7462639 61.01039 11.601748 61.226675 11.414212 61.41421 11.226675 61.601747 11.010393 61.746259 10.765366 61.84775 10.520337 61.94925 10.265216 61.999998 10 62 9.734783 61.999998 9.479661 61.94925 9.2346329 61.847757 8.989604 61.746259 8.773322 61.601747 8.585786 61.41421 8.398249 61.226675 8.253734 61.01039 8.15224 60.76536 8.050746 60.520334 7.9999997 60.265214 8 60 7.9999997 59.73478 8.050746 59.479658 8.15224 59.234628 8.253734 58.989599 8.398249 58.773317 8.585786 58.58578 8.773322 58.398244 8.989604 58.253728 9.2346329 58.152238 9.479661 58.050748 9.734783 58 10 58 10.265216 58 10.520337 58.050748 10.765366 58.152238 11.010393 58.253728 11.226675 58.398244 11.414212 58.58578 11.601748 58.773317 11.7462639 58.989599 11.847757 59.234628 11.949251 59.479658 11.999999 59.73478 12 60Z" fill="#575757"/>
<text fill="#575757" xml:space="preserve" transform="matrix(.75 0 0 .75 271.14723 494.22358)" font-size="12.7" font-family="Roboto"><tspan y="63" x="21.578125 25.028779 32.184083 38.90573 45.90616 50.05066 53.12961 57.5343 60.61325 67.3349 74.490207 77.6311 84.27222 91.50806 102.628208 109.74634 116.647647 123.64807 129.6511 132.79199 139.79242 146.51407 153.23572 160.39102 166.93302 170.07392 176.97522 183.97565 191.13095 194.27185 200.81385 207.71515 211.85965 214.9386 221.48059 225.88529 228.96424 235.68589 242.84119 245.98209 250.12659 257.11463 263.83628">Identified company needs and satisfied them</tspan></text>
<text fill="#575757" xml:space="preserve" transform="matrix(.71049669 0 0 .71049669 407.5 457.79576)" font-size="12" font-family="Roboto"><tspan y="12" x="68.84375 75.46775 82.07975 88.70375 95.06375 98.03975 104.78375 111.527759 118.27176 125.01576 127.99176 131.30376 134.27976 144.75576 151.28376 155.33975 161.61576 168.22776 171.20375 177.94776 184.69176 191.43576">June 2022 - March 2023</tspan></text>
<text fill="#575757" xml:space="preserve" transform="matrix(.75 0 0 .75 268.768 560.2289)" font-size="15.13" font-family="Roboto" font-weight="bold"><tspan y="15" x="0 9.829773 13.839966 21.616639 30.08014 41.194948 49.303956 57.080629 65.54413 73.719608">Dishwasher</tspan></text>
<text fill="#575757" xml:space="preserve" transform="matrix(.75 0 0 .75 268.768 582.8914)" font-size="12.7" font-family="Roboto"><tspan y="12" x="0 7.527008 14.428314 21.428742 28.584046 34.587068 37.727968 45.731996 52.967836 56.046785 63.04721 67.19171 70.33261 78.23132 84.95297 91.85428 98.49539 105.48343 108.62433 117.66913 124.90497 131.8992 138.4412">Sandy Point Beach House</tspan></text>
<path transform="matrix(.75,0,0,.75,271.44453,605.7362)" d="M12 9C11.999999 9.265216 11.949251 9.520338 11.847757 9.765367 11.7462639 10.010394 11.601748 10.226676 11.414212 10.414213 11.226675 10.601749 11.010393 10.746264 10.765366 10.847758 10.520337 10.949252 10.265216 10.999999 10 11 9.734783 10.999999 9.479661 10.949252 9.2346329 10.847758 8.989604 10.746264 8.773322 10.601749 8.585786 10.414213 8.398249 10.226676 8.253734 10.010394 8.15224 9.765367 8.050746 9.520338 7.9999997 9.265216 8 9 7.9999997 8.734783 8.050746 8.479661 8.15224 8.2346329 8.253734 7.989604 8.398249 7.7733218 8.585786 7.585786 8.773322 7.398249 8.989604 7.2537338 9.2346329 7.1522405 9.479661 7.050747 9.734783 7 10 7 10.265216 7 10.520337 7.050747 10.765366 7.1522405 11.010393 7.2537338 11.226675 7.398249 11.414212 7.585786 11.601748 7.7733218 11.7462639 7.989604 11.847757 8.2346329 11.949251 8.479661 11.999999 8.734783 12 9Z" fill="#575757"/>
<text fill="#575757" xml:space="preserve" transform="matrix(.75 0 0 .75 271.44453 605.7362)" font-size="12.7" font-family="Roboto"><tspan y="12" x="21.578125 32.654909 39.556215 42.635164 49.63559 53.78009 60.681398 63.760347 70.76077 77.48242 84.637729 87.778629 94.67993 97.82083 104.461948 107.54089 114.26254 121.16385 128.16428 131.30518 140.83939 148.07523 152.36841 158.79889 161.87784 168.87827 175.9964 179.1373 185.85895 192.85938 199.00489 202.08383 206.37702 213.61286 220.61328 231.73343 238.45508 245.4555">Maintained a clean working environment</tspan></text>
<path transform="matrix(.75,0,0,.75,271.44453,605.7362)" d="M12 26C11.999999 26.265215 11.949251 26.520337 11.847757 26.765364 11.7462639 27.010392 11.601748 27.226675 11.414212 27.414212 11.226675 27.601748 11.010393 27.746262 10.765366 27.847754 10.520337 27.94925 10.265216 27.999999 10 28 9.734783 27.999999 9.479661 27.94925 9.2346329 27.847754 8.989604 27.746262 8.773322 27.601748 8.585786 27.414212 8.398249 27.226675 8.253734 27.010392 8.15224 26.765364 8.050746 26.520337 7.9999997 26.265215 8 26 7.9999997 25.734782 8.050746 25.479659 8.15224 25.23463 8.253734 24.989603 8.398249 24.773322 8.585786 24.585785 8.773322 24.398249 8.989604 24.253733 9.2346329 24.152239 9.479661 24.050747 9.734783 24 10 24 10.265216 24 10.520337 24.050747 10.765366 24.152239 11.010393 24.253733 11.226675 24.398249 11.414212 24.585785 11.601748 24.773322 11.7462639 24.989603 11.847757 25.23463 11.949251 25.479659 11.999999 25.734782 12 26Z" fill="#575757"/>
<text fill="#575757" xml:space="preserve" transform="matrix(.75 0 0 .75 271.44453 605.7362)" font-size="12.7" font-family="Roboto"><tspan y="29" x="21.578125 28.789185 35.78961 42.331605 49.325838 53.61902 60.340669 67.49597 70.63687 77.277988 84.27222 90.81421 94.95871 102.19455 113.3147 120.03635 124.32953 127.47043 134.01242 140.91373 145.05823 148.13718 154.67917 159.08386 165.98517 172.62628 176.77079 179.84973 187.08557 194.086 197.2269 200.30585 207.30628 210.44718 214.74036 221.462 224.54096 231.44226 235.58676 238.66571 245.90155 252.90198 256.04289 260.18739 267.42323 270.56413 277.71943 280.79838 287.34037 294.3284 303.8626 310.76393 315.0571">Ensured customer satisfaction in relation to dishware</tspan></text>
<path transform="matrix(.75,0,0,.75,271.44453,605.7362)" d="M12 43C11.999999 43.265214 11.949251 43.520338 11.847757 43.765367 11.7462639 44.010396 11.601748 44.226678 11.414212 44.41421 11.226675 44.601747 11.010393 44.74626 10.765366 44.847757 10.520337 44.949254 10.265216 45 10 45 9.734783 45 9.479661 44.949254 9.2346329 44.84776 8.989604 44.74626 8.773322 44.601747 8.585786 44.41421 8.398249 44.226678 8.253734 44.010396 8.15224 43.765367 8.050746 43.520338 7.9999997 43.265214 8 43 7.9999997 42.734785 8.050746 42.47966 8.15224 42.23463 8.253734 41.9896 8.398249 41.77332 8.585786 41.585786 8.773322 41.398248 8.989604 41.25373 9.2346329 41.152238 9.479661 41.050748 9.734783 41 10 41 10.265216 41 10.520337 41.050748 10.765366 41.152238 11.010393 41.25373 11.226675 41.398248 11.414212 41.585786 11.601748 41.77332 11.7462639 41.9896 11.847757 42.23463 11.949251 42.47966 11.999999 42.734785 12 43Z" fill="#575757"/>
<text fill="#575757" xml:space="preserve" transform="matrix(.75 0 0 .75 271.44453 605.7362)" font-size="12.7" font-family="Roboto"><tspan y="46" x="21.578125 25.028779 32.184083 38.90573 45.90616 50.05066 53.12961 57.5343 63.537324 66.67822 73.79636 78.08954 85.32538 92.44351 99.16516 103.45834 106.59924 117.71939 124.44104 128.58554 135.57358 142.80942 149.96472 156.50672 159.64762 166.88346 171.28815 174.42905 181.07016 184.14911 190.87076 197.77207 204.77249 207.85144 214.85187 221.97 225.1109 228.18985 235.19028 238.33118 245.48648 248.56543 252.97013 257.37483 264.09648 268.38966 275.1113 282.11174 286.25624 289.39714 296.03825 299.1172 303.41038 310.05149 317.04573 328.16587 334.70787 338.85237 345.75367 352.7541 359.3952 366.11686">Identify proper methods of cleaning in different circumstances</tspan></text>
<text fill="#575757" xml:space="preserve" transform="matrix(.71049669 0 0 .71049669 407.5 575.94546)" font-size="12" font-family="Roboto"><tspan y="12" x="77.15625 87.63225 94.16025 99.83625 102.81225 109.55625 116.300258 123.04426 129.78826 132.76425 136.07625 139.05225 145.67624 152.28824 158.91223 165.27223 168.24823 174.99224 181.73624 188.48024">May 2021 - June 2023</tspan></text>
<text fill="#575757" xml:space="preserve" transform="matrix(.71049669 0 0 .71049669 407.5 575.94546)" font-size="12" font-family="Roboto"><tspan y="12" x="195.14063"> </tspan></text>
<text fill="#575757" xml:space="preserve" transform="matrix(.70555558 0 0 .70555558 73.76698 379.26258)" font-size="16" font-family="HKGrotesk"><tspan y="15" x="0 13.535937 27.86875 40.50625 48.385938 62 69.879688 82.51718 90.396869 103.29999">ACTIVITIES</tspan></text>
<text fill="#575757" xml:space="preserve" transform="matrix(.62716248 0 0 .62716248 73.69951 395.90333)" font-size="12" font-family="Roboto"><tspan y="12" x="0 6.6360008 9.552001 13.608002 19.800004 23.724003 26.700003 34.092004 40.932004 47.664 54.504 58.428 61.344 67.62">First Robotics</tspan></text>
<path transform="matrix(.62716248,0,0,.62716248,74.01218,406.07823)" d="M10 9C9.999999 9.265216 9.949252 9.520338 9.847757 9.765367 9.7462639 10.010394 9.601748 10.226676 9.414213 10.414213 9.226676 10.601749 9.010394 10.746264 8.765367 10.847758 8.520338 10.949252 8.265216 10.999999 8 11 7.734783 10.999999 7.4796607 10.949252 7.234632 10.847758 6.989604 10.746264 6.7733218 10.601749 6.585786 10.414213 6.398249 10.226676 6.253734 10.010394 6.1522405 9.765367 6.050746 9.520338 5.9999997 9.265216 6 9 5.9999997 8.734783 6.050746 8.479661 6.1522405 8.2346329 6.253734 7.989604 6.398249 7.7733218 6.585786 7.585786 6.7733218 7.398249 6.989604 7.2537338 7.234632 7.1522405 7.4796607 7.050747 7.734783 7 8 7 8.265216 7 8.520338 7.050747 8.765367 7.1522405 9.010394 7.2537338 9.226676 7.398249 9.414213 7.585786 9.601748 7.7733218 9.7462639 7.989604 9.847757 8.2346329 9.949252 8.479661 9.999999 8.734783 10 9Z" fill="#575757"/>
<text fill="#575757" xml:space="preserve" transform="matrix(.62716248 0 0 .62716248 74.01218 406.07823)" font-size="12" font-family="Roboto"><tspan y="12" x="20.390625 27.554625 33.914628 40.442628 50.954629 53.93063 61.74263 68.27063 75.00263 78.926639 85.454639 88.370639">Team Captain</tspan></text>
<path transform="matrix(.62716248,0,0,.62716248,74.01218,406.07823)" d="M10 25C9.999999 25.265215 9.949252 25.520335 9.847757 25.765362 9.7462639 26.010392 9.601748 26.226675 9.414213 26.414212 9.226676 26.601746 9.010394 26.74626 8.765367 26.847754 8.520338 26.94925 8.265216 26.999999 8 27 7.734783 26.999999 7.4796607 26.94925 7.234632 26.847754 6.989604 26.74626 6.7733218 26.601746 6.585786 26.414212 6.398249 26.226675 6.253734 26.010392 6.1522405 25.765362 6.050746 25.520335 5.9999997 25.265215 6 25 5.9999997 24.734784 6.050746 24.47966 6.1522405 24.23463 6.253734 23.989603 6.398249 23.773324 6.585786 23.585787 6.7733218 23.398249 6.989604 23.253733 7.234632 23.152239 7.4796607 23.050747 7.734783 23 8 23 8.265216 23 8.520338 23.050747 8.765367 23.152239 9.010394 23.253733 9.226676 23.398249 9.414213 23.585787 9.601748 23.773324 9.7462639 23.989603 9.847757 24.23463 9.949252 24.47966 9.999999 24.734784 10 25Z" fill="#575757"/>
<text fill="#575757" xml:space="preserve" transform="matrix(.62716248 0 0 .62716248 74.01218 406.07823)" font-size="12" font-family="Roboto"><tspan y="28" x="20.390625 26.846627 33.206628 39.734628 46.50263 49.47863 57.05063 61.10663 67.94663 74.678638 78.734638 85.262638 95.774639 106.28664 112.64664">Lead Programmer</tspan></text>
<path transform="matrix(.62716248,0,0,.62716248,74.01218,406.07823)" d="M10 41C9.999999 41.265214 9.949252 41.520334 9.847757 41.76536 9.7462639 42.01039 9.601748 42.226675 9.414213 42.41421 9.226676 42.601747 9.010394 42.74626 8.765367 42.847757 8.520338 42.94925 8.265216 42.999998 8 43 7.734783 42.999998 7.4796607 42.94925 7.234632 42.847757 6.989604 42.74626 6.7733218 42.601747 6.585786 42.41421 6.398249 42.226675 6.253734 42.01039 6.1522405 41.76536 6.050746 41.520334 5.9999997 41.265214 6 41 5.9999997 40.734785 6.050746 40.47966 6.1522405 40.23463 6.253734 39.9896 6.398249 39.77332 6.585786 39.585786 6.7733218 39.398248 6.989604 39.25373 7.234632 39.152238 7.4796607 39.050748 7.734783 39 8 39 8.265216 39 8.520338 39.050748 8.765367 39.152238 9.010394 39.25373 9.226676 39.398248 9.414213 39.585786 9.601748 39.77332 9.7462639 39.9896 9.847757 40.23463 9.949252 40.47966 9.999999 40.734785 10 41Z" fill="#575757"/>
<text fill="#575757" xml:space="preserve" transform="matrix(.62716248 0 0 .62716248 74.01218 406.07823)" font-size="12" font-family="Roboto"><tspan y="44" x="20.390625 26.846627 33.206628 39.734628 46.50263 49.47863 56.59463 62.870634 69.71063 76.32263 80.246639 86.606639">Lead Scouter</tspan></text>
<path transform="matrix(.62716248,0,0,.62716248,74.01218,406.07823)" d="M10 57C9.999999 57.265214 9.949252 57.520334 9.847757 57.76536 9.7462639 58.01039 9.601748 58.226675 9.414213 58.41421 9.226676 58.601747 9.010394 58.746259 8.765367 58.84775 8.520338 58.94925 8.265216 58.999998 8 59 7.734783 58.999998 7.4796607 58.94925 7.234632 58.847757 6.989604 58.746259 6.7733218 58.601747 6.585786 58.41421 6.398249 58.226675 6.253734 58.01039 6.1522405 57.76536 6.050746 57.520334 5.9999997 57.265214 6 57 5.9999997 56.73478 6.050746 56.479658 6.1522405 56.234628 6.253734 55.989599 6.398249 55.773317 6.585786 55.58578 6.7733218 55.398244 6.989604 55.253728 7.234632 55.152238 7.4796607 55.050748 7.734783 55 8 55 8.265216 55 8.520338 55.050748 8.765367 55.152238 9.010394 55.253728 9.226676 55.398244 9.414213 55.58578 9.601748 55.773317 9.7462639 55.989595 9.847757 56.234624 9.949252 56.479654 9.999999 56.73478 10 57Z" fill="#575757"/>
<text fill="#575757" xml:space="preserve" transform="matrix(.62716248 0 0 .62716248 74.01218 406.07823)" font-size="12" font-family="Roboto"><tspan y="60" x="20.390625 27.026627 29.942627 36.302629 39.218629 45.98663 48.96263 56.354635 62.714635 69.44663 73.50263 79.86263 86.054637 92.414638 99.038639 102.96264 109.49064 113.41464 116.33064 122.13864">Field Representative</tspan></text>
<text fill="#575757" xml:space="preserve" transform="matrix(.62716248 0 0 .62716248 73.38712 449.9614)" font-size="12" font-family="Roboto"><tspan y="12" x="0 8.172001 12.228001 18.588002 24.948002 31.572003 34.548006 42.360006 45.276006 51.888006">Green Club</tspan></text>
<path transform="matrix(.62716248,0,0,.62716248,74.29621,462.2408)" d="M10 9C9.999999 9.265216 9.949252 9.520338 9.847757 9.765367 9.7462639 10.010394 9.601748 10.226676 9.414213 10.414213 9.226676 10.601749 9.010394 10.746264 8.765367 10.847758 8.520338 10.949252 8.265216 10.999999 8 11 7.734783 10.999999 7.4796607 10.949252 7.234632 10.847758 6.989604 10.746264 6.7733218 10.601749 6.585786 10.414213 6.398249 10.226676 6.253734 10.010394 6.1522405 9.765367 6.050746 9.520338 5.9999997 9.265216 6 9 5.9999997 8.734783 6.050746 8.479661 6.1522405 8.2346329 6.253734 7.989604 6.398249 7.7733218 6.585786 7.585786 6.7733218 7.398249 6.989604 7.2537338 7.234632 7.1522405 7.4796607 7.050747 7.734783 7 8 7 8.265216 7 8.520338 7.050747 8.765367 7.1522405 9.010394 7.2537338 9.226676 7.398249 9.414213 7.585786 9.601748 7.7733218 9.7462639 7.989604 9.847757 8.2346329 9.949252 8.479661 9.999999 8.734783 10 9Z" fill="#575757"/>
<text fill="#575757" xml:space="preserve" transform="matrix(.62716248 0 0 .62716248 74.29621 462.2408)" font-size="12" font-family="Roboto"><tspan y="12" x="20.390625 28.022625 34.862627 37.778627 44.390626 51.014627 54.938627 61.298627 67.65863">Volunteer</tspan></text>
<path transform="matrix(.62716248,0,0,.62716248,74.29621,462.2408)" d="M10 25C9.999999 25.265215 9.949252 25.520335 9.847757 25.765362 9.7462639 26.010392 9.601748 26.226675 9.414213 26.414212 9.226676 26.601746 9.010394 26.74626 8.765367 26.847754 8.520338 26.94925 8.265216 26.999999 8 27 7.734783 26.999999 7.4796607 26.94925 7.234632 26.847754 6.989604 26.74626 6.7733218 26.601746 6.585786 26.414212 6.398249 26.226675 6.253734 26.010392 6.1522405 25.765362 6.050746 25.520335 5.9999997 25.265215 6 25 5.9999997 24.734784 6.050746 24.47966 6.1522405 24.23463 6.253734 23.989603 6.398249 23.773324 6.585786 23.585787 6.7733218 23.398249 6.989604 23.253733 7.234632 23.152239 7.4796607 23.050747 7.734783 23 8 23 8.265216 23 8.520338 23.050747 8.765367 23.152239 9.010394 23.253733 9.226676 23.398249 9.414213 23.585787 9.601748 23.773324 9.7462639 23.989603 9.847757 24.23463 9.949252 24.47966 9.999999 24.734784 10 25Z" fill="#575757"/>
<text fill="#575757" xml:space="preserve" transform="matrix(.62716248 0 0 .62716248 74.29621 462.2408)" font-size="12" font-family="Roboto"><tspan y="28" x="20.390625 28.202626 31.118626 37.478628 44.006628 50.630628 57.242628 63.974626 66.95062 74.52262 77.43862 83.96662 90.59062 97.21462 103.57462">Cleanup Planner</tspan></text>
<text fill="#575757" xml:space="preserve" transform="matrix(.62716248 0 0 .62716248 73.00728 643.3095)" font-size="12" font-family="Roboto" font-weight="bold"><tspan y="12" x="0 6.708 13.488 20.208 26.928002 29.916003 36.624 43.404 49.572 56.064 62.82 69.54 75.708 82.488">John Josephson</tspan></text>
<text fill="#575757" xml:space="preserve" transform="matrix(.62716248 0 0 .62716248 73.00728 643.3095)" font-size="12" font-family="Roboto"><tspan y="28" x="0 2.976 5.952">   </tspan></text>
<text fill="#575757" xml:space="preserve" transform="matrix(.62716248 0 0 .62716248 73.00728 643.3095)" font-size="12" font-family="Roboto"><tspan y="28" x="8.90625 16.022252 22.862252 29.138253 32.054254 38.582254 41.498254 44.474256 51.590257 55.514257 62.126256 68.89426 71.81026 78.17026 84.36226 87.33826 94.50226 100.86226 107.39026 113.66626 120.27826 126.63826">Social Studies Teacher</tspan></text>
<text fill="#575757" xml:space="preserve" transform="matrix(.62716248 0 0 .62716248 73.00728 643.3095)" font-size="12" font-family="Roboto"><tspan y="44" x="0 2.976 5.952">   </tspan></text>
<text fill="#575757" xml:space="preserve" transform="matrix(.62716248 0 0 .62716248 73.00728 643.3095)" font-size="12" font-family="Roboto"><tspan y="44" x="8.90625 15.65025 22.39425 29.138253 32.450254 39.194253 45.93825 52.68225 55.99425 62.73825 69.482257 76.22626">231-557-7589</tspan></text>
<text fill="#575757" xml:space="preserve" transform="matrix(.62716248 0 0 .62716248 73.00728 643.3095)" font-size="12" font-family="Roboto"><tspan y="60" x="0 2.976 5.952">   </tspan></text>
<text fill="#575757" xml:space="preserve" transform="matrix(.62716248 0 0 .62716248 73.00728 643.3095)" font-size="12" font-family="Roboto"><tspan y="60" x="8.90625 11.77425 18.61425 24.806252 31.166253 37.898256 44.510255 50.702257 57.542257 64.16626 67.034259 77.81026 84.54226 91.15426 97.68226 104.41426 110.60626 113.76226 120.602268 124.658267">josephsonj@ghaps.org</tspan></text>
<text fill="#575757" xml:space="preserve" transform="matrix(.62716248 0 0 .62716248 73.63232 688.6927)" font-size="12" font-family="Roboto" font-weight="bold"><tspan y="12" x="0 7.656 12.036 18.468 25.224 28.212002 36.06 39.24 45.672 50.052003">Brad Clark</tspan></text>
<text fill="#575757" xml:space="preserve" transform="matrix(.62716248 0 0 .62716248 73.63232 688.6927)" font-size="12" font-family="Roboto"><tspan y="28" x="0 2.976 5.952">   </tspan></text>
<text fill="#575757" xml:space="preserve" transform="matrix(.62716248 0 0 .62716248 73.63232 688.6927)" font-size="12" font-family="Roboto"><tspan y="28" x="8.90625 12.17025 19.33425 22.31025 29.474249 35.83425 42.36225 52.874254 55.850255 58.766256 65.12625 71.65425">IT Team lead</tspan></text>
<text fill="#575757" xml:space="preserve" transform="matrix(.62716248 0 0 .62716248 73.63232 688.6927)" font-size="12" font-family="Roboto"><tspan y="44" x="0 2.976 5.952">   </tspan></text>
<text fill="#575757" xml:space="preserve" transform="matrix(.62716248 0 0 .62716248 73.63232 688.6927)" font-size="12" font-family="Roboto"><tspan y="44" x="8.90625 15.65025 22.39425 29.138253 32.450254 39.194253 45.93825 52.68225 55.99425 62.73825 69.482257 76.22626">616-843-1554</tspan></text>
<text fill="#575757" xml:space="preserve" transform="matrix(.62716248 0 0 .62716248 73.63232 688.6927)" font-size="12" font-family="Roboto"><tspan y="60" x="0 2.976 5.952">   </tspan></text>
<text fill="#575757" xml:space="preserve" transform="matrix(.62716248 0 0 .62716248 73.63232 688.6927)" font-size="12" font-family="Roboto"><tspan y="60" x="8.90625 15.63825 21.91425 24.83025 31.35825 35.41425 41.49825 48.24225 54.986249 61.730249 72.50625 79.23825 89.75025 96.27825 99.19425 102.11025 105.26625 111.54225 118.382259">bclark930@gmail.com</tspan></text>
<text fill="#575757" xml:space="preserve" transform="matrix(.70555558 0 0 .70555558 75.371479 626.6688)" font-size="16" font-family="HKGrotesk" font-weight="bold"><tspan y="15" x="0 12.989062 25.9 38.654687 51.565626 64.55469 77.46562 91.93906 106.2953 119.20624">REFERENCES</tspan></text>
<path transform="matrix(-.7493495,-.000000000000000091768849,.000000000000000091848517,-.75,211.16619,616.4651)" d="M0 0H3V1H0M4 0H7V1H4M8 0H11V1H8M12 0H15V1H12M16 0H19V1H16M20 0H23V1H20M24 0H27V1H24M28 0H31V1H28M32 0H35V1H32M36 0H39V1H36M40 0H43V1H40M44 0H47V1H44M48 0H51V1H48M52 0H55V1H52M56 0H59V1H56M60 0H63V1H60M64 0H67V1H64M68 0H71V1H68M72 0H75V1H72M76 0H79V1H76M80 0H83V1H80M84 0H87V1H84M88 0H91V1H88M92 0H95V1H92M96 0H99V1H96M100 0H103V1H100M104 0H107V1H104M108 0H111V1H108M112 0H115V1H112M116 0H119V1H116M120 0H123V1H120M124 0H127V1H124M128 0H131V1H128M132 0H135V1H132M136 0H139V1H136M140 0H143V1H140M144 0H147V1H144M148 0H151V1H148M152 0H155V1H152M156 0H159V1H156M160 0H163V1H160M164 0H167V1H164M168 0H171V1H168M172 0H175V1H172M176 0H179V1H176M180 0H180.16214V1H180" fill="#575757"/>
<text fill="#575757" xml:space="preserve" transform="matrix(.62716248 0 0 .62716248 73.69951 483.80485)" font-size="12" font-family="Roboto"><tspan y="12" x="0 3.2640002 9.8880009 13.812 20.172 24.228 30.756 37.032 40.956 43.932004 51.744005 54.660005 61.272005">Interact Club</tspan></text>
<path transform="matrix(.62716248,0,0,.62716248,74.01218,495.19419)" d="M10 9C9.999999 9.265216 9.949252 9.520338 9.847757 9.765367 9.7462639 10.010394 9.601748 10.226676 9.414213 10.414213 9.226676 10.601749 9.010394 10.746264 8.765367 10.847758 8.520338 10.949252 8.265216 10.999999 8 11 7.734783 10.999999 7.4796607 10.949252 7.234632 10.847758 6.989604 10.746264 6.7733218 10.601749 6.585786 10.414213 6.398249 10.226676 6.253734 10.010394 6.1522405 9.765367 6.050746 9.520338 5.9999997 9.265216 6 9 5.9999997 8.734783 6.050746 8.479661 6.1522405 8.2346329 6.253734 7.989604 6.398249 7.7733218 6.585786 7.585786 6.7733218 7.398249 6.989604 7.2537338 7.234632 7.1522405 7.4796607 7.050747 7.734783 7 8 7 8.265216 7 8.520338 7.050747 8.765367 7.1522405 9.010394 7.2537338 9.226676 7.398249 9.414213 7.585786 9.601748 7.7733218 9.7462639 7.989604 9.847757 8.2346329 9.949252 8.479661 9.999999 8.734783 10 9Z" fill="#575757"/>
<text fill="#575757" xml:space="preserve" transform="matrix(.62716248 0 0 .62716248 74.01218 495.19419)" font-size="12" font-family="Roboto"><tspan y="12" x="20.390625 28.022625 34.862627 37.778627 44.390626 51.014627 54.938627 61.298627 67.65863">Volunteer</tspan></text>
<path transform="matrix(.62716248,0,0,.62716248,74.01218,495.19419)" d="M10 25C9.999999 25.265215 9.949252 25.520335 9.847757 25.765362 9.7462639 26.010392 9.601748 26.226675 9.414213 26.414212 9.226676 26.601746 9.010394 26.74626 8.765367 26.847754 8.520338 26.94925 8.265216 26.999999 8 27 7.734783 26.999999 7.4796607 26.94925 7.234632 26.847754 6.989604 26.74626 6.7733218 26.601746 6.585786 26.414212 6.398249 26.226675 6.253734 26.010392 6.1522405 25.765362 6.050746 25.520335 5.9999997 25.265215 6 25 5.9999997 24.734784 6.050746 24.47966 6.1522405 24.23463 6.253734 23.989603 6.398249 23.773324 6.585786 23.585787 6.7733218 23.398249 6.989604 23.253733 7.234632 23.152239 7.4796607 23.050747 7.734783 23 8 23 8.265216 23 8.520338 23.050747 8.765367 23.152239 9.010394 23.253733 9.226676 23.398249 9.414213 23.585787 9.601748 23.773324 9.7462639 23.989603 9.847757 24.23463 9.949252 24.47966 9.999999 24.734784 10 25Z" fill="#575757"/>
<text fill="#575757" xml:space="preserve" transform="matrix(.62716248 0 0 .62716248 74.01218 495.19419)" font-size="12" font-family="Roboto"><tspan y="28" x="20.390625 30.866625 37.226625 47.738626 54.470628 60.830629">Member</tspan></text>
<text fill="#575757" xml:space="preserve" transform="matrix(.62716248 0 0 .62716248 73.543178 517.5082)" font-size="12" font-family="Roboto"><tspan y="12" x="0 7.8120005 10.728001 17.256 23.448002 29.640004 36.000005">Classes</tspan></text>
<path transform="matrix(.62716248,0,0,.62716248,73.855838,528.8976)" d="M10 9C9.999999 9.265216 9.949252 9.520338 9.847757 9.765367 9.7462639 10.010394 9.601748 10.226676 9.414213 10.414213 9.226676 10.601749 9.010394 10.746264 8.765367 10.847758 8.520338 10.949252 8.265216 10.999999 8 11 7.734783 10.999999 7.4796607 10.949252 7.234632 10.847758 6.989604 10.746264 6.7733218 10.601749 6.585786 10.414213 6.398249 10.226676 6.253734 10.010394 6.1522405 9.765367 6.050746 9.520338 5.9999997 9.265216 6 9 5.9999997 8.734783 6.050746 8.479661 6.1522405 8.2346329 6.253734 7.989604 6.398249 7.7733218 6.585786 7.585786 6.7733218 7.398249 6.989604 7.2537338 7.234632 7.1522405 7.4796607 7.050747 7.734783 7 8 7 8.265216 7 8.520338 7.050747 8.765367 7.1522405 9.010394 7.2537338 9.226676 7.398249 9.414213 7.585786 9.601748 7.7733218 9.7462639 7.989604 9.847757 8.2346329 9.949252 8.479661 9.999999 8.734783 10 9Z" fill="#575757"/>
<text fill="#575757" xml:space="preserve" transform="matrix(.62716248 0 0 .62716248 73.855838 528.8976)" font-size="12" font-family="Roboto"><tspan y="12" x="20.390625 28.262625 34.622629 40.81463 43.73063 50.46263 57.08663 60.062635 66.59064 73.21464 79.982639 82.95863 93.43463 99.96263 106.58663 113.19863 117.36263 123.89063 130.16663 134.09062 140.70262 144.75862 147.67462 154.29862">Design and Manufacturing</tspan></text>
<path transform="matrix(.62716248,0,0,.62716248,73.855838,528.8976)" d="M10 25C9.999999 25.265215 9.949252 25.520335 9.847757 25.765362 9.7462639 26.010392 9.601748 26.226675 9.414213 26.414212 9.226676 26.601746 9.010394 26.74626 8.765367 26.847754 8.520338 26.94925 8.265216 26.999999 8 27 7.734783 26.999999 7.4796607 26.94925 7.234632 26.847754 6.989604 26.74626 6.7733218 26.601746 6.585786 26.414212 6.398249 26.226675 6.253734 26.010392 6.1522405 25.765362 6.050746 25.520335 5.9999997 25.265215 6 25 5.9999997 24.734784 6.050746 24.47966 6.1522405 24.23463 6.253734 23.989603 6.398249 23.773324 6.585786 23.585787 6.7733218 23.398249 6.989604 23.253733 7.234632 23.152239 7.4796607 23.050747 7.734783 23 8 23 8.265216 23 8.520338 23.050747 8.765367 23.152239 9.010394 23.253733 9.226676 23.398249 9.414213 23.585787 9.601748 23.773324 9.7462639 23.989603 9.847757 24.23463 9.949252 24.47966 9.999999 24.734784 10 25Z" fill="#575757"/>
<text fill="#575757" xml:space="preserve" transform="matrix(.62716248 0 0 .62716248 73.855838 528.8976)" font-size="12" font-family="Roboto"><tspan y="28" x="20.390625 23.654625 31.466626 38.858629 45.67463 53.49863 60.662633">ICREATE</tspan></text>
<text fill="#575757" xml:space="preserve" transform="matrix(.62716248 0 0 .62716248 73.855838 528.8976)" font-size="12" font-family="Roboto"><tspan y="28" x="67.46875"> </tspan></text>
<path transform="matrix(.62716248,0,0,.62716248,73.855838,528.8976)" d="M10 41C9.999999 41.265214 9.949252 41.520334 9.847757 41.76536 9.7462639 42.01039 9.601748 42.226675 9.414213 42.41421 9.226676 42.601747 9.010394 42.74626 8.765367 42.847757 8.520338 42.94925 8.265216 42.999998 8 43 7.734783 42.999998 7.4796607 42.94925 7.234632 42.847757 6.989604 42.74626 6.7733218 42.601747 6.585786 42.41421 6.398249 42.226675 6.253734 42.01039 6.1522405 41.76536 6.050746 41.520334 5.9999997 41.265214 6 41 5.9999997 40.734785 6.050746 40.47966 6.1522405 40.23463 6.253734 39.9896 6.398249 39.77332 6.585786 39.585786 6.7733218 39.398248 6.989604 39.25373 7.234632 39.152238 7.4796607 39.050748 7.734783 39 8 39 8.265216 39 8.520338 39.050748 8.765367 39.152238 9.010394 39.25373 9.226676 39.398248 9.414213 39.585786 9.601748 39.77332 9.7462639 39.9896 9.847757 40.23463 9.949252 40.47966 9.999999 40.734785 10 41Z" fill="#575757"/>
<text fill="#575757" xml:space="preserve" transform="matrix(.62716248 0 0 .62716248 73.855838 528.8976)" font-size="12" font-family="Roboto"><tspan y="44" x="20.390625 27.506627 31.430626 37.958627 41.882627 44.798627 50.990629 54.914628 57.830629 64.10663">Statistics</tspan></text>
<path transform="matrix(.62716248,0,0,.62716248,73.855838,528.8976)" d="M10 57C9.999999 57.265214 9.949252 57.520334 9.847757 57.76536 9.7462639 58.01039 9.601748 58.226675 9.414213 58.41421 9.226676 58.601747 9.010394 58.746259 8.765367 58.84775 8.520338 58.94925 8.265216 58.999998 8 59 7.734783 58.999998 7.4796607 58.94925 7.234632 58.847757 6.989604 58.746259 6.7733218 58.601747 6.585786 58.41421 6.398249 58.226675 6.253734 58.01039 6.1522405 57.76536 6.050746 57.520334 5.9999997 57.265214 6 57 5.9999997 56.73478 6.050746 56.479658 6.1522405 56.234628 6.253734 55.989599 6.398249 55.773317 6.585786 55.58578 6.7733218 55.398244 6.989604 55.253728 7.234632 55.152238 7.4796607 55.050748 7.734783 55 8 55 8.265216 55 8.520338 55.050748 8.765367 55.152238 9.010394 55.253728 9.226676 55.398244 9.414213 55.58578 9.601748 55.773317 9.7462639 55.989595 9.847757 56.234624 9.949252 56.479654 9.999999 56.73478 10 57Z" fill="#575757"/>
<text fill="#575757" xml:space="preserve" transform="matrix(.62716248 0 0 .62716248 73.855838 528.8976)" font-size="12" font-family="Roboto"><tspan y="60" x="20.390625 28.202626 34.730627 37.646627 43.922628 50.534627 53.450628 60.062627">Calculus</tspan></text>
<path transform="matrix(.62716248,0,0,.62716248,73.855838,528.8976)" d="M10 73C9.999999 73.26521 9.949252 73.52033 9.847757 73.76536 9.7462639 74.01038 9.601748 74.22667 9.414213 74.41421 9.226676 74.601749 9.010394 74.746257 8.765367 74.84775 8.520338 74.94924 8.265216 74.99999 8 75 7.734783 74.99999 7.4796607 74.94924 7.234632 74.84775 6.989604 74.746257 6.7733218 74.601749 6.585786 74.41421 6.398249 74.22667 6.253734 74.01038 6.1522405 73.76536 6.050746 73.52033 5.9999997 73.26521 6 73 5.9999997 72.73478 6.050746 72.47966 6.1522405 72.23463 6.253734 71.9896 6.398249 71.77332 6.585786 71.585788 6.7733218 71.39825 6.989604 71.25373 7.234632 71.15223 7.4796607 71.05074 7.734783 71 8 71 8.265216 71 8.520338 71.05074 8.765367 71.15223 9.010394 71.25373 9.226676 71.39825 9.414213 71.585788 9.601748 71.77332 9.7462639 71.9896 9.847757 72.23463 9.949252 72.47966 9.999999 72.73478 10 73Z" fill="#575757"/>
<text fill="#575757" xml:space="preserve" transform="matrix(.62716248 0 0 .62716248 73.855838 528.8976)" font-size="12" font-family="Roboto"><tspan y="76" x="20.390625 28.202626 35.042627 45.554628 52.28663 58.89863 62.822629 69.18263 73.23863 76.21463 83.33063 89.60663 92.52263 98.88263 105.50663 111.78263 118.14263 121.11863 128.94263 131.91863 138.54264 145.07064 150.87863">Computer Science A Java</tspan></text>
<path transform="matrix(.62716248,0,0,.62716248,73.855838,528.8976)" d="M10 89C9.999999 89.265209 9.949252 89.520328 9.847757 89.76535 9.7462639 90.01038 9.601748 90.22667 9.414213 90.41421 9.226676 90.60174 9.010394 90.746257 8.765367 90.84775 8.520338 90.94924 8.265216 90.99999 8 91 7.734783 90.99999 7.4796607 90.94924 7.234632 90.84775 6.989604 90.746257 6.7733218 90.60174 6.585786 90.41421 6.398249 90.22667 6.253734 90.01038 6.1522405 89.76535 6.050746 89.520328 5.9999997 89.265209 6 89 5.9999997 88.73478 6.050746 88.47965 6.1522405 88.23462 6.253734 87.989589 6.398249 87.77331 6.585786 87.58578 6.7733218 87.39824 6.989604 87.25372 7.234632 87.15223 7.4796607 87.05074 7.734783 87 8 87 8.265216 87 8.520338 87.05074 8.765367 87.15223 9.010394 87.25372 9.226676 87.39824 9.414213 87.58578 9.601748 87.77331 9.7462639 87.989589 9.847757 88.23462 9.949252 88.47965 9.999999 88.73478 10 89Z" fill="#575757"/>
<text fill="#575757" xml:space="preserve" transform="matrix(.62716248 0 0 .62716248 73.855838 528.8976)" font-size="12" font-family="Roboto"><tspan y="92" x="20.390625 27.962626 34.574628 40.250627 46.442628 49.358629 55.63463 61.82663 64.80263 72.614627 75.59062 86.06662 92.42662 98.70262 105.31462 111.84262 118.46662 121.38262 127.65862">Physics C Mechanics</tspan></text>
<path transform="matrix(.62716248,0,0,.62716248,73.855838,528.8976)" d="M10 105C9.999999 105.26521 9.949252 105.52033 9.847757 105.76536 9.7462639 106.01038 9.601748 106.22667 9.414213 106.41421 9.226676 106.60174 9.010394 106.746257 8.765367 106.84775 8.520338 106.94924 8.265216 106.99999 8 107 7.734783 106.99999 7.4796607 106.94924 7.234632 106.84775 6.989604 106.746257 6.7733218 106.60174 6.585786 106.41421 6.398249 106.22667 6.253734 106.01038 6.1522405 105.76536 6.050746 105.52033 5.9999997 105.26521 6 105 5.9999997 104.73477 6.050746 104.479648 6.1522405 104.23462 6.253734 103.989589 6.398249 103.77331 6.585786 103.585788 6.7733218 103.39825 6.989604 103.25372 7.234632 103.15223 7.4796607 103.05074 7.734783 103 8 103 8.265216 103 8.520338 103.05074 8.765367 103.15223 9.010394 103.25372 9.226676 103.39825 9.414213 103.585788 9.601748 103.77331 9.7462639 103.98959 9.847757 104.23463 9.949252 104.479648 9.999999 104.73477 10 105Z" fill="#575757"/>
<text fill="#575757" xml:space="preserve" transform="matrix(.62716248 0 0 .62716248 73.855838 528.8976)" font-size="12" font-family="Roboto"><tspan y="108" x="20.390625 26.846627 33.374628 39.998628 46.73063 53.34263 59.87063 66.60263 72.96263 75.93863 82.46663 89.09063 95.85863 98.834629 106.64662 113.486629 123.99863 130.73062 137.57062 143.76262 146.67862 150.60262 153.51862 160.35861">Language and Composition</tspan></text>
</g>
</svg>
