<svg xmlns="http://www.w3.org/2000/svg" xmlns:xlink="http://www.w3.org/1999/xlink" version="1.1"  viewBox="0 0 612 792">
<defs>
<clipPath id="clip_8">
<path transform="matrix(.24,0,0,.24,0,0)" d="M0 0H2550V3300H0Z" fill-rule="evenodd"/>
</clipPath>
<clipPath id="clip_9">
<path transform="matrix(.24,0,0,.24,0,0)" d="M0 0H2550V3300H0Z" fill-rule="evenodd"/>
</clipPath>
<clipPath id="clip_10">
<path transform="matrix(.24,0,0,.24,0,0)" d="M0 0H2550V3300H0Z" fill-rule="evenodd"/>
</clipPath>
<clipPath id="clip_11">
<path transform="matrix(.24,0,0,.24,0,0)" d="M309.1574 683.5387H337.2824V733.5387H309.1574Z" fill-rule="evenodd"/>
</clipPath>
<clipPath id="clip_12">
<path transform="matrix(.24,0,0,.24,0,0)" d="M301.15995 855.73867H351.15995V905.73867H301.15995Z" fill-rule="evenodd"/>
</clipPath>
<clipPath id="clip_13">
<path transform="matrix(.24,0,0,.24,0,0)" d="M301.15995 779.042H351.15995V813.417H301.15995Z" fill-rule="evenodd"/>
</clipPath>
<clipPath id="clip_14">
<path transform="matrix(.24,0,0,.24,0,0)" d="M308.4893 941.9646H342.8643V991.9646H308.4893Z" fill-rule="evenodd"/>
</clipPath>
<clipPath id="clip_15">
<path transform="matrix(.24,0,0,.24,0,0)" d="M0 0H2550V3300H0Z" fill-rule="evenodd"/>
</clipPath>
</defs>
<g clip-path="url(#clip_8)">
<path transform="matrix(.75,0,0,.75,0,0)" d="M0 0H816V1056H0Z" fill="#ffffff"/>
</g>
<g clip-path="url(#clip_9)">
<path transform="matrix(.75,0,0,.75,0,0)" d="M0 0H816V1056H0Z" fill="#ffffff"/>
</g>
<g clip-path="url(#clip_10)">
<path transform="matrix(0,-.75,.75,0,237.77916,736.7488)" stroke-width="1" stroke-linecap="butt" stroke-miterlimit="4" stroke-linejoin="miter" fill="none" stroke="#575757" d="M0 .5H816.446"/>
<path transform="matrix(-.75,0,0,-.75,539.4876,124.79248)" stroke-width="1" stroke-linecap="butt" stroke-miterlimit="4" stroke-linejoin="miter" fill="none" stroke="#575757" d="M0 .5H623.6471"/>
<path transform="matrix(-.75,0,0,-.75,207.39557,255.169)" d="M0 0H3V1H0M4 0H7V1H4M8 0H11V1H8M12 0H15V1H12M16 0H19V1H16M20 0H23V1H20M24 0H27V1H24M28 0H31V1H28M32 0H35V1H32M36 0H39V1H36M40 0H43V1H40M44 0H47V1H44M48 0H51V1H48M52 0H55V1H52M56 0H59V1H56M60 0H63V1H60M64 0H67V1H64M68 0H71V1H68M72 0H75V1H72M76 0H79V1H76M80 0H83V1H80M84 0H87V1H84M88 0H91V1H88M92 0H95V1H92M96 0H99V1H96M100 0H103V1H100M104 0H107V1H104M108 0H111V1H108M112 0H115V1H112M116 0H119V1H116M120 0H123V1H120M124 0H127V1H124M128 0H131V1H128M132 0H135V1H132M136 0H139V1H136M140 0H143V1H140M144 0H147V1H144M148 0H151V1H148M152 0H155V1H152M156 0H159V1H156M160 0H163V1H160M164 0H167V1H164M168 0H171V1H168M172 0H175V1H172M176 0H179V1H176M180 0H180.16214V1H180" fill="#575757"/>
<path transform="matrix(-.75,0,0,-.75,542.01028,242.87451)" d="M0 0H3V1H0M4 0H7V1H4M8 0H11V1H8M12 0H15V1H12M16 0H19V1H16M20 0H23V1H20M24 0H27V1H24M28 0H31V1H28M32 0H35V1H32M36 0H39V1H36M40 0H43V1H40M44 0H47V1H44M48 0H51V1H48M52 0H55V1H52M56 0H59V1H56M60 0H63V1H60M64 0H67V1H64M68 0H71V1H68M72 0H75V1H72M76 0H79V1H76M80 0H83V1H80M84 0H87V1H84M88 0H91V1H88M92 0H95V1H92M96 0H99V1H96M100 0H103V1H100M104 0H107V1H104M108 0H111V1H108M112 0H115V1H112M116 0H119V1H116M120 0H123V1H120M124 0H127V1H124M128 0H131V1H128M132 0H135V1H132M136 0H139V1H136M140 0H143V1H140M144 0H147V1H144M148 0H151V1H148M152 0H155V1H152M156 0H159V1H156M160 0H163V1H160M164 0H167V1H164M168 0H171V1H168M172 0H175V1H172M176 0H179V1H176M180 0H183V1H180M184 0H187V1H184M188 0H191V1H188M192 0H195V1H192M196 0H199V1H196M200 0H203V1H200M204 0H207V1H204M208 0H211V1H208M212 0H215V1H212M216 0H219V1H216M220 0H223V1H220M224 0H227V1H224M228 0H231V1H228M232 0H235V1H232M236 0H239V1H236M240 0H243V1H240M244 0H247V1H244M248 0H251V1H248M252 0H255V1H252M256 0H259V1H256M260 0H263V1H260M264 0H267V1H264M268 0H271V1H268M272 0H275V1H272M276 0H279V1H276M280 0H283V1H280M284 0H287V1H284M288 0H291V1H288M292 0H295V1H292M296 0H299V1H296M300 0H303V1H300M304 0H307V1H304M308 0H311V1H308M312 0H315V1H312M316 0H319V1H316M320 0H323V1H320M324 0H327V1H324M328 0H331V1H328M332 0H335V1H332M336 0H339V1H336M340 0H343V1H340M344 0H347V1H344M348 0H351V1H348M352 0H355V1H352M356 0H359V1H356M360 0H363V1H360M364 0H367V1H364M368 0H371V1H368M372 0H374.58338V1H372" fill="#575757"/>
<path transform="matrix(-.74999907,.0011736894,-.0011736894,-.74999907,551.3932,736.37496)" stroke-width="1" stroke-linecap="butt" stroke-miterlimit="4" stroke-linejoin="miter" fill="none" stroke="#575757" d="M0 .5H640.6901"/>
<text fill="#575757" xml:space="preserve" transform="matrix(.62716248 0 0 .62716248 93.00566 165.69364)" font-size="12" font-family="Roboto"><tspan y="12" x="0 6.7440006 13.488001 20.232003 23.544003 30.288002 37.032 43.776 47.088 53.832 60.576 67.32">616-843-1554</tspan></text>
<text fill="#575757" xml:space="preserve" transform="matrix(.62716248 0 0 .62716248 93.00566 186.21749)" font-size="12" font-family="Roboto"><tspan y="12" x="0 6.276 10.440001 13.356001 19.716002 25.908 32.268 36.324 43.068 49.812 60.588 67.32 77.832 84.36 87.276 90.192 93.348 99.624 106.464008">cfleser11@gmail.com</tspan></text>
<text fill="#575757" xml:space="preserve" transform="matrix(.62716248 0 0 .62716248 93.00566 206.74134)" font-size="12" font-family="Roboto"><tspan y="12" x="0 9.012001 18.024003 27.036004 30.192004 33.108 36.024003 42.648004 48.732004 55.092004 61.860006 64.776 71.4 74.556 80.832 87.672008 98.184009 103.128009 106.04401 112.66801 117.61201 123.88801 130.72801 137.35202 143.97602 150.81601 154.87201 158.184 162.348 165.264 171.62401 177.81601 184.17601 188.23201 194.97602">www.linkedin.com/in/connor-fleser11</tspan></text>
<text fill="#575757" xml:space="preserve" transform="matrix(.62716248 0 0 .62716248 93.00566 227.2652)" font-size="12" font-family="Roboto"><tspan y="12" x="0 8.172001 12.228001 18.756 25.380002 32.148004 35.124006 43.680006 50.208005 56.016008 62.376008 69.00001 71.352008 74.328 84.804 88.068 91.044 97.788 104.532009 111.27601 118.02001">Grand Haven, MI 49460</tspan></text>
</g>
<g clip-path="url(#clip_11)">
<path transform="matrix(.0055780846,0,0,.0055780846,74.20388,164.05319)" d="M1096.4 .83300009C1098.724 .84400007 1101.046 .9280001 1103.364 1.0970001 1107.714 1.4140002 1112.042 2.0180002 1116.312 2.9050003 1121.791 4.044 1127.171 5.651 1132.377 7.704 1137.9619 9.906 1143.345 12.62 1148.437 15.799999 1153.6481 19.053999 1158.557 22.792 1163.077 26.952 1168.173 31.64 1172.777 36.859 1176.79 42.502 1180.546 47.781999 1183.781 53.432 1186.433 59.343999 1189.089 65.264 1191.155 71.447 1192.595 77.772998 1193.6079 82.21999 1194.3109 86.739 1194.699 91.284 1194.923 93.909999 1195.041 96.545 1195.0599 99.181 1198.167 769.261 1198.168 1439.381 1195.0599 2109.481 1195.0409 2112.117 1194.923 2114.752 1194.699 2117.379 1194.311 2121.9229 1193.608 2126.442 1192.596 2130.889 1191.289 2136.627 1189.4679 2142.2479 1187.158 2147.661 1184.6129 2153.627 1181.4769 2159.3399 1177.813 2164.6939 1174.125 2170.0838 1169.902 2175.108 1165.229 2179.671 1160.553 2184.2379 1155.425 2188.3419 1149.944 2191.9029 1145.1699 2195.004 1140.129 2197.692 1134.893 2199.9259 1129.48 2202.2349 1123.86 2204.0557 1118.122 2205.3629 1113.674 2206.3758 1109.156 2207.0789 1104.611 2207.4659 1101.984 2207.69 1099.35 2207.8079 1096.714 2207.828 764.79397 2209.367 432.864 2209.367 100.94397 2207.828 98.30797 2207.8079 95.67397 2207.69 93.04697 2207.4659 88.50197 2207.0789 83.98296 2206.3758 79.535968 2205.3629 73.797969 2204.056 68.17796 2202.2349 62.764966 2199.9259 56.432966 2197.2239 50.386964 2193.8577 44.752969 2189.9019 39.407968 2186.15 34.433969 2181.868 29.927968 2177.14 25.554966 2172.553 21.620968 2167.5469 18.199967 2162.211 15.016966 2157.2459 12.2779669 2151.9969 10.030967 2146.544 7.864967 2141.285 6.153967 2135.8389 4.9269669 2130.286 3.9199668 2125.7279 3.2369667 2121.098 2.8839668 2116.4439 2.7079666 2114.13 2.6159669 2111.8099 2.5979667 2109.4888-.82103326 1439.3987-.8200333 769.2888 2.5979667 99.18872 2.6159666 96.86772 2.7079666 94.54772 2.8839668 92.23372 3.2369667 87.57872 3.9199668 82.94972 4.9269669 78.391719 6.219967 72.54172 8.047967 66.811717 10.381967 61.294717 12.793966 55.592718 15.743967 50.119718 19.178967 44.968717 22.694968 39.698717 26.714966 34.765718 31.167967 30.259716 35.620969 25.753716 40.503969 21.674717 45.730966 18.097718 50.918966 14.547717 56.444967 11.491717 62.211969 8.9897179 67.98397 6.485718 73.99597 4.5377175 80.13997 3.1797176 84.59497 2.1947175 89.117969 1.5207175 93.66597 1.1607175 96.08597 .96871748 98.51197 .8697175 100.93897 .8497175 432.75898-.7272825 764.579 .31971754 1096.399 .8487175L1096.4 .83300009ZM629.65 2017.133H567.78207C543.46707 2017.133 523.728 2036.873 523.728 2061.186V2123.055C523.728 2147.368 543.468 2167.108 567.78207 2167.108H629.65C653.96408 2167.108 673.70407 2147.368 673.70407 2123.055V2061.186C673.70407 2036.873 653.965 2017.133 629.65 2017.133ZM618.06 2045.228C633.265 2045.229 645.608 2057.573 645.608 2072.7762V2111.464C645.608 2126.6683 633.264 2139.0123 618.06 2139.0123H579.372C564.168 2139.0123 551.82406 2126.6683 551.82406 2111.464V2072.7762C551.82406 2057.5733 564.16708 2045.2291 579.372 2045.2282H618.06V2045.228ZM1160.24 154.02808H37.640016C36.723016 762.49807 34.690015 1370.9281 37.131017 1979.4281H1160.3309C1161.5089 1370.9581 1162.9049 762.5281 1160.3259 154.02808H1160.24ZM795.15 59.804079H402.29005C397.64604 59.805078 393.87705 63.574079 393.87705 68.21708V85.04408C393.87705 89.68708 397.64704 93.457088 402.29005 93.457088H795.15C799.794 93.457088 803.564 89.68709 803.564 85.04408V68.21709C803.564 63.574087 799.79507 59.805089 795.15 59.804086V59.804079Z" fill="#575757" fill-rule="evenodd"/>
</g>
<g clip-path="url(#clip_12)">
<path transform="matrix(.024420053,0,0,.024420053,72.27838,205.37728)" d="M244.482 0C109.675 0 0 109.675 0 244.482 0 379.284 109.675 488.96199 244.482 488.96199 379.28999 488.96199 488.96199 379.28398 488.96199 244.48198 488.962 109.675 379.291 0 244.482 0ZM252.125 131.93C283.438 131.10399 318.491 127.61299 356.396 119.83299 370.023 152.95 377.634 192.31198 378.83799 236.81H252.125V131.93ZM252.125 116.607V16.167C261.283 18.818 286.599 27.911 312.194 52.767 327.252 67.395999 339.862 85.086 349.926 105.507 314.431 112.581 281.566 115.812 252.125 116.607ZM236.838 116.812C209.882 116.800998 186.178 114.826 166.42 112.135997 156.306 110.760997 146.855 109.159 138.1 107.437999 148.173 86.51399 160.85701 68.394 176.078 53.446996 201.727 28.250996 227.542 18.909996 236.838 16.183995V116.812ZM163.655 127.243C184.176 130.06 208.805 132.14 236.838 132.151V236.81H110.125C111.304 193.209 118.631 154.53 131.75 121.824 141.513 123.81 152.155 125.663 163.655 127.243ZM94.841 236.81H15.486C17.159 186.183 35.327 139.66 64.79 102.461 73.264 105.896999 90.992008 112.423 116.64101 118.506999 101.091 158.504 95.786 201.078 94.841 236.81ZM94.703 252.152C95.042 299.567 102.961009 337.327 114.569 367.26499 97.388 371.33 79.682 376.274 61.517004 382.267 33.984 345.8 17.093 300.882 15.486 252.152H94.703ZM109.973 252.152H236.838V351.19099C204.729 352.037 168.676 355.67597 129.66 363.87898 116.977 332.013 110.293 294.463 109.973 252.152ZM236.838 366.536V469.255C224.493 465.454 201.075 456.053 177.737 434.94703 160.65 419.497 146.683 400.463 135.956 378.252 172.628 370.746 206.549 367.353 236.838 366.536ZM252.125 366.332C279.08 366.344 302.777 368.32 322.54103 371.011 333.842 372.546 344.31404 374.36399 353.915 376.31999 343.204 399.08299 329.146 418.56999 311.86903 434.356 288.44804 455.766 264.62504 465.34999 252.12502 469.23298V366.332H252.125ZM325.302 355.898C304.787 353.08103 280.152 351.00303 252.124 350.987V252.15201H378.991C378.677 293.58003 372.263 330.466 360.09 361.90803 349.551 359.698 337.946 357.637 325.302 355.898ZM394.27 252.152H473.47999C471.86698 300.804 455.03099 345.662 427.57298 382.102 421.46897 379.472 403.34098 372.192 375.14698 365.32099 389.553 326.959 394.005 286.455 394.27 252.152ZM394.122 236.81C393.16 200.492 387.69703 157.09799 371.547 116.53 388.477 112.611 405.926 107.817 423.822 102.028 453.49 139.299 471.801 185.985 473.47999 236.811H394.122V236.81ZM413.006 89.4C396.70603 94.493007 380.798 98.740009 365.34803 102.237 355.002 80.319 341.18803 59.616 322.84403 41.8 314.46403 33.655 306.10203 27.06 298.19804 21.716 343.016 32.523 382.737 56.538 413.006 89.4ZM190.765 21.716C182.866 27.06 174.5 33.655 166.119 41.8 147.24701 60.128 133.181 81.520999 122.73601 104.145999 100.95001 99.091999 84.79401 93.64 75.326007 90.076999 105.667 56.863 145.637 32.598 190.765 21.716ZM71.893 395.039C88.569 389.703 104.839 385.262 120.63899 381.594 134.35999 411.135 151.611 431.932 167.483 446.287 178.149 455.93199 188.815 463.339 198.65 469.016 148.542 458.803 104.336 432.179 71.893 395.039ZM290.315 469.016C300.147 463.33799 310.819 455.931 321.48 446.287 342.87803 426.93699 358.267 403.987 369.226 379.693 392.746 385.328 409.311 391.315 417.492 394.55799 385.012 431.958 340.635 458.759 290.315 469.016Z" fill="#575757"/>
</g>
<g clip-path="url(#clip_13)">
<path transform="matrix(.21298826,0,0,.21298826,71.433467,185.26618)" d="M10 8C6.6863005 8 4 10.6821999 4 14 4.07439 23.0983 4.0002 32.728 4 42 4 45.1932 6.4839 47.7776 9.625 47.9688L54.25 48.00005C57.4493 47.87085 60 45.23515 60 42.00005V12.969049C59.51451 10.140349 57.0587 8.00025 54.0938 8.00025 39.4038 8.00692 24.695799 8.00033 9.999798 8.00025L10 8ZM9.90625 11.1562H54.28125L32.81225 32.6252C32.42051 33.016939 31.797749 33.016939 31.406048 32.6252L9.906048 11.1561989 9.90625 11.1562ZM57.00025 12.687401V41.781404C57.00025 43.5148 56.37575 44.493906 55.12525 44.843904L40.00025 29.687903 57.00025 12.687902V12.687401ZM7.3442537 12.812401 24.063254 29.5314 8.782253 44.8124C7.7360537 44.45937 7.3718535 43.6171 7.3447535 42.4686V12.812601L7.3442537 12.812401ZM26.188254 31.624402 31.407053 36.8744C31.798794 37.26614 32.421556 37.26614 32.81325 36.8744L37.87575 31.811902 51.06375 44.9999H12.813751L26.188752 31.6249 26.188254 31.624402Z" fill="#575757"/>
</g>
<g clip-path="url(#clip_14)">
<path transform="matrix(.024909065,0,0,.024909065,71.877338,225.49858)" d="M257.49 23C243.67922 23.000926 230.0897 24.735466 216.7215 28.203625 203.35329 31.671782 190.63449 36.76248 178.56513 43.475728 166.49576 50.18897 155.46236 58.309747 145.46492 67.838069 135.4675 77.36638 126.826229 87.99706 119.541118 99.73012 112.25601 111.46317 106.56039 123.92282 102.45425 137.10907 98.3481 150.29532 95.96295 163.78585 95.29879 177.58065 94.63463 191.37543 95.71273 205.03267 98.533107 218.5524 101.35346 232.07213 105.82576 245.02132 111.95 257.4L224 483.82C230.07263 496.19059 239.9993 502.38059 253.78 502.39H253.92C267.6381 502.43644 277.56809 496.32646 283.71 484.06004L399.77 254.28C405.90907 242.12892 410.41746 229.40027 413.29518 216.09404 416.17286 202.78783 417.32695 189.33376 416.75743 175.73181 416.1879 162.12989 413.91316 148.81937 409.9332 135.80027 405.95326 122.78116 400.39665 110.473918 393.26335 98.878528 386.13005 87.28315 377.65043 76.77409 367.8245 67.35137 357.99855 57.928647 347.14363 49.89655 335.2597 43.255075 323.37577 36.6136 310.84666 31.577242 297.6723 28.145993 284.49797 24.71474 271.10386 22.99941 257.49 23ZM383.7 246.17 267.62 475.95C264.82066 481.64714 260.2473 484.46049 253.9 484.39H253.82999C247.44754 484.4363 242.8742 481.58299 240.10999 475.83003L128.10999 249.42002C122.66489 238.41446 118.688358 226.90167 116.1804 214.88164 113.67244 202.8616 112.713359 190.71924 113.30315 178.45455 113.89293 166.18982 116.0127 154.19551 119.662479 142.47159 123.31224 130.74768 128.37512 119.66959 134.85114 109.23733 141.32714 98.805049 149.00887 89.352649 157.89635 80.880138 166.78385 72.40762 176.59249 65.186298 187.32228 59.216154 198.05207 53.246004 209.3594 48.718214 221.24431 45.63279 233.12921 42.547365 245.2111 41.0031 257.49 41 269.56687 40.999448 281.44877 42.52113 293.13575 45.565057 304.82273 48.608983 315.9373 53.07684 326.47947 58.96863 337.02168 64.86041 346.65098 71.98585 355.3674 80.34493 364.08387 88.70401 371.60594 98.02678 377.93367 108.31324 384.26133 118.59968 389.19029 129.5176 392.72047 141.06697 396.2507 152.61637 398.26817 164.42421 398.7729 176.49054 399.2776 188.55684 398.25328 200.49193 395.6999 212.29578 393.1465 224.09963 389.14656 235.39104 383.7 246.17Z" fill="#575757"/>
<path transform="matrix(.024909065,0,0,.024909065,71.877338,225.49858)" d="M256 89C244.79459 88.99999 234.01566 91.14405 223.66321 95.43217 213.31078 99.720279 204.17285 105.82604 196.24945 113.749469 188.32604 121.672878 182.22026 130.81079 177.93216 141.16324 173.64403 151.51567 171.49999 162.2946 171.5 173.5 171.49999 184.70537 173.64403 195.48429 177.93216 205.83672 182.22026 216.18915 188.32604 225.32709 196.24945 233.2505 204.17285 241.17389 213.31078 247.27965 223.66321 251.56778 234.01566 255.85591 244.79459 257.99998 256 258 267.20536 257.99998 277.98426 255.85591 288.3367 251.56778 298.68913 247.27965 307.82707 241.17389 315.7505 233.2505 323.67387 225.32709 329.77964 216.18917 334.06776 205.83673 338.35588 195.48429 340.49998 184.70537 340.5 173.5 340.4868 162.29866 338.33384 151.52492 334.04115 141.17876 329.74845 130.83261 323.64186 121.699268 315.72129 113.77871 307.80076 105.85817 298.6674 99.75156 288.32124 95.45887 277.97508 91.16618 267.20133 89.01323 256 89ZM256 248C246.12067 247.99999 236.61736 246.10967 227.49007 242.32901 218.36277 238.54836 210.30625 233.16516 203.32053 226.17945 196.3348 219.19371 190.9516 211.13719 187.17095 202.00989 183.3903 192.8826 181.49999 183.3793 181.5 173.5 181.49999 163.62068 183.3903 154.11737 187.17096 144.99007 190.9516 135.86278 196.3348 127.80627 203.32053 120.82053 210.30625 113.8348 218.36277 108.451618 227.49007 104.67097 236.61736 100.89032 246.12067 99 256 99 265.8793 99 275.3826 100.89032 284.5099 104.67097 293.63719 108.451618 301.6937 113.8348 308.67945 120.82053 315.66517 127.80627 321.04835 135.86278 324.82899 144.99007 328.60966 154.11737 330.49998 163.62068 330.5 173.5 330.4894 183.37607 328.59199 192.87525 324.80769 201.99752 321.02339 211.11978 315.6395 219.17264 308.65608 226.15607 301.67268 233.13951 293.6198 238.52338 284.49754 242.3077 275.37525 246.09198 265.87608 247.98941 256 248Z" fill="#575757"/>
</g>
<g clip-path="url(#clip_15)">
<text fill="#575757" xml:space="preserve" transform="matrix(.75 0 0 .75 72.27838 139.9584)" font-size="16.38" font-family="HKGrotesk" font-weight="bold"><tspan y="16" x="0 14.694765 30.157109 44.97181 57.819589 71.74677 86.441539">CONTACT</tspan></text>
<text fill="#575757" xml:space="preserve" transform="matrix(.75 0 0 .75 260.1849 139.9537)" font-size="16.38" font-family="HKGrotesk" font-weight="bold"><tspan y="16" x="0 12.559938 25.855473 41.317819 54.37348 67.429149 80.64472 92.9408 105.236888 113.367259 128.8296 143.6443 157.57149 169.28389 176.6147 188.91078 203.15779 220.72298 238.28816 252.21535 265.5109">PROFFESSIONAL SUMMARY</tspan></text>
<text fill="#575757" xml:space="preserve" transform="matrix(.75 0 0 .75 261.07676 252.374)" font-size="16.13" font-family="HKGrotesk" font-weight="bold"><tspan y="17" x="0 18.926489 34.152418 47.244615 62.116235 69.33478 82.34824 95.94435 108.31219 121.32565 134.41785 142.42374 155.4372 170.02536 184.49542">WORK EXPERIENCE</tspan></text>
<text fill="#575757" xml:space="preserve" transform="matrix(.75 0 0 .75 261.37403 271.00404)" font-size="14.66" font-family="Roboto"><tspan y="16" x="0 9.246033 17.31842 25.290619 32.847749 40.61241 44.240694 52.47052 56.0988 64.42882 72.51552 80.73819 84.29491 92.38161 100.14627 107.910938 112.8703 116.42702 124.51372 132.73639 136.36467 140.40802 144.0363 152.36632 160.45302 168.67569 172.2324 180.3191 188.08377 195.84844 200.8078 204.36452 212.45122 220.67389 224.30217 233.84162 242.20026 250.28696 257.8441 265.92366 269.48036 274.26795 277.82466 285.91136 294.13404 297.76234 307.30177 315.6604">Phase 1 Engineering - Engineering Consulting Co.</tspan></text>
<text fill="#575757" xml:space="preserve" transform="matrix(.75 0 0 .75 261.37403 292.04026)" font-size="12.66" font-family="Roboto" font-weight="bold"><tspan y="13" x="0 8.163528 12.779846 19.936066 27.067566 34.149629 40.749666 45.026094 48.177797 56.403123 63.24417 69.640277 76.48132 79.83696 86.99318 94.1185 105.0753 111.91635 119.00459 123.28102 126.432727 133.21816 140.3064 147.4379 150.5896 158.36998 165.5262 170.06218 174.33861 183.63922 190.42465 195.04097">Product Development and Software</tspan></text>
<text fill="#575757" xml:space="preserve" transform="matrix(.75 0 0 .75 261.37403 292.04026)" font-size="12.66" font-family="Roboto" font-weight="bold"><tspan y="33" x="0 8.225327 15.066376 21.462479 28.303528 31.659165 38.815385 45.940706 56.897508 63.738557 70.8268 75.103229 78.25493 81.944278 89.03252 93.308948 100.149997 104.76631 111.85455 115.006259 119.913028 123.06473 130.326 137.58728 144.84856">Development Intern - 2024</tspan></text>
<path transform="matrix(.74999806,0,0,.74999806,256.6839,322.97419)" d="M10 10C9.999999 10.265216 9.949252 10.520337 9.847757 10.765366 9.7462639 11.010393 9.601748 11.226675 9.414213 11.414212 9.226676 11.601748 9.010394 11.7462639 8.765367 11.847757 8.520338 11.949251 8.265216 11.999999 8 12 7.734783 11.999999 7.4796607 11.949251 7.234632 11.847757 6.989604 11.7462639 6.7733218 11.601748 6.585786 11.414212 6.398249 11.226675 6.253734 11.010393 6.1522405 10.765366 6.050746 10.520337 5.9999997 10.265216 6 10 5.9999997 9.734783 6.050746 9.479661 6.1522405 9.2346329 6.253734 8.989604 6.398249 8.773322 6.585786 8.585786 6.7733218 8.398249 6.989604 8.253734 7.234632 8.15224 7.4796607 8.050747 7.734783 8 8 8 8.265216 8 8.520338 8.050747 8.765367 8.15224 9.010394 8.253734 9.226676 8.398249 9.414213 8.585786 9.601748 8.773322 9.7462639 8.989604 9.847757 9.2346329 9.949252 9.479661 9.999999 9.734783 10 10Z" fill="#575757"/>
<text fill="#575757" xml:space="preserve" transform="matrix(.74999806 0 0 .74999806 256.6839 322.97419)" font-size="12" font-family="Roboto"><tspan y="13" x="20.390625 28.202626 32.258626 38.618627 45.146627 49.070627 55.430627 62.198629 65.17463 71.36663 77.72663 83.53463 89.89463 93.95063 100.47863 103.39463 106.37063 109.28663 115.91063 119.83463 126.19463 130.25064 136.87464 143.40264 146.31864 149.29463 153.21863 160.05863 166.89862 169.81462 176.00662 178.98262 181.89862 188.52262 191.49861 199.07062 204.74662 208.67061 215.28261 222.1226 228.74662 231.72261 237.91461 244.44261 250.25061 253.16661 259.79063 266.5226 269.49864 276.26664 283.10664 289.05863 295.41865 302.04264 308.23463 311.21064 318.05064 322.21464 325.19065 331.80265 338.64265 345.25465 349.31065">Created several internal tools in Python saving dozens of hours</tspan></text>
<path transform="matrix(.74999806,0,0,.74999806,256.6839,322.97419)" d="M10 29C9.999999 29.265215 9.949252 29.520335 9.847757 29.765362 9.7462639 30.01039 9.601748 30.226674 9.414213 30.414212 9.226676 30.601746 9.010394 30.74626 8.765367 30.847756 8.520338 30.949252 8.265216 30.999999 8 31 7.734783 30.999999 7.4796607 30.949252 7.234632 30.847758 6.989604 30.746262 6.7733218 30.601746 6.585786 30.414212 6.398249 30.226674 6.253734 30.01039 6.1522405 29.765362 6.050746 29.520335 5.9999997 29.265215 6 29 5.9999997 28.734782 6.050746 28.479657 6.1522405 28.234629 6.253734 27.989602 6.398249 27.77332 6.585786 27.585783 6.7733218 27.398247 6.989604 27.253733 7.234632 27.152239 7.4796607 27.050747 7.734783 27 8 27 8.265216 27 8.520338 27.050747 8.765367 27.152239 9.010394 27.253733 9.226676 27.398247 9.414213 27.585783 9.601748 27.77332 9.7462639 27.989602 9.847757 28.234629 9.949252 28.479657 9.999999 28.734782 10 29Z" fill="#575757"/>
<text fill="#575757" xml:space="preserve" transform="matrix(.74999806 0 0 .74999806 256.6839 322.97419)" font-size="12" font-family="Roboto"><tspan y="32" x="20.390625 28.262625 34.622629 40.430627 46.790628 49.706628 56.546628 63.278627 69.638629 76.406627 79.38262 83.306629 90.14663 96.98663 99.90263 106.094638 109.07063 113.234638 120.07464 124.13064 127.106639 133.87464 140.40264 144.32663 150.85463 153.83063 164.34262 170.87062 177.49463 180.41063 187.14263 193.75463 196.67063 203.19863 207.12262 210.03862 216.87862 223.50263 226.47863 233.00662 239.63062 246.39862 249.37462 256.10664 262.63465 266.69065 272.88264 275.7986 282.4226 289.1546 292.1306 296.29463 303.1346 307.1906 310.16664 316.44264 319.3586 322.2746 328.63459 335.25859 339.1826">Developed tools for data manipulation and parsing for clients</tspan></text>
<path transform="matrix(.74999806,0,0,.74999806,256.6839,322.97419)" d="M10 48C9.999999 48.265214 9.949252 48.520334 9.847757 48.76536 9.7462639 49.010389 9.601748 49.22667 9.414213 49.41421 9.226676 49.601747 9.010394 49.746259 8.765367 49.84775 8.520338 49.949247 8.265216 49.999998 8 50 7.734783 49.999998 7.4796607 49.949247 7.234632 49.84775 6.989604 49.746259 6.7733218 49.601747 6.585786 49.41421 6.398249 49.22667 6.253734 49.010389 6.1522405 48.76536 6.050746 48.520334 5.9999997 48.265214 6 48 5.9999997 47.734785 6.050746 47.47966 6.1522405 47.23463 6.253734 46.9896 6.398249 46.77332 6.585786 46.585786 6.7733218 46.398248 6.989604 46.25373 7.234632 46.152238 7.4796607 46.050748 7.734783 46 8 46 8.265216 46 8.520338 46.050748 8.765367 46.152238 9.010394 46.25373 9.226676 46.398248 9.414213 46.585786 9.601748 46.77332 9.7462639 46.9896 9.847757 47.23463 9.949252 47.47966 9.999999 47.734785 10 48Z" fill="#575757"/>
<text fill="#575757" xml:space="preserve" transform="matrix(.74999806 0 0 .74999806 256.6839 322.97419)" font-size="12" font-family="Roboto"><tspan y="51" x="20.390625 31.034626 37.874628 41.930627 48.014627 54.374628 61.142629 64.11863 73.13063 76.04663 79.970638 86.582637 89.55863 96.32663 99.24263 105.97463 108.89063 112.81464 119.342639 122.25864 125.234638 129.39864 132.31464 135.23064 139.15464 145.51464 149.57064 152.48664 159.11063 165.84262 168.81862 175.01062 180.68662 186.87862 190.80261 197.16262 207.67462 210.65062 213.56662 220.19062 223.16661 229.69461 232.67061 235.58661 242.2106 245.5226 252.1346 258.9746 269.4866 275.84663 278.82264 282.87864 289.40666 296.17466 302.70268 306.75868 309.73469 316.2627 322.9947 329.72669 332.64268 335.55867 341.83467 348.36268 352.28669 355.20268 362.04267">Worked with digital filtering system in a in-home radar application</tspan></text>
<path transform="matrix(.74999806,0,0,.74999806,256.6839,322.97419)" d="M10 67C9.999999 67.26521 9.949252 67.52033 9.847757 67.765369 9.7462639 68.01038 9.601748 68.22667 9.414213 68.41421 9.226676 68.601749 9.010394 68.746257 8.765367 68.84775 8.520338 68.94924 8.265216 68.99999 8 69 7.734783 68.99999 7.4796607 68.94924 7.234632 68.84775 6.989604 68.746257 6.7733218 68.601749 6.585786 68.41421 6.398249 68.22667 6.253734 68.01038 6.1522405 67.765369 6.050746 67.52033 5.9999997 67.26521 6 67 5.9999997 66.73478 6.050746 66.47965 6.1522405 66.23463 6.253734 65.98959 6.398249 65.773319 6.585786 65.585788 6.7733218 65.39825 6.989604 65.25373 7.234632 65.15224 7.4796607 65.05074 7.734783 65 8 65 8.265216 65 8.520338 65.05074 8.765367 65.15224 9.010394 65.25373 9.226676 65.39825 9.414213 65.585788 9.601748 65.773319 9.7462639 65.98959 9.847757 66.23463 9.949252 66.47965 9.999999 66.73478 10 67Z" fill="#575757"/>
<text fill="#575757" xml:space="preserve" transform="matrix(.74999806 0 0 .74999806 256.6839 322.97419)" font-size="12" font-family="Roboto"><tspan y="70" x="20.390625 27.506627 30.422627 40.934629 47.546628 50.462629 54.386629 60.914628 67.53863 73.89863 80.73863 87.35063 93.54263 96.45863 102.134639 105.110637 115.622638 122.150638 128.77463 135.30263 142.03462 148.39463 155.16263 158.13863 164.90663 167.82263 173.63063 179.99063 184.04663 190.23863 196.59864 199.57463 206.30663 210.36263 217.20262 220.07062 226.43062 232.70662 236.63062 242.82262 245.79862 249.96262 256.8026 260.8586 263.83464 270.0266 276.3866 282.1946 288.55464 292.61064 299.13865 302.05464 305.03065 311.30665 314.22264 317.1386 323.4986 330.1226 334.0466">Simultaneously managed diverse projects for several clients</tspan></text>
<path transform="matrix(.74999806,0,0,.74999806,256.6839,322.97419)" d="M10 86C9.999999 86.265209 9.949252 86.520328 9.847757 86.76536 9.7462639 87.01038 9.601748 87.22667 9.414213 87.414218 9.226676 87.601749 9.010394 87.74626 8.765367 87.847759 8.520338 87.94925 8.265216 87.99999 8 88 7.734783 87.99999 7.4796607 87.94925 7.234632 87.847759 6.989604 87.74626 6.7733218 87.601749 6.585786 87.414218 6.398249 87.22667 6.253734 87.01038 6.1522405 86.76536 6.050746 86.520328 5.9999997 86.265209 6 86 5.9999997 85.73478 6.050746 85.47965 6.1522405 85.23463 6.253734 84.98959 6.398249 84.773319 6.585786 84.585788 6.7733218 84.39825 6.989604 84.25373 7.234632 84.15224 7.4796607 84.05074 7.734783 84 8 84 8.265216 84 8.520338 84.05074 8.765367 84.15224 9.010394 84.25373 9.226676 84.39825 9.414213 84.585788 9.601748 84.773319 9.7462639 84.98959 9.847757 85.23463 9.949252 85.47965 9.999999 85.73478 10 86Z" fill="#575757"/>
<text fill="#575757" xml:space="preserve" transform="matrix(.74999806 0 0 .74999806 256.6839 322.97419)" font-size="12" font-family="Roboto"><tspan y="89" x="20.390625 28.262625 34.622629 40.430627 46.790628 49.706628 56.546628 63.278627 69.638629 76.406627 79.38262 85.91062 92.53462 99.30262 102.27862 109.01062 115.37062 119.42662 123.59062 130.43062 134.48662 144.99863 151.35863 158.12664 161.10263 165.15863 168.07463 174.80663 181.64662 185.70262 192.54262 199.15462 205.34662 208.32262 212.24662 218.60662 224.79862 228.72261 234.91461 237.89061 241.8146 248.6546 251.6306 257.9906 264.6146 270.80659 277.41859 281.47459 287.8346 290.8106 297.0866 303.6986 309.8906 313.8146 320.6546 331.1666 337.5266 341.5826 344.55863 351.32664 357.68666 363.87864 366.79463 373.5266">Developed and performed rigorous tests to ensure customer design</tspan></text>
<text fill="#575757" xml:space="preserve" transform="matrix(.74999806 0 0 .74999806 256.6839 322.97419)" font-size="12" font-family="Roboto"><tspan y="108" x="20.390625 24.446625 30.806626 37.622629 44.234628 47.150629 51.206628 57.566629 68.07863 74.43863 81.06263 84.98663">requirements</tspan></text>
<text fill="#575757" xml:space="preserve" transform="matrix(.71049669 0 0 .71049669 401.2482 306.643)" font-size="12" font-family="Roboto"><tspan y="13" x="66.65625 74.48025 81.21225 85.26825 88.18425 91.10025 94.07625 100.82025 107.564258 114.30826 121.05226 124.02826 127.340259 130.31626 138.14026 144.75226 151.48426 158.09626 164.28826 168.21225 171.18825 177.93225 184.67626 191.42026">April 2024 - August 2024</tspan></text>
<text fill="#575757" xml:space="preserve" transform="matrix(.74999788 0 0 .74999788 260.1849 163.58974)" font-size="12" font-family="Roboto"><tspan y="12" x="0 7.8240005 18.336003 25.068003 27.984004 31.908003 34.824 41.664 48.276 54.468004 57.444005 65.256008 72.09601 82.60801 89.34001 95.95201 99.876018 106.236019 110.292018 113.26801 120.38401 126.66001 129.576 135.936 142.56 148.836 155.196 158.172 165.288 169.21199 175.82399 182.592 188.952 195.57599 199.49999 202.47599 211.48798 214.40398 218.32798 224.93997 227.91597 234.44397 237.41997 244.18798 247.10398 252.91197 259.27198 263.32798 269.51997 275.87995 278.85597 285.38398 292.00798 298.77598 301.75199 308.48399 312.53999 319.37998 325.908 332.676 335.652 339.708 346.23603 352.86003 359.592">Ambitious Computer Science Student with a diverse and broad range</tspan></text>
<text fill="#575757" xml:space="preserve" transform="matrix(.74999788 0 0 .74999788 260.1849 163.58974)" font-size="12" font-family="Roboto"><tspan y="28" x="0 6.8400008 11.004001 13.9800009 20.34 26.292 33.024003 39.384004 43.440004 46.356004 52.716005 59.340005 65.616008 71.976009 78.16801 80.520008 83.496 90.024 96.648 103.416 106.392 112.92 115.895999 122.628 126.684 133.524 139.332 145.692 152.31601 155.292 159.216 163.272 169.8 176.076 182.16 185.136 189.192 195.552 201.828 208.668 212.724 219.492 222.468 225.384 232.008 234.984 241.71599 248.55599 252.47998 259.09199 262.068 268.8 272.856 279.384 285.66 289.584 292.5 298.776 305.30403 308.22 311.196 317.72404 324.34803 331.11604 334.09205 338.25605 345.09605 349.15205 359.66404 366.19206">of experiences, and a proven track record in both practical and formal</tspan></text>
<text fill="#575757" xml:space="preserve" transform="matrix(.74999788 0 0 .74999788 260.1849 163.58974)" font-size="12" font-family="Roboto"><tspan y="44" x="0 6.3600008 13.128 19.74 26.015999 32.544 36.468 39.384 46.224 52.848 59.376 62.292 65.268 71.628 78.252 84.06 86.976 91.032 97.872 104.496 115.008 121.368007 127.992008 131.916 138.108 141.264 144.24 151.056 157.008 163.284 166.2 170.124 176.484 183.252 186.228 190.152 196.99199 199.96799 202.88399 209.24399 215.05199 221.41199 225.46799 231.99599 238.72798 245.08798 248.06398 251.98798 258.59999 264.95997 271.15196 277.51197 280.48799 286.67997 292.76399 295.67997 298.59596 301.51194 307.70393 310.67994 317.20796 323.83195">educational environments. Excited to leverage these skills and</tspan></text>
<text fill="#575757" xml:space="preserve" transform="matrix(.74999788 0 0 .74999788 260.1849 163.58974)" font-size="12" font-family="Roboto"><tspan y="60" x="0 6.3600008 12.312 19.044 25.404002 29.460001 32.376 38.736 45.36 51.636 57.996004 64.188 67.164 71.088008 77.92801 80.90401 87.18001 94.02001 100.64401 104.568019 108.624019 111.540019 118.27202 124.88402 128.80802 135.16802 138.14402 142.06801 148.908 151.884 158.412 161.388 165.552 172.392 176.448 185.45999 191.98799 196.04399 202.812 206.124 210.04799 216.65999 219.57599 226.19998 232.28398 235.19998 241.82398 248.55597 251.53197 257.72398 264.56398 268.72798 272.65199 281.66398 288.192 292.248 298.60798 301.58399 307.86 314.69999 325.21199 331.94398 338.472 345.09599 350.77198">experiences to contribute to a forward-thinking software company,</tspan></text>
<text fill="#575757" xml:space="preserve" transform="matrix(.74999788 0 0 .74999788 260.1849 163.58974)" font-size="12" font-family="Roboto"><tspan y="76" x="0 6.768 10.824 13.740001 19.548 22.464 29.088002 35.82 38.796 41.712 52.224004 58.956 65.484 71.76 75.684009 79.84801 86.46001 89.37601 92.352008 99.08401 103.14001 109.98001 112.84801 119.20801 125.48401 129.408 135.6 138.576 145.104 151.728 158.496 161.472 165.636 172.476 178.668 182.592 188.952 193.008 195.924 202.548 209.28 212.256 218.532 225.372 231.996 235.92 238.836 245.45999 252.07199 258.912 265.524 271.71598 274.692 277.60798 288.11997 294.85197 298.90797 305.74797 311.55598 317.91596 328.42796 334.78797 341.41197 345.33598">driving impactful projects and fostering continuous improvement.</tspan></text>
<text fill="#575757" xml:space="preserve" transform="matrix(.70555558 0 0 .70555558 136.56395 44.947744)" font-size="40" font-family="HKGrotesk"><tspan y="40" x="33.3125 69.14453 106.85156 142.8789 178.90625 216.61328 248.8711 266.98829 298.69923 327.1875 359.4453 389.3789 421.63673">CONNOR FLESER</tspan></text>
<text fill="#575757" xml:space="preserve" transform="matrix(.70555558 0 0 .70555558 190.40767 85.64915)" font-size="16" font-family="Roboto"><tspan y="16" x="15.015625 28.629689 42.82969 59.998437 73.29219 86.86719 99.61406 111.90781 124.959369 132.1203 144.81249 158.42655 165.9781 178.27185 192.8781 206.49216 218.7859 225.94684 238.63903 251.3859 264.96089 278.65309 290.94685 305.5531">COMPUTER SCIENCE STUDENT</tspan></text>
<text fill="#575757" xml:space="preserve" transform="matrix(.75 0 0 .75 72.27838 262.2055)" font-size="16.17" font-family="HKGrotesk" font-weight="bold"><tspan y="16" x="0 13.041751 27.385153 41.444559 55.945737 69.68959 82.368457 90.39293 105.65143">EDUCATION</tspan></text>
<text fill="#575757" xml:space="preserve" transform="matrix(.6186127 0 0 .6186127 72.27838 282.74967)" font-size="12" font-family="Roboto" font-weight="bold"><tspan y="12" x="0 7.8480007 14.628 25.02 31.776001 38.496004 42.552003 49.044004 53.424005 56.412004 63.792005 70.04401 73.22401 79.716 86.436008 92.688 99.18 102.168 109.548 113.604 120.324 127.08 133.572 140.292">Computer Science Student</tspan></text>
<text fill="#575757" xml:space="preserve" transform="matrix(.7397736 0 0 .7397736 72.27838 296.88447)" font-size="13.79" font-family="Roboto" font-weight="bold"><tspan y="13" x="0 12.072052 15.725967 22.912674 30.624253 34.278169 42.144517 49.533098 57.251405 60.683259 69.20906 76.6582 83.84491 91.55649 99.274799 107.06712 110.72104 118.51337 126.379718 130.03363 137.22034 144.60892">Michigan Technological</tspan></text>
<text fill="#575757" xml:space="preserve" transform="matrix(.7397736 0 0 .7397736 72.27838 296.88447)" font-size="13.79" font-family="Roboto" font-weight="bold"><tspan y="32" x="0 9.070862 16.78917 20.443085 27.40773 34.856874 39.88353 46.9693 50.623216 55.27977">University</tspan></text>
<text fill="#575757" xml:space="preserve" transform="matrix(.6666686 0 0 .6666686 72.539028 328.4251)" font-size="12" font-family="Roboto"><tspan y="12" x="0 6.7440006 9.900001 16.644001 19.62 27.792002 35.364004">4.0 GPA</tspan></text>
<text fill="#575757" xml:space="preserve" transform="matrix(.6666686 0 0 .6666686 72.539028 328.4251)" font-size="12" font-family="Roboto"><tspan y="28" x="0 6.816 12.768 19.5 25.86 32.136 36.06 42.420003 49.188005 52.164007 60.336008 64.392009 70.920009 77.688 84.3 90.828 94.75201 97.66801 104.50801 111.13201 114.03601 117.01201 127.48801 134.016 139.692 142.668 149.412 156.156 162.90001">Expected Graduation: May 2026</tspan></text>
<text fill="#575757" xml:space="preserve" transform="matrix(.75 0 0 .75 72.27838 372.9888)" font-size="16.38" font-family="HKGrotesk" font-weight="bold"><tspan y="16" x="0 12.296083 27.398625 35.529 47.2414 58.953805">SKILLS</tspan></text>
<text fill="#575757" xml:space="preserve" transform="matrix(.6666685 0 0 .6666685 71.75712 398.6692)" font-size="12" font-family="Roboto"><tspan y="12" x="0 7.5720007 11.628 18.468 25.2 29.256 35.784 46.296 56.808004 59.724004 66.34801 73.08001 76.05601 78.97201 85.50001 92.12401 98.85601 105.46801 111.99601 118.72801 125.08801 131.28002">Programming languages:</tspan></text>
<path transform="matrix(.6666685,0,0,.6666685,71.75712,398.6692)" d="M10 25C9.999999 25.265215 9.949252 25.520335 9.847757 25.765362 9.7462639 26.010392 9.601748 26.226675 9.414213 26.414212 9.226676 26.601746 9.010394 26.74626 8.765367 26.847754 8.520338 26.94925 8.265216 26.999999 8 27 7.734783 26.999999 7.4796607 26.94925 7.234632 26.847754 6.989604 26.74626 6.7733218 26.601746 6.585786 26.414212 6.398249 26.226675 6.253734 26.010392 6.1522405 25.765362 6.050746 25.520335 5.9999997 25.265215 6 25 5.9999997 24.734784 6.050746 24.47966 6.1522405 24.23463 6.253734 23.989603 6.398249 23.773324 6.585786 23.585787 6.7733218 23.398249 6.989604 23.253733 7.234632 23.152239 7.4796607 23.050747 7.734783 23 8 23 8.265216 23 8.520338 23.050747 8.765367 23.152239 9.010394 23.253733 9.226676 23.398249 9.414213 23.585787 9.601748 23.773324 9.7462639 23.989603 9.847757 24.23463 9.949252 24.47966 9.999999 24.734784 10 25Z" fill="#575757"/>
<text fill="#575757" xml:space="preserve" transform="matrix(.6666685 0 0 .6666685 71.75712 398.6692)" font-size="12" font-family="Roboto"><tspan y="28" x="20.390625 27.014626 33.542627 39.350625">Java</tspan></text>
<path transform="matrix(.6666685,0,0,.6666685,71.75712,398.6692)" d="M10 41C9.999999 41.265214 9.949252 41.520334 9.847757 41.76536 9.7462639 42.01039 9.601748 42.226675 9.414213 42.41421 9.226676 42.601747 9.010394 42.74626 8.765367 42.847757 8.520338 42.94925 8.265216 42.999998 8 43 7.734783 42.999998 7.4796607 42.94925 7.234632 42.847757 6.989604 42.74626 6.7733218 42.601747 6.585786 42.41421 6.398249 42.226675 6.253734 42.01039 6.1522405 41.76536 6.050746 41.520334 5.9999997 41.265214 6 41 5.9999997 40.734785 6.050746 40.47966 6.1522405 40.23463 6.253734 39.9896 6.398249 39.77332 6.585786 39.585786 6.7733218 39.398248 6.989604 39.25373 7.234632 39.152238 7.4796607 39.050748 7.734783 39 8 39 8.265216 39 8.520338 39.050748 8.765367 39.152238 9.010394 39.25373 9.226676 39.398248 9.414213 39.585786 9.601748 39.77332 9.7462639 39.9896 9.847757 40.23463 9.949252 40.47966 9.999999 40.734785 10 41Z" fill="#575757"/>
<text fill="#575757" xml:space="preserve" transform="matrix(.6666685 0 0 .6666685 71.75712 398.6692)" font-size="12" font-family="Roboto"><tspan y="44" x="20.390625 27.962626 33.638628 37.562627 44.174627 51.014627">Python</tspan></text>
<path transform="matrix(.6666685,0,0,.6666685,71.75712,398.6692)" d="M10 57C9.999999 57.265214 9.949252 57.520334 9.847757 57.76536 9.7462639 58.01039 9.601748 58.226675 9.414213 58.41421 9.226676 58.601747 9.010394 58.746259 8.765367 58.84775 8.520338 58.94925 8.265216 58.999998 8 59 7.734783 58.999998 7.4796607 58.94925 7.234632 58.847757 6.989604 58.746259 6.7733218 58.601747 6.585786 58.41421 6.398249 58.226675 6.253734 58.01039 6.1522405 57.76536 6.050746 57.520334 5.9999997 57.265214 6 57 5.9999997 56.73478 6.050746 56.479658 6.1522405 56.234628 6.253734 55.989599 6.398249 55.773317 6.585786 55.58578 6.7733218 55.398244 6.989604 55.253728 7.234632 55.152238 7.4796607 55.050748 7.734783 55 8 55 8.265216 55 8.520338 55.050748 8.765367 55.152238 9.010394 55.253728 9.226676 55.398244 9.414213 55.58578 9.601748 55.773317 9.7462639 55.989595 9.847757 56.234624 9.949252 56.479654 9.999999 56.73478 10 57Z" fill="#575757"/>
<text fill="#575757" xml:space="preserve" transform="matrix(.6666685 0 0 .6666685 71.75712 398.6692)" font-size="12" font-family="Roboto"><tspan y="60" x="20.390625 27.782626 30.758625 38.222627 41.198629 48.31463 56.13863">R &#x0026; SAS</tspan></text>
<path transform="matrix(.6666685,0,0,.6666685,71.75712,398.6692)" d="M10 73C9.999999 73.26521 9.949252 73.52033 9.847757 73.76536 9.7462639 74.01038 9.601748 74.22667 9.414213 74.41421 9.226676 74.601749 9.010394 74.746257 8.765367 74.84775 8.520338 74.94924 8.265216 74.99999 8 75 7.734783 74.99999 7.4796607 74.94924 7.234632 74.84775 6.989604 74.746257 6.7733218 74.601749 6.585786 74.41421 6.398249 74.22667 6.253734 74.01038 6.1522405 73.76536 6.050746 73.52033 5.9999997 73.26521 6 73 5.9999997 72.73478 6.050746 72.47966 6.1522405 72.23463 6.253734 71.9896 6.398249 71.77332 6.585786 71.585788 6.7733218 71.39825 6.989604 71.25373 7.234632 71.15223 7.4796607 71.05074 7.734783 71 8 71 8.265216 71 8.520338 71.05074 8.765367 71.15223 9.010394 71.25373 9.226676 71.39825 9.414213 71.585788 9.601748 71.77332 9.7462639 71.9896 9.847757 72.23463 9.949252 72.47966 9.999999 72.73478 10 73Z" fill="#575757"/>
<text fill="#575757" xml:space="preserve" transform="matrix(.6666685 0 0 .6666685 71.75712 398.6692)" font-size="12" font-family="Roboto"><tspan y="76" x="20.390625 28.202626 31.178626 38.642625 41.618627 49.430627 56.234628">C &#x0026; C++</tspan></text>
<text fill="#575757" xml:space="preserve" transform="matrix(.6666685 0 0 .6666685 72.27838 457.90269)" font-size="12" font-family="Roboto"><tspan y="12" x="0 7.5720007 11.628 18.468 22.632 28.992 35.184003 41.376005 44.292005 51.132005 57.756006 64.284008 67.200008 70.176 77.292 83.376 86.292 89.208 92.124 98.316">Professional Skills:</tspan></text>
<path transform="matrix(.6666685,0,0,.6666685,72.27838,457.90269)" d="M10 25C9.999999 25.265215 9.949252 25.520335 9.847757 25.765362 9.7462639 26.010392 9.601748 26.226675 9.414213 26.414212 9.226676 26.601746 9.010394 26.74626 8.765367 26.847754 8.520338 26.94925 8.265216 26.999999 8 27 7.734783 26.999999 7.4796607 26.94925 7.234632 26.847754 6.989604 26.74626 6.7733218 26.601746 6.585786 26.414212 6.398249 26.226675 6.253734 26.010392 6.1522405 25.765362 6.050746 25.520335 5.9999997 25.265215 6 25 5.9999997 24.734784 6.050746 24.47966 6.1522405 24.23463 6.253734 23.989603 6.398249 23.773324 6.585786 23.585787 6.7733218 23.398249 6.989604 23.253733 7.234632 23.152239 7.4796607 23.050747 7.734783 23 8 23 8.265216 23 8.520338 23.050747 8.765367 23.152239 9.010394 23.253733 9.226676 23.398249 9.414213 23.585787 9.601748 23.773324 9.7462639 23.989603 9.847757 24.23463 9.949252 24.47966 9.999999 24.734784 10 25Z" fill="#575757"/>
<text fill="#575757" xml:space="preserve" transform="matrix(.6666685 0 0 .6666685 72.27838 457.90269)" font-size="12" font-family="Roboto"><tspan y="28" x="20.390625 27.782626 34.142625 40.334627 46.694627 53.222627 57.278627 63.554628">Research</tspan></text>
<path transform="matrix(.6666685,0,0,.6666685,72.27838,457.90269)" d="M10 41C9.999999 41.265214 9.949252 41.520334 9.847757 41.76536 9.7462639 42.01039 9.601748 42.226675 9.414213 42.41421 9.226676 42.601747 9.010394 42.74626 8.765367 42.847757 8.520338 42.94925 8.265216 42.999998 8 43 7.734783 42.999998 7.4796607 42.94925 7.234632 42.847757 6.989604 42.74626 6.7733218 42.601747 6.585786 42.41421 6.398249 42.226675 6.253734 42.01039 6.1522405 41.76536 6.050746 41.520334 5.9999997 41.265214 6 41 5.9999997 40.734785 6.050746 40.47966 6.1522405 40.23463 6.253734 39.9896 6.398249 39.77332 6.585786 39.585786 6.7733218 39.398248 6.989604 39.25373 7.234632 39.152238 7.4796607 39.050748 7.734783 39 8 39 8.265216 39 8.520338 39.050748 8.765367 39.152238 9.010394 39.25373 9.226676 39.398248 9.414213 39.585786 9.601748 39.77332 9.7462639 39.9896 9.847757 40.23463 9.949252 40.47966 9.999999 40.734785 10 41Z" fill="#575757"/>
<text fill="#575757" xml:space="preserve" transform="matrix(.6666685 0 0 .6666685 72.27838 457.90269)" font-size="12" font-family="Roboto"><tspan y="44" x="20.390625 28.202626 31.118626 34.034627 40.394628 47.018629 50.942628 53.91863 61.31063 67.67063 70.58663 77.11463 81.038639 83.954639 90.79464 97.41864">Client Relations</tspan></text>
<path transform="matrix(.6666685,0,0,.6666685,72.27838,457.90269)" d="M10 57C9.999999 57.265214 9.949252 57.520334 9.847757 57.76536 9.7462639 58.01039 9.601748 58.226675 9.414213 58.41421 9.226676 58.601747 9.010394 58.746259 8.765367 58.84775 8.520338 58.94925 8.265216 58.999998 8 59 7.734783 58.999998 7.4796607 58.94925 7.234632 58.847757 6.989604 58.746259 6.7733218 58.601747 6.585786 58.41421 6.398249 58.226675 6.253734 58.01039 6.1522405 57.76536 6.050746 57.520334 5.9999997 57.265214 6 57 5.9999997 56.73478 6.050746 56.479658 6.1522405 56.234628 6.253734 55.989599 6.398249 55.773317 6.585786 55.58578 6.7733218 55.398244 6.989604 55.253728 7.234632 55.152238 7.4796607 55.050748 7.734783 55 8 55 8.265216 55 8.520338 55.050748 8.765367 55.152238 9.010394 55.253728 9.226676 55.398244 9.414213 55.58578 9.601748 55.773317 9.7462639 55.989595 9.847757 56.234624 9.949252 56.479654 9.999999 56.73478 10 57Z" fill="#575757"/>
<text fill="#575757" xml:space="preserve" transform="matrix(.6666685 0 0 .6666685 72.27838 457.90269)" font-size="12" font-family="Roboto"><tspan y="60" x="20.390625 27.962626 32.018629 38.858629 41.726629 48.086629 54.36263 58.28663 61.26263 71.73863 78.26663 84.89063 91.41863 98.150638 104.510639 115.02264 121.38264 128.00664">Project Management</tspan></text>
<text fill="#575757" xml:space="preserve" transform="matrix(.6666685 0 0 .6666685 72.27838 506.46943)" font-size="12" font-family="Roboto"><tspan y="12" x="0 7.164 13.524 19.8 26.411999 33.036 35.952 42.228 48.756 51.672 54.648004 61.764005 67.84801 70.76401 73.68001 76.59601">Technical Skills</tspan></text>
<path transform="matrix(.6666685,0,0,.6666685,72.27838,506.46943)" d="M10 25C9.999999 25.265215 9.949252 25.520335 9.847757 25.765362 9.7462639 26.010392 9.601748 26.226675 9.414213 26.414212 9.226676 26.601746 9.010394 26.74626 8.765367 26.847754 8.520338 26.94925 8.265216 26.999999 8 27 7.734783 26.999999 7.4796607 26.94925 7.234632 26.847754 6.989604 26.74626 6.7733218 26.601746 6.585786 26.414212 6.398249 26.226675 6.253734 26.010392 6.1522405 25.765362 6.050746 25.520335 5.9999997 25.265215 6 25 5.9999997 24.734784 6.050746 24.47966 6.1522405 24.23463 6.253734 23.989603 6.398249 23.773324 6.585786 23.585787 6.7733218 23.398249 6.989604 23.253733 7.234632 23.152239 7.4796607 23.050747 7.734783 23 8 23 8.265216 23 8.520338 23.050747 8.765367 23.152239 9.010394 23.253733 9.226676 23.398249 9.414213 23.585787 9.601748 23.773324 9.7462639 23.989603 9.847757 24.23463 9.949252 24.47966 9.999999 24.734784 10 25Z" fill="#575757"/>
<text fill="#575757" xml:space="preserve" transform="matrix(.6666685 0 0 .6666685 72.27838 506.46943)" font-size="12" font-family="Roboto"><tspan y="28" x="20.390625 28.202626 36.026628 43.89863 46.87463 50.18663 53.162633 60.974634 67.81464 78.32664 85.05864 91.67064 95.59464 101.95464 106.01064 108.98664 116.81064 119.72664 126.49464 132.85465 139.62265 142.59865 150.47064 156.83065 163.02265 165.93865 172.67064">CAD - Computer Aided Design</tspan></text>
<path transform="matrix(.6666685,0,0,.6666685,72.27838,506.46943)" d="M10 41C9.999999 41.265214 9.949252 41.520334 9.847757 41.76536 9.7462639 42.01039 9.601748 42.226675 9.414213 42.41421 9.226676 42.601747 9.010394 42.74626 8.765367 42.847757 8.520338 42.94925 8.265216 42.999998 8 43 7.734783 42.999998 7.4796607 42.94925 7.234632 42.847757 6.989604 42.74626 6.7733218 42.601747 6.585786 42.41421 6.398249 42.226675 6.253734 42.01039 6.1522405 41.76536 6.050746 41.520334 5.9999997 41.265214 6 41 5.9999997 40.734785 6.050746 40.47966 6.1522405 40.23463 6.253734 39.9896 6.398249 39.77332 6.585786 39.585786 6.7733218 39.398248 6.989604 39.25373 7.234632 39.152238 7.4796607 39.050748 7.734783 39 8 39 8.265216 39 8.520338 39.050748 8.765367 39.152238 9.010394 39.25373 9.226676 39.398248 9.414213 39.585786 9.601748 39.77332 9.7462639 39.9896 9.847757 40.23463 9.949252 40.47966 9.999999 40.734785 10 41Z" fill="#575757"/>
<text fill="#575757" xml:space="preserve" transform="matrix(.6666685 0 0 .6666685 72.27838 506.46943)" font-size="12" font-family="Roboto"><tspan y="44" x="20.390625 28.262625 34.790628 38.714628 45.242628 48.218629 56.04263 62.66663 69.19463 72.110637 77.78664 83.97864 86.89464">Data Analysis</tspan></text>
<path transform="matrix(-.75,0,0,-.75,207.39557,366.20854)" d="M0 0H3V1H0M4 0H7V1H4M8 0H11V1H8M12 0H15V1H12M16 0H19V1H16M20 0H23V1H20M24 0H27V1H24M28 0H31V1H28M32 0H35V1H32M36 0H39V1H36M40 0H43V1H40M44 0H47V1H44M48 0H51V1H48M52 0H55V1H52M56 0H59V1H56M60 0H63V1H60M64 0H67V1H64M68 0H71V1H68M72 0H75V1H72M76 0H79V1H76M80 0H83V1H80M84 0H87V1H84M88 0H91V1H88M92 0H95V1H92M96 0H99V1H96M100 0H103V1H100M104 0H107V1H104M108 0H111V1H108M112 0H115V1H112M116 0H119V1H116M120 0H123V1H120M124 0H127V1H124M128 0H131V1H128M132 0H135V1H132M136 0H139V1H136M140 0H143V1H140M144 0H147V1H144M148 0H151V1H148M152 0H155V1H152M156 0H159V1H156M160 0H163V1H160M164 0H167V1H164M168 0H171V1H168M172 0H175V1H172M176 0H179V1H176M180 0H180.16214V1H180" fill="#575757"/>
<path transform="matrix(.75,0,0,.75,256.6839,639.79428)" d="M10 10C9.999999 10.265216 9.949252 10.520337 9.847757 10.765366 9.7462639 11.010393 9.601748 11.226675 9.414213 11.414212 9.226676 11.601748 9.010394 11.7462639 8.765367 11.847757 8.520338 11.949251 8.265216 11.999999 8 12 7.734783 11.999999 7.4796607 11.949251 7.234632 11.847757 6.989604 11.7462639 6.7733218 11.601748 6.585786 11.414212 6.398249 11.226675 6.253734 11.010393 6.1522405 10.765366 6.050746 10.520337 5.9999997 10.265216 6 10 5.9999997 9.734783 6.050746 9.479661 6.1522405 9.2346329 6.253734 8.989604 6.398249 8.773322 6.585786 8.585786 6.7733218 8.398249 6.989604 8.253734 7.234632 8.15224 7.4796607 8.050747 7.734783 8 8 8 8.265216 8 8.520338 8.050747 8.765367 8.15224 9.010394 8.253734 9.226676 8.398249 9.414213 8.585786 9.601748 8.773322 9.7462639 8.989604 9.847757 9.2346329 9.949252 9.479661 9.999999 9.734783 10 10Z" fill="#575757"/>
<text fill="#575757" xml:space="preserve" transform="matrix(.75 0 0 .75 256.6839 639.79428)" font-size="12" font-family="Roboto"><tspan y="13" x="20.390625 28.214627 34.406629 40.59863 46.95863 53.15063 59.342634 65.70264 72.470638 75.44663 82.21463 88.74263 91.65863 94.57463 100.25063 103.22663 109.85063 116.21063 122.57063 129.33864">Assessed daily needs</tspan></text>
<path transform="matrix(.75,0,0,.75,256.6839,639.79428)" d="M10 29C9.999999 29.265215 9.949252 29.520335 9.847757 29.765362 9.7462639 30.01039 9.601748 30.226674 9.414213 30.414212 9.226676 30.601746 9.010394 30.74626 8.765367 30.847756 8.520338 30.949252 8.265216 30.999999 8 31 7.734783 30.999999 7.4796607 30.949252 7.234632 30.847758 6.989604 30.746262 6.7733218 30.601746 6.585786 30.414212 6.398249 30.226674 6.253734 30.01039 6.1522405 29.765362 6.050746 29.520335 5.9999997 29.265215 6 29 5.9999997 28.734782 6.050746 28.479657 6.1522405 28.234629 6.253734 27.989602 6.398249 27.77332 6.585786 27.585783 6.7733218 27.398247 6.989604 27.253733 7.234632 27.152239 7.4796607 27.050747 7.734783 27 8 27 8.265216 27 8.520338 27.050747 8.765367 27.152239 9.010394 27.253733 9.226676 27.398247 9.414213 27.585783 9.601748 27.77332 9.7462639 27.989602 9.847757 28.234629 9.949252 28.479657 9.999999 28.734782 10 29Z" fill="#575757"/>
<text fill="#575757" xml:space="preserve" transform="matrix(.75 0 0 .75 256.6839 639.79428)" font-size="12" font-family="Roboto"><tspan y="32" x="20.390625 28.166626 32.090627 35.006628 37.922628 40.838628 46.790628 53.150629 59.91863 62.89463 69.08663 75.44663 78.36263 82.526638 85.50263 92.27063 95.18663 99.24263 105.60263 111.87863 115.802639 118.718639 125.55864">Utilized self direction</tspan></text>
<text fill="#575757" xml:space="preserve" transform="matrix(.71049669 0 0 .71049669 408.68916 630.3446)" font-size="12" font-family="Roboto"><tspan y="13" x="65.84375 72.46775 79.07975 85.70375">June</tspan></text>
<text fill="#575757" xml:space="preserve" transform="matrix(.71049669 0 0 .71049669 408.68916 630.3446)" font-size="12" font-family="Roboto"><tspan y="13" x="92.0625 95.0385">  </tspan></text>
<text fill="#575757" xml:space="preserve" transform="matrix(.71049669 0 0 .71049669 408.68916 630.3446)" font-size="12" font-family="Roboto"><tspan y="13" x="98.015628 104.75963 111.50363 118.247638 124.99164 127.967639 131.27964 134.25563 144.73163 151.25963 155.31563 161.59163 168.20363 171.17963 177.92363 184.66764 191.41164">2022 - March 2023</tspan></text>
<text fill="#575757" xml:space="preserve" transform="matrix(.71049669 0 0 .71049669 409.43937 672.1477)" font-size="12" font-family="Roboto"><tspan y="13" x="48.171876 58.647874 65.17587 70.851879 73.82787 80.57188 87.31588 94.05988 100.80389 103.779888 107.09189 110.06789 117.18388 123.543888 130.27588 134.19988 140.55988 151.07187 157.80387 164.16387 168.21987 171.19586 177.93987 184.68387 191.42787">May 2021 - September 2021</tspan></text>
<text fill="#575757" xml:space="preserve" transform="matrix(.75 0 0 .75 261.37403 606.31338)" font-size="14.66" font-family="Roboto"><tspan y="16" x="0 8.694992 16.66719 24.753891 33.0195 39.954027 43.582307 52.82834 61.18698 64.7437 72.8304 77.61801 81.24629 90.37067 98.13533 106.10753 113.77916 121.85155 125.47983 135.92813 144.28678 152.36632 159.92345">Sandy Point Beach House</tspan></text>
<text fill="#575757" xml:space="preserve" transform="matrix(.75 0 0 .75 261.37403 623.99948)" font-size="12.7" font-family="Roboto" font-weight="bold"><tspan y="13" x="0 8.183685 12.811401 19.669342 26.812256 29.97174 38.273134 45.44702 52.62091">Prep Cook</tspan></text>
<text fill="#575757" xml:space="preserve" transform="matrix(.75 0 0 .75 261.37403 671.3974)" font-size="12.7" font-family="Roboto" font-weight="bold"><tspan y="13" x="0 8.245636 11.609558 18.132966 25.232514 34.55609 41.358278 47.881685 54.98123 61.839174">Dishwasher</tspan></text>
<path transform="matrix(.75,0,0,.75,256.6839,687.1922)" d="M10 10C9.999999 10.265216 9.949252 10.520337 9.847757 10.765366 9.7462639 11.010393 9.601748 11.226675 9.414213 11.414212 9.226676 11.601748 9.010394 11.7462639 8.765367 11.847757 8.520338 11.949251 8.265216 11.999999 8 12 7.734783 11.999999 7.4796607 11.949251 7.234632 11.847757 6.989604 11.7462639 6.7733218 11.601748 6.585786 11.414212 6.398249 11.226675 6.253734 11.010393 6.1522405 10.765366 6.050746 10.520337 5.9999997 10.265216 6 10 5.9999997 9.734783 6.050746 9.479661 6.1522405 9.2346329 6.253734 8.989604 6.398249 8.773322 6.585786 8.585786 6.7733218 8.398249 6.989604 8.253734 7.234632 8.15224 7.4796607 8.050747 7.734783 8 8 8 8.265216 8 8.520338 8.050747 8.765367 8.15224 9.010394 8.253734 9.226676 8.398249 9.414213 8.585786 9.601748 8.773322 9.7462639 8.989604 9.847757 9.2346329 9.949252 9.479661 9.999999 9.734783 10 10Z" fill="#575757"/>
<text fill="#575757" xml:space="preserve" transform="matrix(.75 0 0 .75 256.6839 687.1922)" font-size="12" font-family="Roboto"><tspan y="13" x="20.390625 27.206625 33.830629 40.02263 46.63463 50.690629 57.05063 63.81863 66.79463 73.32263 76.29863 82.57463 88.93463 92.99063 96.914638 103.442638 106.358638 112.982639 115.95863 118.87463 125.234638 131.04264 137.40264 140.31864 143.29463 150.13463 154.29863 157.27463 164.09062 170.70262 177.23062 180.14662 183.06262 186.98662">Ensured a certain level of quality</tspan></text>
<path transform="matrix(.75,0,0,.75,256.6839,687.1922)" d="M10 29C9.999999 29.265215 9.949252 29.520335 9.847757 29.765362 9.7462639 30.01039 9.601748 30.226674 9.414213 30.414212 9.226676 30.601746 9.010394 30.74626 8.765367 30.847756 8.520338 30.949252 8.265216 30.999999 8 31 7.734783 30.999999 7.4796607 30.949252 7.234632 30.847758 6.989604 30.746262 6.7733218 30.601746 6.585786 30.414212 6.398249 30.226674 6.253734 30.01039 6.1522405 29.765362 6.050746 29.520335 5.9999997 29.265215 6 29 5.9999997 28.734782 6.050746 28.479657 6.1522405 28.234629 6.253734 27.989602 6.398249 27.77332 6.585786 27.585783 6.7733218 27.398247 6.989604 27.253733 7.234632 27.152239 7.4796607 27.050747 7.734783 27 8 27 8.265216 27 8.520338 27.050747 8.765367 27.152239 9.010394 27.253733 9.226676 27.398247 9.414213 27.585783 9.601748 27.77332 9.7462639 27.989602 9.847757 28.234629 9.949252 28.479657 9.999999 28.734782 10 29Z" fill="#575757"/>
<text fill="#575757" xml:space="preserve" transform="matrix(.75 0 0 .75 256.6839 687.1922)" font-size="12" font-family="Roboto"><tspan y="32" x="20.390625 27.962626 34.490629 38.546628 42.470628 45.386629 51.66263 58.274629 61.190629 67.71863 71.77463 74.750629 81.278629 85.20263 89.12663 95.48663 102.110637 106.03464 108.95064 115.79064 122.41464 125.39064 129.31464 136.15464 139.13063 145.89864 152.25864 156.18264 162.71063 165.62664">Particular attention to detail</tspan></text>
<text fill="#575757" xml:space="preserve" transform="matrix(.75 0 0 .75 261.37403 524.01876)" font-size="12.7" font-family="Roboto" font-weight="bold"><tspan y="13" x="0 7.1367189 14.242462 21.484498 24.84842 31.954163 38.812105 45.670045 50.29776 53.661684 60.767427 68.00946 71.168949 78.039279 84.84146 91.984378 95.14386 103.680667 110.20407 116.72748 120.0914 126.61481 130.9018 137.70398 144.80973">Engineering Lab Assistant</tspan></text>
<path transform="matrix(.74999806,0,0,.74999806,256.6839,539.8135)" d="M10 10C9.999999 10.265216 9.949252 10.520337 9.847757 10.765366 9.7462639 11.010393 9.601748 11.226675 9.414213 11.414212 9.226676 11.601748 9.010394 11.7462639 8.765367 11.847757 8.520338 11.949251 8.265216 11.999999 8 12 7.734783 11.999999 7.4796607 11.949251 7.234632 11.847757 6.989604 11.7462639 6.7733218 11.601748 6.585786 11.414212 6.398249 11.226675 6.253734 11.010393 6.1522405 10.765366 6.050746 10.520337 5.9999997 10.265216 6 10 5.9999997 9.734783 6.050746 9.479661 6.1522405 9.2346329 6.253734 8.989604 6.398249 8.773322 6.585786 8.585786 6.7733218 8.398249 6.989604 8.253734 7.234632 8.15224 7.4796607 8.050747 7.734783 8 8 8 8.265216 8 8.520338 8.050747 8.765367 8.15224 9.010394 8.253734 9.226676 8.398249 9.414213 8.585786 9.601748 8.773322 9.7462639 8.989604 9.847757 9.2346329 9.949252 9.479661 9.999999 9.734783 10 10Z" fill="#575757"/>
<text fill="#575757" xml:space="preserve" transform="matrix(.74999806 0 0 .74999806 256.6839 539.8135)" font-size="12" font-family="Roboto"><tspan y="13" x="20.390625 27.962626 34.322626 38.378625 42.542627 49.382627 53.438627 63.950628 70.31062 77.07862 80.05462 84.11062 90.47062 96.66262 103.02262 109.55062 113.60662 119.88262 126.49462 129.47063 136.31063 142.93463 145.91063 148.82663 155.18663 161.91863 168.44663 171.36263 174.33863 178.39463 184.75463 191.48662 198.09862 201.01462 207.54262 211.46662 214.38262 221.22261 227.84662 234.03862 237.01462 243.54262 250.16663 256.93464 259.91065 265.71867 268.63465 275.16267 281.89466 284.81065 291.17066 294.14668 298.07069 304.43067 310.70668 317.31867 323.94267 330.78266 333.69865 340.53865 347.27064 350.1866 356.46263 362.99064">Performed research on legal regulations and viable technological</tspan></text>
<text fill="#575757" xml:space="preserve" transform="matrix(.74999806 0 0 .74999806 256.6839 539.8135)" font-size="12" font-family="Roboto"><tspan y="32" x="20.390625 26.582627 33.422628 36.338628 42.950628 46.874628 49.790628 56.630628 63.254629">solutions</tspan></text>
<path transform="matrix(.74999806,0,0,.74999806,256.6839,539.8135)" d="M10 48C9.999999 48.265214 9.949252 48.520334 9.847757 48.76536 9.7462639 49.010389 9.601748 49.22667 9.414213 49.41421 9.226676 49.601747 9.010394 49.746259 8.765367 49.84775 8.520338 49.949247 8.265216 49.999998 8 50 7.734783 49.999998 7.4796607 49.949247 7.234632 49.84775 6.989604 49.746259 6.7733218 49.601747 6.585786 49.41421 6.398249 49.22667 6.253734 49.010389 6.1522405 48.76536 6.050746 48.520334 5.9999997 48.265214 6 48 5.9999997 47.734785 6.050746 47.47966 6.1522405 47.23463 6.253734 46.9896 6.398249 46.77332 6.585786 46.585786 6.7733218 46.398248 6.989604 46.25373 7.234632 46.152238 7.4796607 46.050748 7.734783 46 8 46 8.265216 46 8.520338 46.050748 8.765367 46.152238 9.010394 46.25373 9.226676 46.398248 9.414213 46.585786 9.601748 46.77332 9.7462639 46.9896 9.847757 47.23463 9.949252 47.47966 9.999999 47.734785 10 48Z" fill="#575757"/>
<text fill="#575757" xml:space="preserve" transform="matrix(.74999806 0 0 .74999806 256.6839 539.8135)" font-size="12" font-family="Roboto"><tspan y="51" x="20.390625 27.554625 33.914628 40.10663 44.03063 50.39063 57.15863 60.134634 66.32663 69.24263 79.75463 86.36663 89.28263 95.81063 99.734638 102.650638 109.49064 116.11464 119.09064 125.28264 132.12264 136.28664 140.21063 149.22263 155.75063 159.80663 166.16663 169.14263 175.67063 182.40262 188.93062 191.84662 198.47061 204.66262 208.58661 211.5626 215.6186 221.9786 228.5066 231.4226 234.3986 243.41062 250.25061 254.30661 257.2226 263.9906 266.9666 277.4786 283.83863 290.36665 296.55863 303.17063 307.22663 313.5866 324.0986 330.45863 337.0826 341.00663">Tested simulation software against real world measurements</tspan></text>
<path transform="matrix(.74999806,0,0,.74999806,256.6839,539.8135)" d="M10 67C9.999999 67.26521 9.949252 67.52033 9.847757 67.765369 9.7462639 68.01038 9.601748 68.22667 9.414213 68.41421 9.226676 68.601749 9.010394 68.746257 8.765367 68.84775 8.520338 68.94924 8.265216 68.99999 8 69 7.734783 68.99999 7.4796607 68.94924 7.234632 68.84775 6.989604 68.746257 6.7733218 68.601749 6.585786 68.41421 6.398249 68.22667 6.253734 68.01038 6.1522405 67.765369 6.050746 67.52033 5.9999997 67.26521 6 67 5.9999997 66.73478 6.050746 66.47965 6.1522405 66.23463 6.253734 65.98959 6.398249 65.773319 6.585786 65.585788 6.7733218 65.39825 6.989604 65.25373 7.234632 65.15224 7.4796607 65.05074 7.734783 65 8 65 8.265216 65 8.520338 65.05074 8.765367 65.15224 9.010394 65.25373 9.226676 65.39825 9.414213 65.585788 9.601748 65.773319 9.7462639 65.98959 9.847757 66.23463 9.949252 66.47965 9.999999 66.73478 10 67Z" fill="#575757"/>
<text fill="#575757" xml:space="preserve" transform="matrix(.74999806 0 0 .74999806 256.6839 539.8135)" font-size="12" font-family="Roboto"><tspan y="70" x="20.390625 28.202626 32.258626 38.618627 45.146627 49.070627 55.430627 62.198629 65.17463 71.70263 78.32663 85.09463 88.070629 94.80263 101.16263 105.21863 109.38263 116.22263 120.27863 130.79064 137.15064 143.91864 146.89464 153.17064 160.01064 170.52265 177.25464 180.17064 186.53064 192.48264 195.45864 201.81864 204.73464 211.09464 217.37064 221.29463 225.35063 232.19063 242.70264 249.23064 255.96263 262.58665 268.94667 272.87068 275.78666 282.06266 285.03868 291.23066 294.14665 304.65864 311.27064 314.1866 320.71464 324.63865 327.55464 334.39463 341.01863">Created and performed complex electromagnetic simulations</tspan></text>
<text fill="#575757" xml:space="preserve" transform="matrix(.71049669 0 0 .71049669 405.9384 525.3193)" font-size="12" font-family="Roboto"><tspan y="13" x="56.125 62.761 69.121 75.853008 79.909008 86.521 93.049 97.105 102.781009 105.757 112.50101 119.24501 125.98901 132.73302 135.70902 139.02101 141.99701 148.621 155.233 161.857 168.217 171.193 177.937 184.681 191.425">February 2023 - June 2023</tspan></text>
<path transform="matrix(-.75,0,0,-.75,205.99475,551.7786)" d="M0 0H3V1H0M4 0H7V1H4M8 0H11V1H8M12 0H15V1H12M16 0H19V1H16M20 0H23V1H20M24 0H27V1H24M28 0H31V1H28M32 0H35V1H32M36 0H39V1H36M40 0H43V1H40M44 0H47V1H44M48 0H51V1H48M52 0H55V1H52M56 0H59V1H56M60 0H63V1H60M64 0H67V1H64M68 0H71V1H68M72 0H75V1H72M76 0H79V1H76M80 0H83V1H80M84 0H87V1H84M88 0H91V1H88M92 0H95V1H92M96 0H99V1H96M100 0H103V1H100M104 0H107V1H104M108 0H111V1H108M112 0H115V1H112M116 0H119V1H116M120 0H123V1H120M124 0H127V1H124M128 0H131V1H128M132 0H135V1H132M136 0H139V1H136M140 0H143V1H140M144 0H147V1H144M148 0H151V1H148M152 0H155V1H152M156 0H159V1H156M160 0H163V1H160M164 0H167V1H164M168 0H171V1H168M172 0H175V1H172M176 0H179V1H176M180 0H180.16214V1H180" fill="#575757"/>
<text fill="#575757" xml:space="preserve" transform="matrix(.74683216 0 0 .74683216 261.07676 414.41688)" font-size="12.7" font-family="Roboto" font-weight="bold"><tspan y="13" x="0 8.183685 12.811401 19.98529 27.1344 34.233949 40.85028 45.137269 48.296754 56.54239 63.40033 69.812229 76.670169 80.03409 87.20798 94.35089 105.33475 112.19269 119.29843 123.58542 126.7449 130.44336 137.5491 141.83609 148.69403 153.32175 160.42749 163.58698 168.50586 171.66535 178.94455 186.22376 193.50296">Product Development Intern - 2023</tspan></text>
<text fill="#575757" xml:space="preserve" transform="matrix(.71049669 0 0 .71049669 403.14738 414.60887)" font-size="12" font-family="Roboto"><tspan y="13" x="64.890628 71.514629 78.126628 84.750629 91.11063 94.086627 100.83063 107.57463 114.318637 121.06264 124.038639 127.35063 130.32663 138.15064 144.76264 151.49463 158.10663 164.29863 168.22263 171.19863 177.94263 184.68663 191.43064">June 2023 - August 2023</tspan></text>
<path transform="matrix(.74999806,0,0,.74999806,258.58305,429.8531)" d="M10 10C9.999999 10.265216 9.949252 10.520337 9.847757 10.765366 9.7462639 11.010393 9.601748 11.226675 9.414213 11.414212 9.226676 11.601748 9.010394 11.7462639 8.765367 11.847757 8.520338 11.949251 8.265216 11.999999 8 12 7.734783 11.999999 7.4796607 11.949251 7.234632 11.847757 6.989604 11.7462639 6.7733218 11.601748 6.585786 11.414212 6.398249 11.226675 6.253734 11.010393 6.1522405 10.765366 6.050746 10.520337 5.9999997 10.265216 6 10 5.9999997 9.734783 6.050746 9.479661 6.1522405 9.2346329 6.253734 8.989604 6.398249 8.773322 6.585786 8.585786 6.7733218 8.398249 6.989604 8.253734 7.234632 8.15224 7.4796607 8.050747 7.734783 8 8 8 8.265216 8 8.520338 8.050747 8.765367 8.15224 9.010394 8.253734 9.226676 8.398249 9.414213 8.585786 9.601748 8.773322 9.7462639 8.989604 9.847757 9.2346329 9.949252 9.479661 9.999999 9.734783 10 10Z" fill="#575757"/>
<text fill="#575757" xml:space="preserve" transform="matrix(.74999806 0 0 .74999806 258.58305 429.8531)" font-size="12" font-family="Roboto"><tspan y="13" x="20.390625 27.962626 34.322626 38.378625 42.542627 49.382627 53.438627 63.950628 70.31062 77.07862 80.05462 86.41462 92.36662 96.29063 102.65063 109.27463 115.46663 118.38263 124.19063 130.55063 133.52663 137.58263 143.94263 150.13463 156.49463 163.02263 167.07863 173.35463 179.96663 182.94263 189.78263 196.40662 199.38262 203.30661 209.66661 215.94261 222.55461 229.17862 236.01862 238.93462 245.77462 252.5066 255.4226 261.7826 267.97459 270.9506 275.1146 281.9546 286.0106 288.9866 295.7186 299.7746 306.6146 313.3826 319.9946 326.2706 330.1946">Performed extensive research on technologies for products</tspan></text>
<path transform="matrix(.74999806,0,0,.74999806,258.58305,429.8531)" d="M10 29C9.999999 29.265215 9.949252 29.520335 9.847757 29.765362 9.7462639 30.01039 9.601748 30.226674 9.414213 30.414212 9.226676 30.601746 9.010394 30.74626 8.765367 30.847756 8.520338 30.949252 8.265216 30.999999 8 31 7.734783 30.999999 7.4796607 30.949252 7.234632 30.847758 6.989604 30.746262 6.7733218 30.601746 6.585786 30.414212 6.398249 30.226674 6.253734 30.01039 6.1522405 29.765362 6.050746 29.520335 5.9999997 29.265215 6 29 5.9999997 28.734782 6.050746 28.479657 6.1522405 28.234629 6.253734 27.989602 6.398249 27.77332 6.585786 27.585783 6.7733218 27.398247 6.989604 27.253733 7.234632 27.152239 7.4796607 27.050747 7.734783 27 8 27 8.265216 27 8.520338 27.050747 8.765367 27.152239 9.010394 27.253733 9.226676 27.398247 9.414213 27.585783 9.601748 27.77332 9.7462639 27.989602 9.847757 28.234629 9.949252 28.479657 9.999999 28.734782 10 29Z" fill="#575757"/>
<text fill="#575757" xml:space="preserve" transform="matrix(.74999806 0 0 .74999806 258.58305 429.8531)" font-size="12" font-family="Roboto"><tspan y="32" x="20.390625 27.962626 34.490629 38.546628 42.470628 45.386629 51.66263 54.57863 61.31063 67.83863 71.762638 78.122638 84.89063 87.86663 90.78263 97.40663 100.38263 103.29863 110.06663 116.42663 122.95463 125.930629 132.66263 139.02263 145.64664 152.00664 156.06264 162.59064 166.51464 169.43064 176.27063 182.89463 185.87062 190.03462 196.87462 200.93062 203.90662 206.82262 213.44663 217.37062 223.73062 226.64662 229.56262 235.92263 242.19863 246.12262 252.73462 259.26264 262.17863 265.15464 271.88664 275.94264 282.78263 289.51463 295.87464 299.93064 303.85466">Participated in idea generation for intellectual property</tspan></text>
<path transform="matrix(.74999806,0,0,.74999806,258.58305,429.8531)" d="M10 48C9.999999 48.265214 9.949252 48.520334 9.847757 48.76536 9.7462639 49.010389 9.601748 49.22667 9.414213 49.41421 9.226676 49.601747 9.010394 49.746259 8.765367 49.84775 8.520338 49.949247 8.265216 49.999998 8 50 7.734783 49.999998 7.4796607 49.949247 7.234632 49.84775 6.989604 49.746259 6.7733218 49.601747 6.585786 49.41421 6.398249 49.22667 6.253734 49.010389 6.1522405 48.76536 6.050746 48.520334 5.9999997 48.265214 6 48 5.9999997 47.734785 6.050746 47.47966 6.1522405 47.23463 6.253734 46.9896 6.398249 46.77332 6.585786 46.585786 6.7733218 46.398248 6.989604 46.25373 7.234632 46.152238 7.4796607 46.050748 7.734783 46 8 46 8.265216 46 8.520338 46.050748 8.765367 46.152238 9.010394 46.25373 9.226676 46.398248 9.414213 46.585786 9.601748 46.77332 9.7462639 46.9896 9.847757 47.23463 9.949252 47.47966 9.999999 47.734785 10 48Z" fill="#575757"/>
<text fill="#575757" xml:space="preserve" transform="matrix(.74999806 0 0 .74999806 258.58305 429.8531)" font-size="12" font-family="Roboto"><tspan y="51" x="20.390625 31.034626 37.874628 41.930627 48.014627 54.374628 61.142629 64.11863 68.04263 74.88264 77.858638 84.134639 88.190639 94.55064 101.078639 105.00264 111.36264 114.33864 120.96264 127.32264 136.33464 139.31064 143.23464 149.59464 155.87064 162.48264 169.10663 175.94663 178.86263 185.70262 192.43462 195.35062 201.71062 207.90262 210.87862 214.80261 221.64261 224.6186 231.3506 234.2666 240.0746 246.4346 249.4106 255.6866 258.6026 261.5186 267.8786 274.5026 278.4266 281.40263 287.67863 294.51863 305.0306 311.7626 318.12263 322.04664 324.96263 328.88664 331.8026 337.61064 343.97065 346.94667 353.30665 360.07466 366.80665">Worked to create new technologies to give client competitive edge</tspan></text>
<path transform="matrix(.74999806,0,0,.74999806,258.58305,429.8531)" d="M10 67C9.999999 67.26521 9.949252 67.52033 9.847757 67.765369 9.7462639 68.01038 9.601748 68.22667 9.414213 68.41421 9.226676 68.601749 9.010394 68.746257 8.765367 68.84775 8.520338 68.94924 8.265216 68.99999 8 69 7.734783 68.99999 7.4796607 68.94924 7.234632 68.84775 6.989604 68.746257 6.7733218 68.601749 6.585786 68.41421 6.398249 68.22667 6.253734 68.01038 6.1522405 67.765369 6.050746 67.52033 5.9999997 67.26521 6 67 5.9999997 66.73478 6.050746 66.47965 6.1522405 66.23463 6.253734 65.98959 6.398249 65.773319 6.585786 65.585788 6.7733218 65.39825 6.989604 65.25373 7.234632 65.15224 7.4796607 65.05074 7.734783 65 8 65 8.265216 65 8.520338 65.05074 8.765367 65.15224 9.010394 65.25373 9.226676 65.39825 9.414213 65.585788 9.601748 65.773319 9.7462639 65.98959 9.847757 66.23463 9.949252 66.47965 9.999999 66.73478 10 67Z" fill="#575757"/>
<text fill="#575757" xml:space="preserve" transform="matrix(.74999806 0 0 .74999806 258.58305 429.8531)" font-size="12" font-family="Roboto"><tspan y="70" x="20.390625 28.202626 35.042627 45.554628 56.066629 62.678628 69.30263 72.21863 78.49463 85.02263 88.94663 95.30663 102.07463 105.05063 114.06263 116.97863 120.90263 127.51463 130.49063 136.76663 139.68264 142.59864 148.95864 155.58264 159.50664 165.69864 168.67464 175.51464 181.32263 187.68264 191.73863 194.71463 201.44663 205.50263 212.34262 219.11063 225.72263 231.99863 235.92263 238.89862 245.66663 252.02663 257.83464 264.19465 267.11064 273.95063 280.68263 291.1946 297.55464 304.17863 308.10264 311.07865 317.84666 320.76264 324.81864 331.17866 337.45466 341.37867 344.29466 351.13465">Communicated with clients over product development direction</tspan></text>
<path transform="matrix(.74999806,0,0,.74999806,258.58305,429.8531)" d="M10 86C9.999999 86.265209 9.949252 86.520328 9.847757 86.76536 9.7462639 87.01038 9.601748 87.22667 9.414213 87.414218 9.226676 87.601749 9.010394 87.74626 8.765367 87.847759 8.520338 87.94925 8.265216 87.99999 8 88 7.734783 87.99999 7.4796607 87.94925 7.234632 87.847759 6.989604 87.74626 6.7733218 87.601749 6.585786 87.414218 6.398249 87.22667 6.253734 87.01038 6.1522405 86.76536 6.050746 86.520328 5.9999997 86.265209 6 86 5.9999997 85.73478 6.050746 85.47965 6.1522405 85.23463 6.253734 84.98959 6.398249 84.773319 6.585786 84.585788 6.7733218 84.39825 6.989604 84.25373 7.234632 84.15224 7.4796607 84.05074 7.734783 84 8 84 8.265216 84 8.520338 84.05074 8.765367 84.15224 9.010394 84.25373 9.226676 84.39825 9.414213 84.585788 9.601748 84.773319 9.7462639 84.98959 9.847757 85.23463 9.949252 85.47965 9.999999 85.73478 10 86Z" fill="#575757"/>
<text fill="#575757" xml:space="preserve" transform="matrix(.74999806 0 0 .74999806 258.58305 429.8531)" font-size="12" font-family="Roboto"><tspan y="89" x="20.390625 28.202626 32.258626 38.618627 45.146627 49.070627 55.430627 62.198629 65.17463 71.90663 75.96263 82.802639 86.72664 93.56664 97.49065 103.16665 109.89865 116.25865 122.45065 125.42665 132.26665 136.43065 139.40665 146.03064 152.39064 161.40265 164.37865 171.11064 175.16664 182.00664 188.77465 195.38665 201.66265 205.58664 211.77864 214.75464 221.36664 227.55864 230.47464 237.09864 243.83063 246.80663 253.55063 260.31864 263.29466 270.02665 274.08265 276.99864 283.62263 287.54664 290.46263 297.0866 303.8186 306.79463 313.32264 319.94664">Created prototypes of new products using 3d printing and</tspan></text>
<text fill="#575757" xml:space="preserve" transform="matrix(.74999806 0 0 .74999806 258.58305 429.8531)" font-size="12" font-family="Roboto"><tspan y="108" x="20.390625 26.582627 29.498627 40.010629 46.622629 49.538629 56.066629 59.990629 62.906629 69.74663">simulation</tspan></text>
<text fill="#575757" xml:space="preserve" transform="matrix(.6666685 0 0 .6666685 72.27838 582.23226)" font-size="12" font-family="Roboto"><tspan y="12" x="0 6.816 13.440001 17.364 23.724 27.78 34.512 38.568 41.484 47.676004 54.036005 56.940004 59.916006 63.180006 71.352008 78.468 81.444 85.548007 92.29201 97.96801 102.02401">Enterprise: IGS (1yr)</tspan></text>
<text fill="#575757" xml:space="preserve" transform="matrix(.6666685 0 0 .6666685 72.27838 582.23226)" font-size="12" font-family="Roboto"><tspan y="28" x="0 3.2640002 9.8880009 16.512001 23.352002 29.160002 35.688005 39.612005 42.528005 48.336008 54.696008 57.67201 65.84401 68.76001 75.60001 82.332019 88.860019 91.77602 94.752017 101.86801 108.708019 111.624019 118.236019 122.16002 125.07602 131.91602 138.54001">Innovative Global Solutions</tspan></text>
<path transform="matrix(.6666685,0,0,.6666685,72.27838,582.23226)" d="M10 41C9.999999 41.265214 9.949252 41.520334 9.847757 41.76536 9.7462639 42.01039 9.601748 42.226675 9.414213 42.41421 9.226676 42.601747 9.010394 42.74626 8.765367 42.847757 8.520338 42.94925 8.265216 42.999998 8 43 7.734783 42.999998 7.4796607 42.94925 7.234632 42.847757 6.989604 42.74626 6.7733218 42.601747 6.585786 42.41421 6.398249 42.226675 6.253734 42.01039 6.1522405 41.76536 6.050746 41.520334 5.9999997 41.265214 6 41 5.9999997 40.734785 6.050746 40.47966 6.1522405 40.23463 6.253734 39.9896 6.398249 39.77332 6.585786 39.585786 6.7733218 39.398248 6.989604 39.25373 7.234632 39.152238 7.4796607 39.050748 7.734783 39 8 39 8.265216 39 8.520338 39.050748 8.765367 39.152238 9.010394 39.25373 9.226676 39.398248 9.414213 39.585786 9.601748 39.77332 9.7462639 39.9896 9.847757 40.23463 9.949252 40.47966 9.999999 40.734785 10 41Z" fill="#575757"/>
<text fill="#575757" xml:space="preserve" transform="matrix(.6666685 0 0 .6666685 72.27838 582.23226)" font-size="12" font-family="Roboto"><tspan y="44" x="20.390625 28.262625 34.622629 40.430627 46.790628 49.706628 56.546628 63.278627 69.638629 76.406627 79.38262 85.65862 92.49863 99.266628 105.626628 108.60262 112.766628 119.60663 123.66263 126.638629 129.55463 136.39463 145.40662 148.38262 154.65862 161.49861 167.69062">Developed code for low cost</tspan></text>
<text fill="#575757" xml:space="preserve" transform="matrix(.6666685 0 0 .6666685 72.27838 582.23226)" font-size="12" font-family="Roboto"><tspan y="60" x="20.390625 23.306626 29.930626 34.094629 40.622629 47.246629 51.170629 54.14663 57.06263 63.68663 69.96263 76.57463 83.30663 89.83463 93.75864 100.59864 104.65464 107.63064 110.54664 117.17064 120.14664 127.95863 134.76264">infant incubator in C++</tspan></text>
<path transform="matrix(.6666685,0,0,.6666685,72.27838,582.23226)" d="M10 73C9.999999 73.26521 9.949252 73.52033 9.847757 73.76536 9.7462639 74.01038 9.601748 74.22667 9.414213 74.41421 9.226676 74.601749 9.010394 74.746257 8.765367 74.84775 8.520338 74.94924 8.265216 74.99999 8 75 7.734783 74.99999 7.4796607 74.94924 7.234632 74.84775 6.989604 74.746257 6.7733218 74.601749 6.585786 74.41421 6.398249 74.22667 6.253734 74.01038 6.1522405 73.76536 6.050746 73.52033 5.9999997 73.26521 6 73 5.9999997 72.73478 6.050746 72.47966 6.1522405 72.23463 6.253734 71.9896 6.398249 71.77332 6.585786 71.585788 6.7733218 71.39825 6.989604 71.25373 7.234632 71.15223 7.4796607 71.05074 7.734783 71 8 71 8.265216 71 8.520338 71.05074 8.765367 71.15223 9.010394 71.25373 9.226676 71.39825 9.414213 71.585788 9.601748 71.77332 9.7462639 71.9896 9.847757 72.23463 9.949252 72.47966 9.999999 72.73478 10 73Z" fill="#575757"/>
<text fill="#575757" xml:space="preserve" transform="matrix(.6666685 0 0 .6666685 72.27838 582.23226)" font-size="12" font-family="Roboto"><tspan y="76" x="20.390625 31.034626 37.874628 41.930627 48.014627 54.374628 61.142629 64.11863 67.03463 73.65863 76.63463 83.16263 86.138629 90.06263 96.42263 102.95063 113.46263 116.43863 120.36263 127.20264 130.17864 136.94664 143.30664 149.11464 155.47464 158.39064 165.23064">Worked in a team to develop</tspan></text>
<text fill="#575757" xml:space="preserve" transform="matrix(.6666685 0 0 .6666685 72.27838 582.23226)" font-size="12" font-family="Roboto"><tspan y="92" x="20.390625 26.750626 29.666626 36.026628 42.302629 46.226629 50.282629 53.198629 59.47463 66.00263 68.91863 71.89463 78.08663 83.762638 89.954639 93.87864 100.23864">electrical system</tspan></text>
<text fill="#575757" xml:space="preserve" transform="matrix(.75 0 0 .75 72.27838 558.7997)" font-size="16.38" font-family="HKGrotesk" font-weight="bold"><tspan y="16" x="0 13.927187 28.621953 41.469736 49.600107 63.56727 71.69764 84.54542 97.760997">ACTIVITES</tspan></text>
<text fill="#575757" xml:space="preserve" transform="matrix(.6666685 0 0 .6666685 72.27838 655.51516)" font-size="12" font-family="Roboto"><tspan y="12" x="0 6.6360008 9.552001 13.608002 19.800004 23.724003 26.700003 34.092004 40.932004 47.664 54.504 58.428 61.344 67.62 73.812007 76.716 79.692 86.328 93.72 101.532 104.507999 108.612 115.356 121.032009 125.088008 131.28">First Robotics: FRC (4yrs)</tspan></text>
<path transform="matrix(.6666685,0,0,.6666685,72.27838,655.51516)" d="M10 25C9.999999 25.265215 9.949252 25.520335 9.847757 25.765362 9.7462639 26.010392 9.601748 26.226675 9.414213 26.414212 9.226676 26.601746 9.010394 26.74626 8.765367 26.847754 8.520338 26.94925 8.265216 26.999999 8 27 7.734783 26.999999 7.4796607 26.94925 7.234632 26.847754 6.989604 26.74626 6.7733218 26.601746 6.585786 26.414212 6.398249 26.226675 6.253734 26.010392 6.1522405 25.765362 6.050746 25.520335 5.9999997 25.265215 6 25 5.9999997 24.734784 6.050746 24.47966 6.1522405 24.23463 6.253734 23.989603 6.398249 23.773324 6.585786 23.585787 6.7733218 23.398249 6.989604 23.253733 7.234632 23.152239 7.4796607 23.050747 7.734783 23 8 23 8.265216 23 8.520338 23.050747 8.765367 23.152239 9.010394 23.253733 9.226676 23.398249 9.414213 23.585787 9.601748 23.773324 9.7462639 23.989603 9.847757 24.23463 9.949252 24.47966 9.999999 24.734784 10 25Z" fill="#575757"/>
<text fill="#575757" xml:space="preserve" transform="matrix(.6666685 0 0 .6666685 72.27838 655.51516)" font-size="12" font-family="Roboto"><tspan y="28" x="20.390625 28.214627 34.490629 38.414628 44.774629 51.54263 54.51863 61.04663 67.23863 70.21463 74.13863 80.498638 87.026638 97.538639 100.51463 106.790637 113.318637 120.05064 123.97464 130.50264 133.41864 140.04264 143.01863 149.54663 156.17063">Acted as team captain and</tspan></text>
<text fill="#575757" xml:space="preserve" transform="matrix(.6666685 0 0 .6666685 72.27838 655.51516)" font-size="12" font-family="Roboto"><tspan y="44" x="20.390625 27.122626 31.178626 38.018629 44.750627 48.806627 55.334627 65.84663 76.35863 79.27463 85.89863 92.63063 95.60663 98.52263 104.88263 111.41063">programming lead</tspan></text>
<path transform="matrix(.6666685,0,0,.6666685,72.27838,655.51516)" d="M10 57C9.999999 57.265214 9.949252 57.520334 9.847757 57.76536 9.7462639 58.01039 9.601748 58.226675 9.414213 58.41421 9.226676 58.601747 9.010394 58.746259 8.765367 58.84775 8.520338 58.94925 8.265216 58.999998 8 59 7.734783 58.999998 7.4796607 58.94925 7.234632 58.847757 6.989604 58.746259 6.7733218 58.601747 6.585786 58.41421 6.398249 58.226675 6.253734 58.01039 6.1522405 57.76536 6.050746 57.520334 5.9999997 57.265214 6 57 5.9999997 56.73478 6.050746 56.479658 6.1522405 56.234628 6.253734 55.989599 6.398249 55.773317 6.585786 55.58578 6.7733218 55.398244 6.989604 55.253728 7.234632 55.152238 7.4796607 55.050748 7.734783 55 8 55 8.265216 55 8.520338 55.050748 8.765367 55.152238 9.010394 55.253728 9.226676 55.398244 9.414213 55.58578 9.601748 55.773317 9.7462639 55.989595 9.847757 56.234624 9.949252 56.479654 9.999999 56.73478 10 57Z" fill="#575757"/>
<text fill="#575757" xml:space="preserve" transform="matrix(.6666685 0 0 .6666685 72.27838 655.51516)" font-size="12" font-family="Roboto"><tspan y="60" x="20.390625 28.262625 34.622629 40.430627 46.790628 49.706628 56.546628 63.278627 69.638629 76.406627 79.38262 83.43862 90.278629 97.01063 103.85063 107.774639 110.75063 117.026638 123.86664 130.63465 136.99465 139.97064 142.88665 149.51065 152.48665 159.11066 165.63866 171.44666">Developed robot code in Java</tspan></text>
<path transform="matrix(.6666685,0,0,.6666685,72.27838,655.51516)" d="M10 73C9.999999 73.26521 9.949252 73.52033 9.847757 73.76536 9.7462639 74.01038 9.601748 74.22667 9.414213 74.41421 9.226676 74.601749 9.010394 74.746257 8.765367 74.84775 8.520338 74.94924 8.265216 74.99999 8 75 7.734783 74.99999 7.4796607 74.94924 7.234632 74.84775 6.989604 74.746257 6.7733218 74.601749 6.585786 74.41421 6.398249 74.22667 6.253734 74.01038 6.1522405 73.76536 6.050746 73.52033 5.9999997 73.26521 6 73 5.9999997 72.73478 6.050746 72.47966 6.1522405 72.23463 6.253734 71.9896 6.398249 71.77332 6.585786 71.585788 6.7733218 71.39825 6.989604 71.25373 7.234632 71.15223 7.4796607 71.05074 7.734783 71 8 71 8.265216 71 8.520338 71.05074 8.765367 71.15223 9.010394 71.25373 9.226676 71.39825 9.414213 71.585788 9.601748 71.77332 9.7462639 71.9896 9.847757 72.23463 9.949252 72.47966 9.999999 72.73478 10 73Z" fill="#575757"/>
<text fill="#575757" xml:space="preserve" transform="matrix(.6666685 0 0 .6666685 72.27838 655.51516)" font-size="12" font-family="Roboto"><tspan y="76" x="20.390625 28.202626 32.258626 38.618627 45.146627 49.070627 55.430627 62.198629 65.17463 71.70263 74.67863 78.84263 85.45463 92.07863 98.35463 102.27863 105.19463 112.03464 118.65864 121.57464 128.19864">Created a functioning</tspan></text>
<text fill="#575757" xml:space="preserve" transform="matrix(.6666685 0 0 .6666685 72.27838 655.51516)" font-size="12" font-family="Roboto"><tspan y="92" x="20.390625 26.918625 33.530626 37.454626 44.294626 50.918626 57.758626 68.27063 75.110637 81.72263 87.914638 90.89063 101.40263 108.24264 115.010639">autonomous mode</tspan></text>
</g>
</svg>
